<?xml version="1.0" encoding="UTF-8" standalone="no"?>
<svg
   xmlns:dc="http://purl.org/dc/elements/1.1/"
   xmlns:cc="http://creativecommons.org/ns#"
   xmlns:rdf="http://www.w3.org/1999/02/22-rdf-syntax-ns#"
   xmlns:svg="http://www.w3.org/2000/svg"
   xmlns="http://www.w3.org/2000/svg"
   xmlns:sodipodi="http://sodipodi.sourceforge.net/DTD/sodipodi-0.dtd"
   xmlns:inkscape="http://www.inkscape.org/namespaces/inkscape"
   version="1.1"
   viewBox="0 0 551.23777 321.79801"
   stroke-miterlimit="10"
   clip-path="url(#p.0)"
   id="svg3286"
   inkscape:version="0.48.2 r9819"
   width="100%"
   height="100%"
   sodipodi:docname="buffer-objects-and-vertex-shaders.svg"
   style="fill:none;stroke:none">
  <metadata
     id="metadata3355">
    <rdf:RDF>
      <cc:Work
         rdf:about="">
        <dc:format>image/svg+xml</dc:format>
        <dc:type
           rdf:resource="http://purl.org/dc/dcmitype/StillImage" />
      </cc:Work>
    </rdf:RDF>
  </metadata>
  <defs
     id="defs3353" />
  <sodipodi:namedview
     pagecolor="#ffffff"
     bordercolor="#666666"
     borderopacity="1"
     objecttolerance="10"
     gridtolerance="10"
     guidetolerance="10"
     inkscape:pageopacity="0"
     inkscape:pageshadow="2"
     inkscape:window-width="1180"
     inkscape:window-height="884"
     id="namedview3351"
     showgrid="false"
     fit-margin-top="0"
     fit-margin-left="0"
     fit-margin-right="0"
     fit-margin-bottom="0"
     inkscape:zoom="0.32777778"
     inkscape:cx="459.90891"
     inkscape:cy="-22.10114"
     inkscape:window-x="0"
     inkscape:window-y="0"
     inkscape:window-maximized="0"
     inkscape:current-layer="svg3286" />
  <clipPath
     id="p.0">
    <path
       d="M 0,0 960,0 960,720 0,720 0,0 z"
       clip-rule="nonzero"
       id="path3289"
       inkscape:connector-curvature="0" />
  </clipPath>
  <path
     d="m 323.99946,212.94668 160,0 0,40.00002 -160,0 z"
     id="path3291"
     inkscape:connector-curvature="0"
     style="fill:#cfe2f3;fill-rule:nonzero;stroke:#000000;stroke-width:2;stroke-linecap:butt;stroke-linejoin:round" />
  <path
     d="m 59.784455,144.47996 167.999995,0 0,48 -167.999995,0 z"
     id="path3293"
     inkscape:connector-curvature="0"
     style="fill:#cfe2f3;fill-rule:nonzero;stroke:#000000;stroke-width:2;stroke-linecap:butt;stroke-linejoin:round" />
  <path
     d="m 3.7844569,23.774693 495.9999931,0 0,64 -495.9999931,0 z"
     id="path3295"
     inkscape:connector-curvature="0"
     style="fill:#cfe2f3;fill-rule:nonzero;stroke:#000000;stroke-width:2;stroke-linecap:butt;stroke-linejoin:round" />
  <path
     d="m 39.590331,62.236258 0,-13.59375 5.124996,0 q 1.359375,0 2.078125,0.125 1,0.171875 1.671875,0.640625 0.671875,0.46875 1.078125,1.3125 0.421875,0.84375 0.421875,1.84375 0,1.734375 -1.109375,2.9375 -1.09375,1.203125 -3.984375,1.203125 l -3.484371,0 0,5.53125 -1.796875,0 z m 1.796875,-7.140625 3.515621,0 q 1.75,0 2.46875,-0.640625 0.734375,-0.65625 0.734375,-1.828125 0,-0.859375 -0.4375,-1.46875 -0.421875,-0.609375 -1.125,-0.796875 -0.453125,-0.125 -1.671875,-0.125 l -3.484371,0 0,4.859375 z m 9.802944,2.21875 q 0,-2.734375 1.53125,-4.0625 1.265625,-1.09375 3.09375,-1.09375 2.03125,0 3.3125,1.34375 1.296875,1.328125 1.296875,3.671875 0,1.90625 -0.578125,3 -0.5625,1.078125 -1.65625,1.6875 -1.078125,0.59375 -2.375,0.59375 -2.0625,0 -3.34375,-1.328125 -1.28125,-1.328125 -1.28125,-3.8125 z m 1.71875,0 q 0,1.890625 0.828125,2.828125 0.828125,0.9375 2.078125,0.9375 1.25,0 2.0625,-0.9375 0.828125,-0.953125 0.828125,-2.890625 0,-1.828125 -0.828125,-2.765625 -0.828125,-0.9375 -2.0625,-0.9375 -1.25,0 -2.078125,0.9375 -0.828125,0.9375 -0.828125,2.828125 z m 8.610092,1.984375 1.65625,-0.265625 q 0.140625,1 0.765625,1.53125 0.640625,0.515625 1.78125,0.515625 1.15625,0 1.703125,-0.46875 0.5625,-0.46875 0.5625,-1.09375 0,-0.5625 -0.484375,-0.890625 -0.34375,-0.21875 -1.703125,-0.5625 -1.84375,-0.46875 -2.5625,-0.796875 -0.703125,-0.34375 -1.078125,-0.9375 -0.359375,-0.609375 -0.359375,-1.328125 0,-0.65625 0.296875,-1.21875 0.3125,-0.5625 0.828125,-0.9375 0.390625,-0.28125 1.0625,-0.484375 0.671875,-0.203125 1.4375,-0.203125 1.171875,0 2.046875,0.34375 0.875,0.328125 1.28125,0.90625 0.421875,0.5625 0.578125,1.515625 l -1.625,0.21875 q -0.109375,-0.75 -0.65625,-1.171875 -0.53125,-0.4375 -1.5,-0.4375 -1.15625,0 -1.640625,0.390625 -0.484375,0.375 -0.484375,0.875 0,0.328125 0.203125,0.59375 0.203125,0.265625 0.640625,0.4375 0.25,0.09375 1.46875,0.4375 1.765625,0.46875 2.46875,0.765625 0.703125,0.296875 1.09375,0.875 0.40625,0.578125 0.40625,1.4375 0,0.828125 -0.484375,1.578125 -0.484375,0.734375 -1.40625,1.140625 -0.921875,0.390625 -2.078125,0.390625 -1.921875,0 -2.9375,-0.796875 -1,-0.796875 -1.28125,-2.359375 z m 10.015625,-8.75 0,-1.90625 1.671875,0 0,1.90625 -1.671875,0 z m 0,11.6875 0,-9.859375 1.671875,0 0,9.859375 -1.671875,0 z m 7.785446,-1.5 0.234375,1.484375 q -0.703125,0.140625 -1.265625,0.140625 -0.90625,0 -1.40625,-0.28125 -0.5,-0.296875 -0.703125,-0.75 -0.203125,-0.46875 -0.203125,-1.984375 l 0,-5.65625 -1.234375,0 0,-1.3125 1.234375,0 0,-2.4375 1.65625,-1 0,3.4375 1.6875,0 0,1.3125 -1.6875,0 0,5.75 q 0,0.71875 0.07813,0.921875 0.09375,0.203125 0.296875,0.328125 0.203125,0.125 0.578125,0.125 0.265625,0 0.734375,-0.07813 z m 1.542682,-10.1875 0,-1.90625 1.67187,0 0,1.90625 -1.67187,0 z m 0,11.6875 0,-9.859375 1.67187,0 0,9.859375 -1.67187,0 z m 3.50419,-4.921875 q 0,-2.734375 1.53125,-4.0625 1.26563,-1.09375 3.09375,-1.09375 2.03125,0 3.3125,1.34375 1.29688,1.328125 1.29688,3.671875 0,1.90625 -0.57813,3 -0.5625,1.078125 -1.65625,1.6875 -1.07812,0.59375 -2.375,0.59375 -2.0625,0 -3.34375,-1.328125 -1.28125,-1.328125 -1.28125,-3.8125 z m 1.71875,0 q 0,1.890625 0.82813,2.828125 0.82812,0.9375 2.07812,0.9375 1.25,0 2.0625,-0.9375 0.82813,-0.953125 0.82813,-2.890625 0,-1.828125 -0.82813,-2.765625 -0.82812,-0.9375 -2.0625,-0.9375 -1.25,0 -2.07812,0.9375 -0.82813,0.9375 -0.82813,2.828125 z m 9.28197,4.921875 0,-9.859375 1.5,0 0,1.40625 q 1.09375,-1.625 3.140615,-1.625 0.89063,0 1.64063,0.328125 0.75,0.3125 1.10937,0.84375 0.375,0.515625 0.53125,1.21875 0.0937,0.46875 0.0937,1.625 l 0,6.0625 -1.67187,0 0,-6 q 0,-1.015625 -0.20313,-1.515625 -0.1875,-0.515625 -0.6875,-0.8125 -0.5,-0.296875 -1.171865,-0.296875 -1.0625,0 -1.84375,0.671875 -0.76563,0.671875 -0.76563,2.578125 l 0,5.375 -1.67187,0 z m 9.703835,-2.9375 1.65625,-0.265625 q 0.14063,1 0.76563,1.53125 0.64062,0.515625 1.78125,0.515625 1.15625,0 1.70312,-0.46875 0.5625,-0.46875 0.5625,-1.09375 0,-0.5625 -0.48437,-0.890625 -0.34375,-0.21875 -1.70313,-0.5625 -1.84375,-0.46875 -2.5625,-0.796875 -0.70312,-0.34375 -1.07812,-0.9375 -0.35938,-0.609375 -0.35938,-1.328125 0,-0.65625 0.29688,-1.21875 0.3125,-0.5625 0.82812,-0.9375 0.39063,-0.28125 1.0625,-0.484375 0.67188,-0.203125 1.4375,-0.203125 1.17188,0 2.04688,0.34375 0.875,0.328125 1.28125,0.90625 0.42187,0.5625 0.57812,1.515625 l -1.625,0.21875 q -0.10937,-0.75 -0.65625,-1.171875 -0.53125,-0.4375 -1.5,-0.4375 -1.15625,0 -1.64062,0.390625 -0.48438,0.375 -0.48438,0.875 0,0.328125 0.20313,0.59375 0.20312,0.265625 0.64062,0.4375 0.25,0.09375 1.46875,0.4375 1.76563,0.46875 2.46875,0.765625 0.70313,0.296875 1.09375,0.875 0.40625,0.578125 0.40625,1.4375 0,0.828125 -0.48437,1.578125 -0.48438,0.734375 -1.40625,1.140625 -0.92188,0.390625 -2.07813,0.390625 -1.92187,0 -2.9375,-0.796875 -1,-0.796875 -1.28125,-2.359375 z"
     id="path3297"
     inkscape:connector-curvature="0"
     style="fill:#000000;fill-rule:nonzero" />
  <path
     d="m 204.40886,57.532863 1.79687,0.453125 q -0.5625,2.21875 -2.03125,3.390625 -1.46875,1.15625 -3.59375,1.15625 -2.20312,0 -3.57812,-0.890625 -1.375,-0.90625 -2.09375,-2.59375 -0.71875,-1.703125 -0.71875,-3.65625 0,-2.125 0.79687,-3.703125 0.8125,-1.578125 2.3125,-2.390625 1.5,-0.828125 3.29688,-0.828125 2.04687,0 3.4375,1.046875 1.39062,1.03125 1.9375,2.90625 l -1.76563,0.421875 q -0.46875,-1.484375 -1.375,-2.15625 -0.90625,-0.6875 -2.26562,-0.6875 -1.5625,0 -2.625,0.75 -1.04688,0.75 -1.48438,2.03125 -0.42187,1.265625 -0.42187,2.609375 0,1.734375 0.5,3.03125 0.51562,1.28125 1.57812,1.921875 1.07813,0.640625 2.3125,0.640625 1.51563,0 2.5625,-0.859375 1.04688,-0.875 1.42188,-2.59375 z m 2.92607,-0.15625 q 0,-2.734375 1.53125,-4.0625 1.26563,-1.09375 3.09375,-1.09375 2.03125,0 3.3125,1.34375 1.29688,1.328125 1.29688,3.671875 0,1.90625 -0.57813,3 -0.5625,1.078125 -1.65625,1.6875 -1.07812,0.59375 -2.375,0.59375 -2.0625,0 -3.34375,-1.328125 -1.28125,-1.328125 -1.28125,-3.8125 z m 1.71875,0 q 0,1.890625 0.82813,2.828125 0.82812,0.9375 2.07812,0.9375 1.25,0 2.0625,-0.9375 0.82813,-0.953125 0.82813,-2.890625 0,-1.828125 -0.82813,-2.765625 -0.82812,-0.9375 -2.0625,-0.9375 -1.25,0 -2.07812,0.9375 -0.82813,0.9375 -0.82813,2.828125 z m 9.25072,4.921875 0,-13.59375 1.67187,0 0,13.59375 -1.67187,0 z m 3.55107,-4.921875 q 0,-2.734375 1.53125,-4.0625 1.26562,-1.09375 3.09375,-1.09375 2.03125,0 3.3125,1.34375 1.29687,1.328125 1.29687,3.671875 0,1.90625 -0.57812,3 -0.5625,1.078125 -1.65625,1.6875 -1.07813,0.59375 -2.375,0.59375 -2.0625,0 -3.34375,-1.328125 -1.28125,-1.328125 -1.28125,-3.8125 z m 1.71875,0 q 0,1.890625 0.82812,2.828125 0.82813,0.9375 2.07813,0.9375 1.25,0 2.0625,-0.9375 0.82812,-0.953125 0.82812,-2.890625 0,-1.828125 -0.82812,-2.765625 -0.82813,-0.9375 -2.0625,-0.9375 -1.25,0 -2.07813,0.9375 -0.82812,0.9375 -0.82812,2.828125 z m 9.26634,4.921875 0,-9.859375 1.5,0 0,1.5 q 0.57813,-1.046875 1.0625,-1.375 0.48438,-0.34375 1.07814,-0.34375 0.84375,0 1.71875,0.546875 l -0.57812,1.546875 q -0.60938,-0.359375 -1.23438,-0.359375 -0.54689,0 -0.98439,0.328125 -0.42187,0.328125 -0.60937,0.90625 -0.28125,0.890625 -0.28125,1.953125 l 0,5.15625 -1.67188,0 z m 5.55644,-2.9375 1.65625,-0.265625 q 0.14063,1 0.76563,1.53125 0.64062,0.515625 1.78125,0.515625 1.15625,0 1.70312,-0.46875 0.5625,-0.46875 0.5625,-1.09375 0,-0.5625 -0.48437,-0.890625 -0.34375,-0.21875 -1.70313,-0.5625 -1.84375,-0.46875 -2.5625,-0.796875 -0.70312,-0.34375 -1.07812,-0.9375 -0.35938,-0.609375 -0.35938,-1.328125 0,-0.65625 0.29688,-1.21875 0.3125,-0.5625 0.82812,-0.9375 0.39063,-0.28125 1.0625,-0.484375 0.67188,-0.203125 1.4375,-0.203125 1.17188,0 2.04688,0.34375 0.875,0.328125 1.28125,0.90625 0.42187,0.5625 0.57812,1.515625 l -1.625,0.21875 q -0.10937,-0.75 -0.65625,-1.171875 -0.53125,-0.4375 -1.5,-0.4375 -1.15625,0 -1.64062,0.390625 -0.48438,0.375 -0.48438,0.875 0,0.328125 0.20313,0.59375 0.20312,0.265625 0.64062,0.4375 0.25,0.09375 1.46875,0.4375 1.76563,0.46875 2.46875,0.765625 0.70313,0.296875 1.09375,0.875 0.40625,0.578125 0.40625,1.4375 0,0.828125 -0.48437,1.578125 -0.48438,0.734375 -1.40625,1.140625 -0.92188,0.390625 -2.07813,0.390625 -1.92187,0 -2.9375,-0.796875 -1,-0.796875 -1.28125,-2.359375 z"
     id="path3299"
     inkscape:connector-curvature="0"
     style="fill:#000000;fill-rule:nonzero" />
  <path
     d="m 331.51911,57.924103 1.6875,-0.140625 q 0.125,1.015625 0.5625,1.671875 0.4375,0.65625 1.35938,1.0625 0.9375,0.40625 2.09375,0.40625 1.03125,0 1.8125,-0.3125 0.79687,-0.3125 1.1875,-0.84375 0.39062,-0.53125 0.39062,-1.15625 0,-0.640625 -0.375,-1.109375 -0.375,-0.484375 -1.23437,-0.8125 -0.54688,-0.21875 -2.42188,-0.65625 -1.875,-0.453125 -2.625,-0.859375 -0.96875,-0.515625 -1.45312,-1.265625 -0.46875,-0.75 -0.46875,-1.6875 0,-1.03125 0.57812,-1.921875 0.59375,-0.90625 1.70313,-1.359375 1.125,-0.46875 2.5,-0.46875 1.51562,0 2.67187,0.484375 1.15625,0.484375 1.76563,1.4375 0.625,0.9375 0.67187,2.140625 l -1.71875,0.125 q -0.14062,-1.28125 -0.95312,-1.9375 -0.79688,-0.671875 -2.35938,-0.671875 -1.625,0 -2.375,0.609375 -0.75,0.59375 -0.75,1.4375 0,0.734375 0.53125,1.203125 0.51563,0.46875 2.70313,0.96875 2.20312,0.5 3.01562,0.875 1.1875,0.546875 1.75,1.390625 0.57813,0.828125 0.57813,1.921875 0,1.09375 -0.625,2.0625 -0.625,0.953125 -1.79688,1.484375 -1.15625,0.53125 -2.60937,0.53125 -1.84375,0 -3.09375,-0.53125 -1.25,-0.546875 -1.96875,-1.625 -0.70313,-1.078125 -0.73438,-2.453125 z m 19.28732,4.375 0,-1.453125 q -1.14062,1.671875 -3.125,1.671875 -0.85937,0 -1.625,-0.328125 -0.75,-0.34375 -1.125,-0.84375 -0.35937,-0.5 -0.51562,-1.234375 -0.0937,-0.5 -0.0937,-1.5625 l 0,-6.109375 1.67187,0 0,5.46875 q 0,1.3125 0.0937,1.765625 0.15625,0.65625 0.67188,1.03125 0.51562,0.375 1.26562,0.375 0.75,0 1.40625,-0.375 0.65625,-0.390625 0.92188,-1.046875 0.28125,-0.671875 0.28125,-1.9375 l 0,-5.28125 1.67187,0 0,9.859375 -1.5,0 z m 3.90696,0 0,-9.859375 1.5,0 0,1.5 q 0.57812,-1.046875 1.0625,-1.375 0.48437,-0.34375 1.07812,-0.34375 0.84375,0 1.71875,0.546875 l -0.57812,1.546875 q -0.60938,-0.359375 -1.23438,-0.359375 -0.54687,0 -0.98437,0.328125 -0.42188,0.328125 -0.60938,0.90625 -0.28125,0.890625 -0.28125,1.953125 l 0,5.15625 -1.67187,0 z m 6.63455,0 0,-8.546875 -1.48438,0 0,-1.3125 1.48438,0 0,-1.046875 q 0,-0.984375 0.17187,-1.46875 0.23438,-0.65625 0.84375,-1.046875 0.60938,-0.40625 1.70313,-0.40625 0.70312,0 1.5625,0.15625 l -0.25,1.46875 q -0.51563,-0.09375 -0.98438,-0.09375 -0.76562,0 -1.07812,0.328125 -0.3125,0.3125 -0.3125,1.203125 l 0,0.90625 1.92187,0 0,1.3125 -1.92187,0 0,8.546875 -1.65625,0 z m 11.21457,-1.21875 q -0.9375,0.796875 -1.79688,1.125 -0.85937,0.3125 -1.84375,0.3125 -1.60937,0 -2.48437,-0.78125 -0.875,-0.796875 -0.875,-2.03125 0,-0.734375 0.32812,-1.328125 0.32813,-0.59375 0.85938,-0.953125 0.53125,-0.359375 1.20312,-0.546875 0.5,-0.140625 1.48438,-0.25 2.03125,-0.25 2.98437,-0.578125 0,-0.34375 0,-0.4375 0,-1.015625 -0.46875,-1.4375 -0.64062,-0.5625 -1.90625,-0.5625 -1.17187,0 -1.73437,0.40625 -0.5625,0.40625 -0.82813,1.46875 l -1.64062,-0.234375 q 0.23437,-1.046875 0.73437,-1.6875 0.51563,-0.640625 1.46875,-0.984375 0.96875,-0.359375 2.25,-0.359375 1.26563,0 2.04688,0.296875 0.78125,0.296875 1.15625,0.75 0.375,0.453125 0.51562,1.140625 0.0937,0.421875 0.0937,1.53125 l 0,2.234375 q 0,2.328125 0.0937,2.953125 0.10938,0.609375 0.4375,1.171875 l -1.75,0 q -0.26552,-0.515625 -0.32802,-1.21875 z m -0.14063,-3.71875 q -0.90625,0.359375 -2.73437,0.625 -1.03125,0.140625 -1.45313,0.328125 -0.42187,0.1875 -0.65625,0.546875 -0.23437,0.359375 -0.23437,0.796875 0,0.671875 0.5,1.125 0.51562,0.4375 1.48437,0.4375 0.96875,0 1.71875,-0.421875 0.75,-0.4375 1.10938,-1.15625 0.26562,-0.578125 0.26562,-1.671875 l 0,-0.609375 z m 10.51633,1.328125 1.64062,0.21875 q -0.26562,1.6875 -1.375,2.65625 -1.10937,0.953125 -2.73437,0.953125 -2.01563,0 -3.25,-1.3125 -1.21875,-1.328125 -1.21875,-3.796875 0,-1.59375 0.51562,-2.78125 0.53125,-1.203125 1.60938,-1.796875 1.09375,-0.609375 2.35937,-0.609375 1.60938,0 2.625,0.8125 1.01563,0.8125 1.3125,2.3125 l -1.625,0.25 q -0.23437,-1 -0.82812,-1.5 -0.59375,-0.5 -1.42188,-0.5 -1.26562,0 -2.0625,0.90625 -0.78125,0.90625 -0.78125,2.859375 0,1.984375 0.76563,2.890625 0.76562,0.890625 1.98437,0.890625 0.98438,0 1.64063,-0.59375 0.65625,-0.609375 0.84375,-1.859375 z m 9.64062,0.4375 1.71875,0.21875 q -0.40625,1.5 -1.51562,2.34375 -1.09375,0.828125 -2.8125,0.828125 -2.15625,0 -3.42188,-1.328125 -1.26562,-1.328125 -1.26562,-3.734375 0,-2.484375 1.26562,-3.859375 1.28125,-1.375 3.32813,-1.375 1.98437,0 3.23437,1.34375 1.25,1.34375 1.25,3.796875 0,0.140625 -0.0156,0.4375 l -7.34375,0 q 0.0937,1.625 0.92187,2.484375 0.82813,0.859375 2.0625,0.859375 0.90625,0 1.54688,-0.46875 0.65625,-0.484375 1.04687,-1.546875 z m -5.48437,-2.703125 5.5,0 q -0.10938,-1.234375 -0.625,-1.859375 -0.79688,-0.96875 -2.07813,-0.96875 -1.14062,0 -1.9375,0.78125 -0.78125,0.765625 -0.85937,2.046875 z m 14.29339,5.875 0,-9.859375 1.5,0 0,1.40625 q 1.09375,-1.625 3.14063,-1.625 0.89062,0 1.64062,0.328125 0.75,0.3125 1.10938,0.84375 0.375,0.515625 0.53125,1.21875 0.0937,0.46875 0.0937,1.625 l 0,6.0625 -1.67188,0 0,-6 q 0,-1.015625 -0.20312,-1.515625 -0.1875,-0.515625 -0.6875,-0.8125 -0.5,-0.296875 -1.17188,-0.296875 -1.0625,0 -1.84375,0.671875 -0.76562,0.671875 -0.76562,2.578125 l 0,5.375 -1.67188,0 z m 9.75074,-4.921875 q 0,-2.734375 1.53125,-4.0625 1.26562,-1.09375 3.09375,-1.09375 2.03125,0 3.3125,1.34375 1.29687,1.328125 1.29687,3.671875 0,1.90625 -0.57812,3 -0.5625,1.078125 -1.65625,1.6875 -1.07813,0.59375 -2.375,0.59375 -2.0625,0 -3.34375,-1.328125 -1.28125,-1.328125 -1.28125,-3.8125 z m 1.71875,0 q 0,1.890625 0.82812,2.828125 0.82813,0.9375 2.07813,0.9375 1.25,0 2.0625,-0.9375 0.82812,-0.953125 0.82812,-2.890625 0,-1.828125 -0.82812,-2.765625 -0.82813,-0.9375 -2.0625,-0.9375 -1.25,0 -2.07813,0.9375 -0.82812,0.9375 -0.82812,2.828125 z m 9.26632,4.921875 0,-9.859375 1.5,0 0,1.5 q 0.57813,-1.046875 1.0625,-1.375 0.48438,-0.34375 1.07813,-0.34375 0.84375,0 1.71875,0.546875 l -0.57813,1.546875 q -0.60937,-0.359375 -1.23437,-0.359375 -0.54688,0 -0.98438,0.328125 -0.42187,0.328125 -0.60937,0.90625 -0.28125,0.890625 -0.28125,1.953125 l 0,5.15625 -1.67188,0 z m 6.2283,0 0,-9.859375 1.5,0 0,1.390625 q 0.45313,-0.71875 1.21875,-1.15625 0.78125,-0.453125 1.76563,-0.453125 1.09375,0 1.79687,0.453125 0.70313,0.453125 0.98438,1.28125 1.17187,-1.734375 3.04687,-1.734375 1.46875,0 2.25,0.8125 0.79688,0.8125 0.79688,2.5 l 0,6.765625 -1.67188,0 0,-6.203125 q 0,-1 -0.15625,-1.4375 -0.15625,-0.453125 -0.59375,-0.71875 -0.42187,-0.265625 -1,-0.265625 -1.03125,0 -1.71875,0.6875 -0.6875,0.6875 -0.6875,2.21875 l 0,5.71875 -1.67187,0 0,-6.40625 q 0,-1.109375 -0.40625,-1.65625 -0.40625,-0.5625 -1.34375,-0.5625 -0.70313,0 -1.3125,0.375 -0.59375,0.359375 -0.85938,1.078125 -0.26562,0.71875 -0.26562,2.0625 l 0,5.109375 -1.67188,0 z m 21.97831,-1.21875 q -0.9375,0.796875 -1.79688,1.125 -0.85937,0.3125 -1.84375,0.3125 -1.60937,0 -2.48437,-0.78125 -0.875,-0.796875 -0.875,-2.03125 0,-0.734375 0.32812,-1.328125 0.32813,-0.59375 0.85938,-0.953125 0.53125,-0.359375 1.20312,-0.546875 0.5,-0.140625 1.48438,-0.25 2.03125,-0.25 2.98437,-0.578125 0,-0.34375 0,-0.4375 0,-1.015625 -0.46875,-1.4375 -0.64062,-0.5625 -1.90625,-0.5625 -1.17187,0 -1.73437,0.40625 -0.5625,0.40625 -0.82813,1.46875 l -1.64062,-0.234375 q 0.23437,-1.046875 0.73437,-1.6875 0.51563,-0.640625 1.46875,-0.984375 0.96875,-0.359375 2.25,-0.359375 1.26563,0 2.04688,0.296875 0.78125,0.296875 1.15625,0.75 0.375,0.453125 0.51562,1.140625 0.0937,0.421875 0.0937,1.53125 l 0,2.234375 q 0,2.328125 0.0937,2.953125 0.10938,0.609375 0.4375,1.171875 l -1.75,0 q -0.26562,-0.515625 -0.32812,-1.21875 z m -0.14063,-3.71875 q -0.90625,0.359375 -2.73437,0.625 -1.03125,0.140625 -1.45313,0.328125 -0.42187,0.1875 -0.65625,0.546875 -0.23437,0.359375 -0.23437,0.796875 0,0.671875 0.5,1.125 0.51562,0.4375 1.48437,0.4375 0.96875,0 1.71875,-0.421875 0.75,-0.4375 1.10938,-1.15625 0.26562,-0.578125 0.26562,-1.671875 l 0,-0.609375 z m 4.04761,4.9375 0,-13.59375 1.67187,0 0,13.59375 -1.67187,0 z m 3.50418,-2.9375 1.65625,-0.265625 q 0.14063,1 0.76563,1.53125 0.64062,0.515625 1.78125,0.515625 1.15625,0 1.70312,-0.46875 0.5625,-0.46875 0.5625,-1.09375 0,-0.5625 -0.48437,-0.890625 -0.34375,-0.21875 -1.70313,-0.5625 -1.84375,-0.46875 -2.5625,-0.796875 -0.70312,-0.34375 -1.07812,-0.9375 -0.35938,-0.609375 -0.35938,-1.328125 0,-0.65625 0.29688,-1.21875 0.3125,-0.5625 0.82812,-0.9375 0.39063,-0.28125 1.0625,-0.484375 0.67188,-0.203125 1.4375,-0.203125 1.17188,0 2.04688,0.34375 0.875,0.328125 1.28125,0.90625 0.42187,0.5625 0.57812,1.515625 l -1.625,0.21875 q -0.10937,-0.75 -0.65625,-1.171875 -0.53125,-0.4375 -1.5,-0.4375 -1.15625,0 -1.64062,0.390625 -0.48438,0.375 -0.48438,0.875 0,0.328125 0.20313,0.59375 0.20312,0.265625 0.64062,0.4375 0.25,0.09375 1.46875,0.4375 1.76563,0.46875 2.46875,0.765625 0.70313,0.296875 1.09375,0.875 0.40625,0.578125 0.40625,1.4375 0,0.828125 -0.48437,1.578125 -0.48438,0.734375 -1.40625,1.140625 -0.92188,0.390625 -2.07813,0.390625 -1.92187,0 -2.9375,-0.796875 -1,-0.796875 -1.28125,-2.359375 z"
     id="path3301"
     inkscape:connector-curvature="0"
     style="fill:#000000;fill-rule:nonzero" />
  <path
     d="m 82.866315,174.67738 -5.28125,-13.59375 1.953125,0 3.531255,9.875 q 0.4375,1.1875 0.71875,2.21875 0.3125,-1.10938 0.73437,-2.21875 l 3.67188,-9.875 1.84375,0 -5.32813,13.59375 -1.84375,0 z m 15.0842,-3.17188 1.71875,0.21875 q -0.40625,1.5 -1.51563,2.34375 -1.09375,0.82813 -2.8125,0.82813 -2.15625,0 -3.42187,-1.32813 -1.26563,-1.32812 -1.26563,-3.73437 0,-2.48438 1.26563,-3.85938 1.28125,-1.375 3.32812,-1.375 1.98438,0 3.23438,1.34375 1.25,1.34375 1.25,3.79688 0,0.14062 -0.0156,0.4375 l -7.34375,0 q 0.0937,1.625 0.92188,2.48437 0.82812,0.85938 2.0625,0.85938 0.90625,0 1.54687,-0.46875 0.65625,-0.48438 1.04688,-1.54688 z m -5.48438,-2.70312 5.5,0 q -0.10937,-1.23438 -0.625,-1.85938 -0.79687,-0.96875 -2.07812,-0.96875 -1.14063,0 -1.9375,0.78125 -0.78125,0.76563 -0.85938,2.04688 z m 9.094465,5.875 0,-9.85938 1.5,0 0,1.5 q 0.57813,-1.04687 1.0625,-1.375 0.48438,-0.34375 1.07813,-0.34375 0.84375,0 1.71875,0.54688 l -0.57813,1.54687 q -0.60937,-0.35937 -1.23437,-0.35937 -0.54688,0 -0.98438,0.32812 -0.42187,0.32813 -0.60937,0.90625 -0.28125,0.89063 -0.28125,1.95313 l 0,5.15625 -1.67188,0 z m 9.88455,-1.5 0.23438,1.48437 q -0.70313,0.14063 -1.26563,0.14063 -0.90625,0 -1.40625,-0.28125 -0.5,-0.29688 -0.70312,-0.75 -0.20313,-0.46875 -0.20313,-1.98438 l 0,-5.65625 -1.23437,0 0,-1.3125 1.23437,0 0,-2.4375 1.65625,-1 0,3.4375 1.6875,0 0,1.3125 -1.6875,0 0,5.75 q 0,0.71875 0.0781,0.92188 0.0937,0.20312 0.29687,0.32812 0.20313,0.125 0.57813,0.125 0.26562,0 0.73437,-0.0781 z m 8.27706,-1.67188 1.71875,0.21875 q -0.40625,1.5 -1.51563,2.34375 -1.09375,0.82813 -2.8125,0.82813 -2.15625,0 -3.42187,-1.32813 -1.26563,-1.32812 -1.26563,-3.73437 0,-2.48438 1.26563,-3.85938 1.28125,-1.375 3.32812,-1.375 1.98438,0 3.23438,1.34375 1.25,1.34375 1.25,3.79688 0,0.14062 -0.0156,0.4375 l -7.34375,0 q 0.0937,1.625 0.92188,2.48437 0.82812,0.85938 2.0625,0.85938 0.90625,0 1.54687,-0.46875 0.65625,-0.48438 1.04688,-1.54688 z m -5.48438,-2.70312 5.5,0 q -0.10937,-1.23438 -0.625,-1.85938 -0.79687,-0.96875 -2.07812,-0.96875 -1.14063,0 -1.9375,0.78125 -0.78125,0.76563 -0.85938,2.04688 z m 8.00072,5.875 3.59375,-5.125 -3.32813,-4.73438 2.09375,0 1.51563,2.3125 q 0.42187,0.65625 0.67187,1.10938 0.42188,-0.60938 0.76563,-1.09375 l 1.65625,-2.32813 1.98437,0 -3.39062,4.64063 3.65625,5.21875 -2.04688,0 -2.03125,-3.0625 -0.53125,-0.82813 -2.59375,3.89063 -2.01562,0 z m 22.0583,-1.21875 q -0.9375,0.79687 -1.79687,1.125 -0.85938,0.3125 -1.84375,0.3125 -1.60938,0 -2.48438,-0.78125 -0.875,-0.79688 -0.875,-2.03125 0,-0.73438 0.32813,-1.32813 0.32812,-0.59375 0.85937,-0.95312 0.53125,-0.35938 1.20313,-0.54688 0.5,-0.14062 1.48437,-0.25 2.03125,-0.25 2.98438,-0.57812 0,-0.34375 0,-0.4375 0,-1.01563 -0.46875,-1.4375 -0.64063,-0.5625 -1.90625,-0.5625 -1.17188,0 -1.73438,0.40625 -0.5625,0.40625 -0.82812,1.46875 l -1.64063,-0.23438 q 0.23438,-1.04687 0.73438,-1.6875 0.51562,-0.64062 1.46875,-0.98437 0.96875,-0.35938 2.25,-0.35938 1.26562,0 2.04687,0.29688 0.78125,0.29687 1.15625,0.75 0.375,0.45312 0.51563,1.14062 0.0937,0.42188 0.0937,1.53125 l 0,2.23438 q 0,2.32812 0.0937,2.95312 0.10937,0.60938 0.4375,1.17188 l -1.75,0 q -0.26563,-0.51563 -0.32813,-1.21875 z m -0.14062,-3.71875 q -0.90625,0.35937 -2.73438,0.625 -1.03125,0.14062 -1.45312,0.32812 -0.42188,0.1875 -0.65625,0.54688 -0.23438,0.35937 -0.23438,0.79687 0,0.67188 0.5,1.125 0.51563,0.4375 1.48438,0.4375 0.96875,0 1.71875,-0.42187 0.75,-0.4375 1.10937,-1.15625 0.26563,-0.57813 0.26563,-1.67188 l 0,-0.60937 z m 7.73509,3.4375 0.23437,1.48437 q -0.70312,0.14063 -1.26562,0.14063 -0.90625,0 -1.40625,-0.28125 -0.5,-0.29688 -0.70313,-0.75 -0.20312,-0.46875 -0.20312,-1.98438 l 0,-5.65625 -1.23438,0 0,-1.3125 1.23438,0 0,-2.4375 1.65625,-1 0,3.4375 1.6875,0 0,1.3125 -1.6875,0 0,5.75 q 0,0.71875 0.0781,0.92188 0.0937,0.20312 0.29688,0.32812 0.20312,0.125 0.57812,0.125 0.26563,0 0.73438,-0.0781 z m 5.1833,0 0.23438,1.48437 q -0.70313,0.14063 -1.26563,0.14063 -0.90625,0 -1.40625,-0.28125 -0.5,-0.29688 -0.70312,-0.75 -0.20313,-0.46875 -0.20313,-1.98438 l 0,-5.65625 -1.23437,0 0,-1.3125 1.23437,0 0,-2.4375 1.65625,-1 0,3.4375 1.6875,0 0,1.3125 -1.6875,0 0,5.75 q 0,0.71875 0.0781,0.92188 0.0937,0.20312 0.29687,0.32812 0.20313,0.125 0.57813,0.125 0.26562,0 0.73437,-0.0781 z m 1.51143,1.5 0,-9.85938 1.5,0 0,1.5 q 0.57813,-1.04687 1.0625,-1.375 0.48438,-0.34375 1.07813,-0.34375 0.84375,0 1.71875,0.54688 l -0.57813,1.54687 q -0.60937,-0.35937 -1.23437,-0.35937 -0.54688,0 -0.98438,0.32812 -0.42187,0.32813 -0.60937,0.90625 -0.28125,0.89063 -0.28125,1.95313 l 0,5.15625 -1.67188,0 z m 6.24393,-11.6875 0,-1.90625 1.67187,0 0,1.90625 -1.67187,0 z m 0,11.6875 0,-9.85938 1.67187,0 0,9.85938 -1.67187,0 z m 5.67607,0 -1.54688,0 0,-13.59375 1.65625,0 0,4.84375 q 1.0625,-1.32813 2.70313,-1.32813 0.90625,0 1.71875,0.375 0.8125,0.35938 1.32812,1.03125 0.53125,0.65625 0.82813,1.59375 0.29687,0.9375 0.29687,2 0,2.53125 -1.25,3.92188 -1.25,1.375 -3,1.375 -1.75,0 -2.73437,-1.45313 l 0,1.23438 z m -0.0156,-5 q 0,1.76562 0.46875,2.5625 0.79688,1.28125 2.14063,1.28125 1.09375,0 1.89062,-0.9375 0.79688,-0.95313 0.79688,-2.84375 0,-1.92188 -0.76563,-2.84375 -0.76562,-0.92188 -1.84375,-0.92188 -1.09375,0 -1.89062,0.95313 -0.79688,0.95312 -0.79688,2.75 z m 15.2976,5 0,-1.45313 q -1.14063,1.67188 -3.125,1.67188 -0.85938,0 -1.625,-0.32813 -0.75,-0.34375 -1.125,-0.84375 -0.35938,-0.5 -0.51563,-1.23437 -0.0937,-0.5 -0.0937,-1.5625 l 0,-6.10938 1.67188,0 0,5.46875 q 0,1.3125 0.0937,1.76563 0.15625,0.65625 0.67187,1.03125 0.51563,0.375 1.26563,0.375 0.75,0 1.40625,-0.375 0.65625,-0.39063 0.92187,-1.04688 0.28125,-0.67187 0.28125,-1.9375 l 0,-5.28125 1.67188,0 0,9.85938 -1.5,0 z m 7.57882,-1.5 0.23438,1.48437 q -0.70313,0.14063 -1.26563,0.14063 -0.90625,0 -1.40625,-0.28125 -0.5,-0.29688 -0.70312,-0.75 -0.20313,-0.46875 -0.20313,-1.98438 l 0,-5.65625 -1.23437,0 0,-1.3125 1.23437,0 0,-2.4375 1.65625,-1 0,3.4375 1.6875,0 0,1.3125 -1.6875,0 0,5.75 q 0,0.71875 0.0781,0.92188 0.0937,0.20312 0.29687,0.32812 0.20313,0.125 0.57813,0.125 0.26562,0 0.73437,-0.0781 z m 8.27707,-1.67188 1.71875,0.21875 q -0.40625,1.5 -1.51562,2.34375 -1.09375,0.82813 -2.8125,0.82813 -2.15625,0 -3.42188,-1.32813 -1.26562,-1.32812 -1.26562,-3.73437 0,-2.48438 1.26562,-3.85938 1.28125,-1.375 3.32813,-1.375 1.98437,0 3.23437,1.34375 1.25,1.34375 1.25,3.79688 0,0.14062 -0.0156,0.4375 l -7.34375,0 q 0.0937,1.625 0.92187,2.48437 0.82813,0.85938 2.0625,0.85938 0.90625,0 1.54688,-0.46875 0.65625,-0.48438 1.04687,-1.54688 z m -5.48437,-2.70312 5.5,0 q -0.10938,-1.23438 -0.625,-1.85938 -0.79688,-0.96875 -2.07813,-0.96875 -1.14062,0 -1.9375,0.78125 -0.78125,0.76563 -0.85937,2.04688 z m 20.12152,5.875 -1.67188,0 0,-10.64063 q -0.59375,0.57813 -1.57812,1.15625 -0.98438,0.5625 -1.76563,0.85938 l 0,-1.625 q 1.40625,-0.65625 2.45313,-1.59375 1.04687,-0.9375 1.48437,-1.8125 l 1.07813,0 0,13.65625 z"
     id="path3303"
     inkscape:connector-curvature="0"
     style="fill:#000000;fill-rule:nonzero" />
  <path
     d="m 349.51798,238.47697 -5.28125,-13.59375 1.95312,0 3.53125,9.875 q 0.4375,1.1875 0.71875,2.21875 0.3125,-1.10938 0.73438,-2.21875 l 3.67187,-9.875 1.84375,0 -5.32812,13.59375 -1.84375,0 z m 15.0842,-3.17188 1.71875,0.21875 q -0.40625,1.5 -1.51563,2.34375 -1.09375,0.82813 -2.8125,0.82813 -2.15625,0 -3.42187,-1.32813 -1.26563,-1.32812 -1.26563,-3.73437 0,-2.48438 1.26563,-3.85938 1.28125,-1.375 3.32812,-1.375 1.98438,0 3.23438,1.34375 1.25,1.34375 1.25,3.79688 0,0.14062 -0.0156,0.4375 l -7.34375,0 q 0.0937,1.625 0.92188,2.48437 0.82812,0.85938 2.0625,0.85938 0.90625,0 1.54687,-0.46875 0.65625,-0.48438 1.04688,-1.54688 z m -5.48438,-2.70312 5.5,0 q -0.10937,-1.23438 -0.625,-1.85938 -0.79687,-0.96875 -2.07812,-0.96875 -1.14063,0 -1.9375,0.78125 -0.78125,0.76563 -0.85938,2.04688 z m 9.09448,5.875 0,-9.85938 1.5,0 0,1.5 q 0.57813,-1.04687 1.0625,-1.375 0.48438,-0.34375 1.07813,-0.34375 0.84375,0 1.71875,0.54688 l -0.57813,1.54687 q -0.60937,-0.35937 -1.23437,-0.35937 -0.54688,0 -0.98438,0.32812 -0.42187,0.32813 -0.60937,0.90625 -0.28125,0.89063 -0.28125,1.95313 l 0,5.15625 -1.67188,0 z m 9.88456,-1.5 0.23437,1.48437 q -0.70312,0.14063 -1.26562,0.14063 -0.90625,0 -1.40625,-0.28125 -0.5,-0.29688 -0.70313,-0.75 -0.20312,-0.46875 -0.20312,-1.98438 l 0,-5.65625 -1.23438,0 0,-1.3125 1.23438,0 0,-2.4375 1.65625,-1 0,3.4375 1.6875,0 0,1.3125 -1.6875,0 0,5.75 q 0,0.71875 0.0781,0.92188 0.0937,0.20312 0.29688,0.32812 0.20312,0.125 0.57812,0.125 0.26563,0 0.73438,-0.0781 z m 8.27704,-1.67188 1.71875,0.21875 q -0.40625,1.5 -1.51563,2.34375 -1.09375,0.82813 -2.8125,0.82813 -2.15625,0 -3.42187,-1.32813 -1.26563,-1.32812 -1.26563,-3.73437 0,-2.48438 1.26563,-3.85938 1.28125,-1.375 3.32812,-1.375 1.98438,0 3.23438,1.34375 1.25,1.34375 1.25,3.79688 0,0.14062 -0.0156,0.4375 l -7.34375,0 q 0.0937,1.625 0.92188,2.48437 0.82812,0.85938 2.0625,0.85938 0.90625,0 1.54687,-0.46875 0.65625,-0.48438 1.04688,-1.54688 z m -5.48438,-2.70312 5.5,0 q -0.10937,-1.23438 -0.625,-1.85938 -0.79687,-0.96875 -2.07812,-0.96875 -1.14063,0 -1.9375,0.78125 -0.78125,0.76563 -0.85938,2.04688 z m 8.00073,5.875 3.59375,-5.125 -3.32812,-4.73438 2.09375,0 1.51562,2.3125 q 0.42188,0.65625 0.67188,1.10938 0.42187,-0.60938 0.76562,-1.09375 l 1.65625,-2.32813 1.98438,0 -3.39063,4.64063 3.65625,5.21875 -2.04687,0 -2.03125,-3.0625 -0.53125,-0.82813 -2.59375,3.89063 -2.01563,0 z m 14.94892,-2.9375 1.65625,-0.26563 q 0.14062,1 0.76562,1.53125 0.64063,0.51563 1.78125,0.51563 1.15625,0 1.70313,-0.46875 0.5625,-0.46875 0.5625,-1.09375 0,-0.5625 -0.48438,-0.89063 -0.34375,-0.21875 -1.70312,-0.5625 -1.84375,-0.46875 -2.5625,-0.79687 -0.70313,-0.34375 -1.07813,-0.9375 -0.35937,-0.60938 -0.35937,-1.32813 0,-0.65625 0.29687,-1.21875 0.3125,-0.5625 0.82813,-0.9375 0.39062,-0.28125 1.0625,-0.48437 0.67187,-0.20313 1.4375,-0.20313 1.17187,0 2.04687,0.34375 0.875,0.32813 1.28125,0.90625 0.42188,0.5625 0.57813,1.51563 l -1.625,0.21875 q -0.10938,-0.75 -0.65625,-1.17188 -0.53125,-0.4375 -1.5,-0.4375 -1.15625,0 -1.64063,0.39063 -0.48437,0.375 -0.48437,0.875 0,0.32812 0.20312,0.59375 0.20313,0.26562 0.64063,0.4375 0.25,0.0937 1.46875,0.4375 1.76562,0.46875 2.46875,0.76562 0.70312,0.29688 1.09375,0.875 0.40625,0.57813 0.40625,1.4375 0,0.82813 -0.48438,1.57813 -0.48437,0.73437 -1.40625,1.14062 -0.92187,0.39063 -2.07812,0.39063 -1.92188,0 -2.9375,-0.79688 -1,-0.79687 -1.28125,-2.35937 z m 10,2.9375 0,-13.59375 1.67187,0 0,4.875 q 1.17188,-1.35938 2.95313,-1.35938 1.09375,0 1.89062,0.4375 0.8125,0.42188 1.15625,1.1875 0.35938,0.76563 0.35938,2.20313 l 0,6.25 -1.67188,0 0,-6.25 q 0,-1.25 -0.54687,-1.8125 -0.54688,-0.57813 -1.53125,-0.57813 -0.75,0 -1.40625,0.39063 -0.64063,0.375 -0.92188,1.04687 -0.28125,0.65625 -0.28125,1.8125 l 0,5.39063 -1.67187,0 z m 16.81323,-1.21875 q -0.9375,0.79687 -1.79688,1.125 -0.85937,0.3125 -1.84375,0.3125 -1.60937,0 -2.48437,-0.78125 -0.875,-0.79688 -0.875,-2.03125 0,-0.73438 0.32812,-1.32813 0.32813,-0.59375 0.85938,-0.95312 0.53125,-0.35938 1.20312,-0.54688 0.5,-0.14062 1.48438,-0.25 2.03125,-0.25 2.98437,-0.57812 0,-0.34375 0,-0.4375 0,-1.01563 -0.46875,-1.4375 -0.64062,-0.5625 -1.90625,-0.5625 -1.17187,0 -1.73437,0.40625 -0.5625,0.40625 -0.82813,1.46875 l -1.64062,-0.23438 q 0.23437,-1.04687 0.73437,-1.6875 0.51563,-0.64062 1.46875,-0.98437 0.96875,-0.35938 2.25,-0.35938 1.26563,0 2.04688,0.29688 0.78125,0.29687 1.15625,0.75 0.375,0.45312 0.51562,1.14062 0.0937,0.42188 0.0937,1.53125 l 0,2.23438 q 0,2.32812 0.0937,2.95312 0.10938,0.60938 0.4375,1.17188 l -1.75,0 q -0.26562,-0.51563 -0.32812,-1.21875 z m -0.14063,-3.71875 q -0.90625,0.35937 -2.73437,0.625 -1.03125,0.14062 -1.45313,0.32812 -0.42187,0.1875 -0.65625,0.54688 -0.23437,0.35937 -0.23437,0.79687 0,0.67188 0.5,1.125 0.51562,0.4375 1.48437,0.4375 0.96875,0 1.71875,-0.42187 0.75,-0.4375 1.10938,-1.15625 0.26562,-0.57813 0.26562,-1.67188 l 0,-0.60937 z m 10.46946,4.9375 0,-1.25 q -0.9375,1.46875 -2.75,1.46875 -1.17188,0 -2.17188,-0.64063 -0.98437,-0.65625 -1.53125,-1.8125 -0.53125,-1.17187 -0.53125,-2.6875 0,-1.46875 0.48438,-2.67187 0.5,-1.20313 1.46875,-1.84375 0.98437,-0.64063 2.20312,-0.64063 0.89063,0 1.57813,0.375 0.70312,0.375 1.14062,0.98438 l 0,-4.875 1.65625,0 0,13.59375 -1.54687,0 z m -5.28125,-4.92188 q 0,1.89063 0.79687,2.82813 0.8125,0.9375 1.89063,0.9375 1.09375,0 1.85937,-0.89063 0.76563,-0.89062 0.76563,-2.73437 0,-2.01563 -0.78125,-2.95313 -0.78125,-0.95312 -1.92188,-0.95312 -1.10937,0 -1.85937,0.90625 -0.75,0.90625 -0.75,2.85937 z m 16.01635,1.75 1.71875,0.21875 q -0.40625,1.5 -1.51562,2.34375 -1.09375,0.82813 -2.8125,0.82813 -2.15625,0 -3.42188,-1.32813 -1.26562,-1.32812 -1.26562,-3.73437 0,-2.48438 1.26562,-3.85938 1.28125,-1.375 3.32813,-1.375 1.98437,0 3.23437,1.34375 1.25,1.34375 1.25,3.79688 0,0.14062 -0.0156,0.4375 l -7.34375,0 q 0.0937,1.625 0.92187,2.48437 0.82813,0.85938 2.0625,0.85938 0.90625,0 1.54688,-0.46875 0.65625,-0.48438 1.04687,-1.54688 z m -5.48437,-2.70312 5.5,0 q -0.10938,-1.23438 -0.625,-1.85938 -0.79688,-0.96875 -2.07813,-0.96875 -1.14062,0 -1.9375,0.78125 -0.78125,0.76563 -0.85937,2.04688 z m 9.09445,5.875 0,-9.85938 1.5,0 0,1.5 q 0.57812,-1.04687 1.0625,-1.375 0.48437,-0.34375 1.07812,-0.34375 0.84375,0 1.71875,0.54688 l -0.57812,1.54687 q -0.60938,-0.35937 -1.23438,-0.35937 -0.54687,0 -0.98437,0.32812 -0.42188,0.32813 -0.60938,0.90625 -0.28125,0.89063 -0.28125,1.95313 l 0,5.15625 -1.67187,0 z"
     id="path3305"
     inkscape:connector-curvature="0"
     style="fill:#000000;fill-rule:nonzero" />
  <path
     d="m 147.84667,24.134243 0,64"
     id="path3307"
     inkscape:connector-curvature="0"
     style="stroke:#000000;stroke-width:2;stroke-linecap:butt;stroke-linejoin:round" />
  <path
     d="m 299.84668,24.134243 0,64"
     id="path3309"
     inkscape:connector-curvature="0"
     style="stroke:#000000;stroke-width:2;stroke-linecap:butt;stroke-linejoin:round" />
  <path
     d="m 60.130175,208.16882 167.999995,0 0,47.99998 -167.999995,0 z"
     id="path3311"
     inkscape:connector-curvature="0"
     style="fill:#cfe2f3;fill-rule:nonzero;stroke:#000000;stroke-width:2;stroke-linecap:butt;stroke-linejoin:round" />
  <path
     d="m 83.212035,238.36622 -5.28125,-13.59375 1.953125,0 3.531255,9.875 q 0.4375,1.1875 0.71875,2.21875 0.3125,-1.10938 0.73437,-2.21875 l 3.67188,-9.875 1.84375,0 -5.32813,13.59375 -1.84375,0 z m 15.0842,-3.17188 1.718745,0.21875 q -0.406245,1.5 -1.515625,2.34375 -1.09375,0.82813 -2.8125,0.82813 -2.15625,0 -3.42187,-1.32813 -1.26563,-1.32812 -1.26563,-3.73437 0,-2.48438 1.26563,-3.85938 1.28125,-1.375 3.32812,-1.375 1.98438,0 3.23438,1.34375 1.249995,1.34375 1.249995,3.79688 0,0.14062 -0.0156,0.4375 l -7.343745,0 q 0.0937,1.625 0.92188,2.48437 0.82812,0.85938 2.0625,0.85938 0.90625,0 1.54687,-0.46875 0.65625,-0.48438 1.04688,-1.54688 z m -5.48438,-2.70312 5.5,0 q -0.10937,-1.23438 -0.625,-1.85938 -0.79687,-0.96875 -2.07812,-0.96875 -1.14063,0 -1.9375,0.78125 -0.78125,0.76563 -0.85938,2.04688 z m 9.094465,5.875 0,-9.85938 1.5,0 0,1.5 q 0.57813,-1.04687 1.0625,-1.375 0.48438,-0.34375 1.07813,-0.34375 0.84375,0 1.71875,0.54688 l -0.57813,1.54687 q -0.60937,-0.35937 -1.23437,-0.35937 -0.54688,0 -0.98438,0.32812 -0.42187,0.32813 -0.60937,0.90625 -0.28125,0.89063 -0.28125,1.95313 l 0,5.15625 -1.67188,0 z m 9.88454,-1.5 0.23438,1.48437 q -0.70313,0.14063 -1.26563,0.14063 -0.90625,0 -1.40625,-0.28125 -0.5,-0.29688 -0.70312,-0.75 -0.20313,-0.46875 -0.20313,-1.98438 l 0,-5.65625 -1.23436,0 0,-1.3125 1.23436,0 0,-2.4375 1.65625,-1 0,3.4375 1.6875,0 0,1.3125 -1.6875,0 0,5.75 q 0,0.71875 0.0781,0.92188 0.0937,0.20312 0.29687,0.32812 0.20313,0.125 0.57813,0.125 0.26562,0 0.73437,-0.0781 z m 8.27706,-1.67188 1.71875,0.21875 q -0.40625,1.5 -1.51563,2.34375 -1.09375,0.82813 -2.8125,0.82813 -2.15625,0 -3.42187,-1.32813 -1.26563,-1.32812 -1.26563,-3.73437 0,-2.48438 1.26563,-3.85938 1.28125,-1.375 3.32812,-1.375 1.98438,0 3.23438,1.34375 1.25,1.34375 1.25,3.79688 0,0.14062 -0.0156,0.4375 l -7.34375,0 q 0.0937,1.625 0.92188,2.48437 0.82812,0.85938 2.0625,0.85938 0.90625,0 1.54687,-0.46875 0.65625,-0.48438 1.04688,-1.54688 z m -5.48438,-2.70312 5.5,0 q -0.10937,-1.23438 -0.625,-1.85938 -0.79687,-0.96875 -2.07812,-0.96875 -1.14063,0 -1.9375,0.78125 -0.78125,0.76563 -0.85938,2.04688 z m 8.00072,5.875 3.59375,-5.125 -3.32813,-4.73438 2.09375,0 1.51563,2.3125 q 0.42187,0.65625 0.67187,1.10938 0.42188,-0.60938 0.76563,-1.09375 l 1.65625,-2.32813 1.98437,0 -3.39062,4.64063 3.65625,5.21875 -2.04688,0 -2.03125,-3.0625 -0.53125,-0.82813 -2.59375,3.89063 -2.01562,0 z m 22.0583,-1.21875 q -0.9375,0.79687 -1.79687,1.125 -0.85938,0.3125 -1.84375,0.3125 -1.60938,0 -2.48438,-0.78125 -0.875,-0.79688 -0.875,-2.03125 0,-0.73438 0.32813,-1.32813 0.32812,-0.59375 0.85937,-0.95312 0.53125,-0.35938 1.20313,-0.54688 0.5,-0.14062 1.48437,-0.25 2.03125,-0.25 2.98438,-0.57812 0,-0.34375 0,-0.4375 0,-1.01563 -0.46875,-1.4375 -0.64063,-0.5625 -1.90625,-0.5625 -1.17188,0 -1.73438,0.40625 -0.5625,0.40625 -0.82812,1.46875 l -1.64063,-0.23438 q 0.23438,-1.04687 0.73438,-1.6875 0.51562,-0.64062 1.46875,-0.98437 0.96875,-0.35938 2.25,-0.35938 1.26562,0 2.04687,0.29688 0.78125,0.29687 1.15625,0.75 0.375,0.45312 0.51563,1.14062 0.0937,0.42188 0.0937,1.53125 l 0,2.23438 q 0,2.32812 0.0937,2.95312 0.10937,0.60938 0.4375,1.17188 l -1.75,0 q -0.26563,-0.51563 -0.32813,-1.21875 z m -0.14062,-3.71875 q -0.90625,0.35937 -2.73438,0.625 -1.03125,0.14062 -1.45312,0.32812 -0.42188,0.1875 -0.65625,0.54688 -0.23438,0.35937 -0.23438,0.79687 0,0.67188 0.5,1.125 0.51563,0.4375 1.48438,0.4375 0.96875,0 1.71875,-0.42187 0.75,-0.4375 1.10937,-1.15625 0.26563,-0.57813 0.26563,-1.67188 l 0,-0.60937 z m 7.73509,3.4375 0.23438,1.48437 q -0.70313,0.14063 -1.26563,0.14063 -0.90625,0 -1.40625,-0.28125 -0.5,-0.29688 -0.70312,-0.75 -0.20313,-0.46875 -0.20313,-1.98438 l 0,-5.65625 -1.23437,0 0,-1.3125 1.23437,0 0,-2.4375 1.65625,-1 0,3.4375 1.6875,0 0,1.3125 -1.6875,0 0,5.75 q 0,0.71875 0.0781,0.92188 0.0937,0.20312 0.29687,0.32812 0.20313,0.125 0.57813,0.125 0.26562,0 0.73437,-0.0781 z m 5.1833,0 0.23438,1.48437 q -0.70313,0.14063 -1.26563,0.14063 -0.90625,0 -1.40625,-0.28125 -0.5,-0.29688 -0.70312,-0.75 -0.20313,-0.46875 -0.20313,-1.98438 l 0,-5.65625 -1.23437,0 0,-1.3125 1.23437,0 0,-2.4375 1.65625,-1 0,3.4375 1.6875,0 0,1.3125 -1.6875,0 0,5.75 q 0,0.71875 0.0781,0.92188 0.0937,0.20312 0.29687,0.32812 0.20313,0.125 0.57813,0.125 0.26562,0 0.73437,-0.0781 z m 1.51143,1.5 0,-9.85938 1.5,0 0,1.5 q 0.57813,-1.04687 1.0625,-1.375 0.48438,-0.34375 1.07813,-0.34375 0.84375,0 1.71875,0.54688 l -0.57813,1.54687 q -0.60937,-0.35937 -1.23437,-0.35937 -0.54688,0 -0.98438,0.32812 -0.42187,0.32813 -0.60937,0.90625 -0.28125,0.89063 -0.28125,1.95313 l 0,5.15625 -1.67188,0 z m 6.24393,-11.6875 0,-1.90625 1.67188,0 0,1.90625 -1.67188,0 z m 0,11.6875 0,-9.85938 1.67188,0 0,9.85938 -1.67188,0 z m 5.67607,0 -1.54687,0 0,-13.59375 1.65625,0 0,4.84375 q 1.0625,-1.32813 2.70312,-1.32813 0.90625,0 1.71875,0.375 0.8125,0.35938 1.32813,1.03125 0.53125,0.65625 0.82812,1.59375 0.29688,0.9375 0.29688,2 0,2.53125 -1.25,3.92188 -1.25,1.375 -3,1.375 -1.75,0 -2.73438,-1.45313 l 0,1.23438 z m -0.0156,-5 q 0,1.76562 0.46875,2.5625 0.79687,1.28125 2.14062,1.28125 1.09375,0 1.89063,-0.9375 0.79687,-0.95313 0.79687,-2.84375 0,-1.92188 -0.76562,-2.84375 -0.76563,-0.92188 -1.84375,-0.92188 -1.09375,0 -1.89063,0.95313 -0.79687,0.95312 -0.79687,2.75 z m 15.29759,5 0,-1.45313 q -1.14063,1.67188 -3.125,1.67188 -0.85938,0 -1.625,-0.32813 -0.75,-0.34375 -1.125,-0.84375 -0.35938,-0.5 -0.51563,-1.23437 -0.0937,-0.5 -0.0937,-1.5625 l 0,-6.10938 1.67188,0 0,5.46875 q 0,1.3125 0.0937,1.76563 0.15625,0.65625 0.67187,1.03125 0.51563,0.375 1.26563,0.375 0.75,0 1.40625,-0.375 0.65625,-0.39063 0.92187,-1.04688 0.28125,-0.67187 0.28125,-1.9375 l 0,-5.28125 1.67188,0 0,9.85938 -1.5,0 z m 7.57884,-1.5 0.23438,1.48437 q -0.70313,0.14063 -1.26563,0.14063 -0.90625,0 -1.40625,-0.28125 -0.5,-0.29688 -0.70312,-0.75 -0.20313,-0.46875 -0.20313,-1.98438 l 0,-5.65625 -1.23437,0 0,-1.3125 1.23437,0 0,-2.4375 1.65625,-1 0,3.4375 1.6875,0 0,1.3125 -1.6875,0 0,5.75 q 0,0.71875 0.0781,0.92188 0.0937,0.20312 0.29687,0.32812 0.20313,0.125 0.57813,0.125 0.26562,0 0.73437,-0.0781 z m 8.27707,-1.67188 1.71875,0.21875 q -0.40625,1.5 -1.51563,2.34375 -1.09375,0.82813 -2.8125,0.82813 -2.15625,0 -3.42187,-1.32813 -1.26563,-1.32812 -1.26563,-3.73437 0,-2.48438 1.26563,-3.85938 1.28125,-1.375 3.32812,-1.375 1.98438,0 3.23438,1.34375 1.25,1.34375 1.25,3.79688 0,0.14062 -0.0156,0.4375 l -7.34375,0 q 0.0937,1.625 0.92188,2.48437 0.82812,0.85938 2.0625,0.85938 0.90625,0 1.54687,-0.46875 0.65625,-0.48438 1.04688,-1.54688 z m -5.48438,-2.70312 5.5,0 q -0.10937,-1.23438 -0.625,-1.85938 -0.79687,-0.96875 -2.07812,-0.96875 -1.14063,0 -1.9375,0.78125 -0.78125,0.76563 -0.85938,2.04688 z m 22.6059,4.26562 0,1.60938 -8.98437,0 q -0.0156,-0.60938 0.1875,-1.15625 0.34375,-0.92188 1.09375,-1.8125 0.76562,-0.89063 2.1875,-2.0625 2.21875,-1.8125 3,-2.875 0.78125,-1.0625 0.78125,-2.01563 0,-0.98437 -0.71875,-1.67187 -0.70313,-0.6875 -1.84375,-0.6875 -1.20313,0 -1.9375,0.73437 -0.71875,0.71875 -0.71875,2 l -1.71875,-0.17187 q 0.17187,-1.92188 1.32812,-2.92188 1.15625,-1.01562 3.09375,-1.01562 1.95313,0 3.09375,1.09375 1.14063,1.07812 1.14063,2.6875 0,0.8125 -0.34375,1.60937 -0.32813,0.78125 -1.10938,1.65625 -0.76562,0.85938 -2.5625,2.39063 -1.5,1.26562 -1.9375,1.71875 -0.42187,0.4375 -0.70312,0.89062 l 6.67187,0 z"
     id="path3313"
     inkscape:connector-curvature="0"
     style="fill:#000000;fill-rule:nonzero" />
  <path
     d="m 59.646165,272.79801 167.999995,0 0,48 -167.999995,0 z"
     id="path3315"
     inkscape:connector-curvature="0"
     style="fill:#cfe2f3;fill-rule:nonzero;stroke:#000000;stroke-width:2;stroke-linecap:butt;stroke-linejoin:round" />
  <path
     d="m 82.728025,302.99543 -5.28125,-13.59375 1.953125,0 3.531245,9.875 q 0.4375,1.1875 0.71875,2.21875 0.3125,-1.10938 0.73438,-2.21875 l 3.67187,-9.875 1.84375,0 -5.32812,13.59375 -1.84375,0 z m 15.0842,-3.17188 1.71875,0.21875 q -0.40625,1.5 -1.51563,2.34375 -1.09375,0.82813 -2.8125,0.82813 -2.15625,0 -3.42187,-1.32813 -1.26563,-1.32812 -1.26563,-3.73437 0,-2.48438 1.26563,-3.85938 1.28125,-1.375 3.32812,-1.375 1.98438,0 3.23438,1.34375 1.25,1.34375 1.25,3.79688 0,0.14062 -0.0156,0.4375 l -7.34375,0 q 0.0937,1.625 0.92188,2.48437 0.82812,0.85938 2.0625,0.85938 0.90625,0 1.54687,-0.46875 0.65625,-0.48438 1.04688,-1.54688 z m -5.48438,-2.70312 5.5,0 q -0.10937,-1.23438 -0.625,-1.85938 -0.79687,-0.96875 -2.07812,-0.96875 -1.14063,0 -1.9375,0.78125 -0.78125,0.76563 -0.85938,2.04688 z m 9.094465,5.875 0,-9.85938 1.5,0 0,1.5 q 0.57812,-1.04687 1.0625,-1.375 0.48437,-0.34375 1.07812,-0.34375 0.84375,0 1.71875,0.54688 l -0.57812,1.54687 q -0.60938,-0.35937 -1.23438,-0.35937 -0.54687,0 -0.98437,0.32812 -0.42188,0.32813 -0.60938,0.90625 -0.28125,0.89063 -0.28125,1.95313 l 0,5.15625 -1.67187,0 z m 9.88455,-1.5 0.23438,1.48437 q -0.70313,0.14063 -1.26563,0.14063 -0.90625,0 -1.40625,-0.28125 -0.5,-0.29688 -0.70312,-0.75 -0.20313,-0.46875 -0.20313,-1.98438 l 0,-5.65625 -1.23437,0 0,-1.3125 1.23437,0 0,-2.4375 1.65625,-1 0,3.4375 1.6875,0 0,1.3125 -1.6875,0 0,5.75 q 0,0.71875 0.0781,0.92188 0.0937,0.20312 0.29687,0.32812 0.20313,0.125 0.57813,0.125 0.26562,0 0.73437,-0.0781 z m 8.27706,-1.67188 1.71875,0.21875 q -0.40625,1.5 -1.51563,2.34375 -1.09375,0.82813 -2.8125,0.82813 -2.15625,0 -3.42187,-1.32813 -1.26563,-1.32812 -1.26563,-3.73437 0,-2.48438 1.26563,-3.85938 1.28125,-1.375 3.32812,-1.375 1.98438,0 3.23438,1.34375 1.25,1.34375 1.25,3.79688 0,0.14062 -0.0156,0.4375 l -7.34375,0 q 0.0937,1.625 0.92188,2.48437 0.82812,0.85938 2.0625,0.85938 0.90625,0 1.54687,-0.46875 0.65625,-0.48438 1.04688,-1.54688 z m -5.48438,-2.70312 5.5,0 q -0.10937,-1.23438 -0.625,-1.85938 -0.79687,-0.96875 -2.07812,-0.96875 -1.14063,0 -1.9375,0.78125 -0.78125,0.76563 -0.85938,2.04688 z m 8.00072,5.875 3.59375,-5.125 -3.32813,-4.73438 2.09375,0 1.51563,2.3125 q 0.42187,0.65625 0.67187,1.10938 0.42188,-0.60938 0.76563,-1.09375 l 1.65625,-2.32813 1.98437,0 -3.39062,4.64063 3.65625,5.21875 -2.04688,0 -2.03125,-3.0625 -0.53125,-0.82813 -2.59375,3.89063 -2.01562,0 z m 22.0583,-1.21875 q -0.9375,0.79687 -1.79687,1.125 -0.85938,0.3125 -1.84375,0.3125 -1.60938,0 -2.48438,-0.78125 -0.875,-0.79688 -0.875,-2.03125 0,-0.73438 0.32813,-1.32813 0.32812,-0.59375 0.85937,-0.95312 0.53125,-0.35938 1.20313,-0.54688 0.5,-0.14062 1.48437,-0.25 2.03125,-0.25 2.98438,-0.57812 0,-0.34375 0,-0.4375 0,-1.01563 -0.46875,-1.4375 -0.64063,-0.5625 -1.90625,-0.5625 -1.17188,0 -1.73438,0.40625 -0.5625,0.40625 -0.82812,1.46875 l -1.64063,-0.23438 q 0.23438,-1.04687 0.73438,-1.6875 0.51562,-0.64062 1.46875,-0.98437 0.96875,-0.35938 2.25,-0.35938 1.26562,0 2.04687,0.29688 0.78125,0.29687 1.15625,0.75 0.375,0.45312 0.51563,1.14062 0.0937,0.42188 0.0937,1.53125 l 0,2.23438 q 0,2.32812 0.0937,2.95312 0.10937,0.60938 0.4375,1.17188 l -1.75,0 q -0.26563,-0.51563 -0.32813,-1.21875 z m -0.14062,-3.71875 q -0.90625,0.35937 -2.73438,0.625 -1.03125,0.14062 -1.45312,0.32812 -0.42188,0.1875 -0.65625,0.54688 -0.23438,0.35937 -0.23438,0.79687 0,0.67188 0.5,1.125 0.51563,0.4375 1.48438,0.4375 0.96875,0 1.71875,-0.42187 0.75,-0.4375 1.10937,-1.15625 0.26563,-0.57813 0.26563,-1.67188 l 0,-0.60937 z m 7.73509,3.4375 0.23437,1.48437 q -0.70312,0.14063 -1.26562,0.14063 -0.90625,0 -1.40625,-0.28125 -0.5,-0.29688 -0.70313,-0.75 -0.20312,-0.46875 -0.20312,-1.98438 l 0,-5.65625 -1.23438,0 0,-1.3125 1.23438,0 0,-2.4375 1.65625,-1 0,3.4375 1.6875,0 0,1.3125 -1.6875,0 0,5.75 q 0,0.71875 0.0781,0.92188 0.0937,0.20312 0.29688,0.32812 0.20312,0.125 0.57812,0.125 0.26563,0 0.73438,-0.0781 z m 5.1833,0 0.23438,1.48437 q -0.70313,0.14063 -1.26563,0.14063 -0.90625,0 -1.40625,-0.28125 -0.5,-0.29688 -0.70312,-0.75 -0.20313,-0.46875 -0.20313,-1.98438 l 0,-5.65625 -1.23437,0 0,-1.3125 1.23437,0 0,-2.4375 1.65625,-1 0,3.4375 1.6875,0 0,1.3125 -1.6875,0 0,5.75 q 0,0.71875 0.0781,0.92188 0.0937,0.20312 0.29687,0.32812 0.20313,0.125 0.57813,0.125 0.26562,0 0.73437,-0.0781 z m 1.51143,1.5 0,-9.85938 1.5,0 0,1.5 q 0.57813,-1.04687 1.0625,-1.375 0.48438,-0.34375 1.07813,-0.34375 0.84375,0 1.71875,0.54688 l -0.57813,1.54687 q -0.60937,-0.35937 -1.23437,-0.35937 -0.54688,0 -0.98438,0.32812 -0.42187,0.32813 -0.60937,0.90625 -0.28125,0.89063 -0.28125,1.95313 l 0,5.15625 -1.67188,0 z m 6.24393,-11.6875 0,-1.90625 1.67187,0 0,1.90625 -1.67187,0 z m 0,11.6875 0,-9.85938 1.67187,0 0,9.85938 -1.67187,0 z m 5.67607,0 -1.54688,0 0,-13.59375 1.65625,0 0,4.84375 q 1.0625,-1.32813 2.70313,-1.32813 0.90625,0 1.71875,0.375 0.8125,0.35938 1.32812,1.03125 0.53125,0.65625 0.82813,1.59375 0.29687,0.9375 0.29687,2 0,2.53125 -1.25,3.92188 -1.25,1.375 -3,1.375 -1.75,0 -2.73437,-1.45313 l 0,1.23438 z m -0.0156,-5 q 0,1.76562 0.46875,2.5625 0.79688,1.28125 2.14063,1.28125 1.09375,0 1.89062,-0.9375 0.79688,-0.95313 0.79688,-2.84375 0,-1.92188 -0.76563,-2.84375 -0.76562,-0.92188 -1.84375,-0.92188 -1.09375,0 -1.89062,0.95313 -0.79688,0.95312 -0.79688,2.75 z m 15.2976,5 0,-1.45313 q -1.14063,1.67188 -3.125,1.67188 -0.85938,0 -1.625,-0.32813 -0.75,-0.34375 -1.125,-0.84375 -0.35938,-0.5 -0.51563,-1.23437 -0.0937,-0.5 -0.0937,-1.5625 l 0,-6.10938 1.67188,0 0,5.46875 q 0,1.3125 0.0937,1.76563 0.15625,0.65625 0.67187,1.03125 0.51563,0.375 1.26563,0.375 0.75,0 1.40625,-0.375 0.65625,-0.39063 0.92187,-1.04688 0.28125,-0.67187 0.28125,-1.9375 l 0,-5.28125 1.67188,0 0,9.85938 -1.5,0 z m 7.57884,-1.5 0.23437,1.48437 q -0.70312,0.14063 -1.26562,0.14063 -0.90625,0 -1.40625,-0.28125 -0.5,-0.29688 -0.70313,-0.75 -0.20312,-0.46875 -0.20312,-1.98438 l 0,-5.65625 -1.23438,0 0,-1.3125 1.23438,0 0,-2.4375 1.65625,-1 0,3.4375 1.6875,0 0,1.3125 -1.6875,0 0,5.75 q 0,0.71875 0.0781,0.92188 0.0937,0.20312 0.29688,0.32812 0.20312,0.125 0.57812,0.125 0.26563,0 0.73438,-0.0781 z m 8.27707,-1.67188 1.71875,0.21875 q -0.40625,1.5 -1.51563,2.34375 -1.09375,0.82813 -2.8125,0.82813 -2.15625,0 -3.42187,-1.32813 -1.26563,-1.32812 -1.26563,-3.73437 0,-2.48438 1.26563,-3.85938 1.28125,-1.375 3.32812,-1.375 1.98438,0 3.23438,1.34375 1.25,1.34375 1.25,3.79688 0,0.14062 -0.0156,0.4375 l -7.34375,0 q 0.0937,1.625 0.92188,2.48437 0.82812,0.85938 2.0625,0.85938 0.90625,0 1.54687,-0.46875 0.65625,-0.48438 1.04688,-1.54688 z m -5.48438,-2.70312 5.5,0 q -0.10937,-1.23438 -0.625,-1.85938 -0.79687,-0.96875 -2.07812,-0.96875 -1.14063,0 -1.9375,0.78125 -0.78125,0.76563 -0.85938,2.04688 z m 13.84027,2.28125 1.67188,-0.21875 q 0.28125,1.42187 0.96875,2.04687 0.70312,0.625 1.6875,0.625 1.1875,0 2,-0.8125 0.8125,-0.82812 0.8125,-2.03125 0,-1.14062 -0.76563,-1.89062 -0.75,-0.75 -1.90625,-0.75 -0.46875,0 -1.17187,0.1875 l 0.1875,-1.46875 q 0.15625,0.0156 0.26562,0.0156 1.0625,0 1.90625,-0.54687 0.85938,-0.5625 0.85938,-1.71875 0,-0.92188 -0.625,-1.51563 -0.60938,-0.60937 -1.59375,-0.60937 -0.96875,0 -1.625,0.60937 -0.64063,0.60938 -0.82813,1.84375 l -1.67187,-0.29687 q 0.29687,-1.6875 1.375,-2.60938 1.09375,-0.92187 2.71875,-0.92187 1.10937,0 2.04687,0.48437 0.9375,0.46875 1.42188,1.29688 0.5,0.82812 0.5,1.75 0,0.89062 -0.46875,1.60937 -0.46875,0.71875 -1.40625,1.15625 1.21875,0.26563 1.875,1.15625 0.67187,0.875 0.67187,2.1875 0,1.78125 -1.29687,3.01563 -1.29688,1.23437 -3.28125,1.23437 -1.79688,0 -2.98438,-1.0625 -1.17187,-1.0625 -1.34375,-2.76562 z"
     id="path3317"
     inkscape:connector-curvature="0"
     style="fill:#000000;fill-rule:nonzero" />
  <path
     d="m 59.783685,168.48069 c -8,-1.33333 -38.67716,5.39108 -47.999992,-8 -4.6614171,-6.69553 -6.3149611,-21.76772 -6.9685041,-36.67322 -0.326771,-7.45276 -0.403543,-14.86384 -0.481298,-21.16536 -0.0097,-0.78769 -0.01946,-1.55803 -0.0297,-2.30897 l -0.0031,-0.20752"
     id="path3319"
     inkscape:connector-curvature="0"
     style="stroke:#000000;stroke-width:2;stroke-linecap:butt;stroke-linejoin:round" />
  <path
     d="m 7.6021919,100.00054 -3.644791,-8.944587 -2.957401,9.194777 z"
     id="path3321"
     inkscape:connector-curvature="0"
     style="fill:#000000;fill-rule:evenodd;stroke:#000000;stroke-width:2;stroke-linecap:butt" />
  <path
     d="m 59.783685,232.48069 c -9.333328,-2.66666 -50.6666601,1.33334 -55.9999921,-16 -5.333334,-17.33333 2.656168,-71.94225 23.9999981,-88 21.34383,-16.05774 84.052489,-1.62204 104.062989,-8.34645 10.00524,-3.3622 13.33859,-10.02887 14.50393,-16.52165 0.14568,-0.8116 0.25748,-1.62048 0.3442,-2.41985 0.0217,-0.19984 0.0418,-0.39909 0.0605,-0.59765 l 0.0443,-0.50662"
     id="path3323"
     inkscape:connector-curvature="0"
     style="stroke:#000000;stroke-width:2;stroke-linecap:butt;stroke-linejoin:round" />
  <path
     d="m 150.09043,100.37673 -2.49889,-9.329827 -4.08284,8.75332 z"
     id="path3325"
     inkscape:connector-curvature="0"
     style="fill:#000000;fill-rule:evenodd;stroke:#000000;stroke-width:2;stroke-linecap:butt" />
  <path
     d="m 59.786311,296.48069 c -6.656601,-2.7244 -37.28302,9.04462 -39.939625,-16.34644 -2.656609,-25.39108 -17.3333361,-112.00001 23.999996,-136.00002 41.333333,-24 181.333338,1.33333 223.999998,-8 21.33331,-4.66667 28,-14.66667 30,-24.5 0.5,-2.45833 0.70831,-4.90625 0.78125,-7.25781 0.0364,-1.17578 0.0391,-2.32747 0.0273,-3.44433 -0.003,-0.27922 -0.007,-0.55626 -0.0111,-0.83095 l -4.9e-4,-0.0274"
     id="path3327"
     inkscape:connector-curvature="0"
     style="stroke:#000000;stroke-width:2;stroke-linecap:butt;stroke-linejoin:round" />
  <path
     d="m 301.93041,100.40497 -2.37686,-9.361657 -4.19678,8.69928 z"
     id="path3329"
     inkscape:connector-curvature="0"
     style="fill:#000000;fill-rule:evenodd;stroke:#000000;stroke-width:2;stroke-linecap:butt" />
  <path
     d="m 227.76446,167.98642 85.32912,53.49957"
     id="path3331"
     inkscape:connector-curvature="0"
     style="stroke:#000000;stroke-width:2;stroke-linecap:butt;stroke-linejoin:round" />
  <path
     d="m 311.33878,224.28483 9.44455,2.02246 -5.93494,-7.62015 z"
     id="path3333"
     inkscape:connector-curvature="0"
     style="fill:#000000;fill-rule:evenodd;stroke:#000000;stroke-width:2;stroke-linecap:butt" />
  <path
     d="m 227.76639,232.09704 83.65396,0.68863"
     id="path3335"
     inkscape:connector-curvature="0"
     style="stroke:#000000;stroke-width:2;stroke-linecap:butt;stroke-linejoin:round" />
  <path
     d="m 311.39316,236.08902 9.10309,-3.22864 -9.04871,-3.37806 z"
     id="path3337"
     inkscape:connector-curvature="0"
     style="fill:#000000;fill-rule:evenodd;stroke:#000000;stroke-width:2;stroke-linecap:butt" />
  <path
     d="m 227.46283,298.48375 86.59109,-54.92658"
     id="path3339"
     inkscape:connector-curvature="0"
     style="stroke:#000000;stroke-width:2;stroke-linecap:butt;stroke-linejoin:round" />
  <path
     d="m 315.82343,246.34678 5.89484,-7.65123 -9.43381,2.07207 z"
     id="path3341"
     inkscape:connector-curvature="0"
     style="fill:#000000;fill-rule:evenodd;stroke:#000000;stroke-width:2;stroke-linecap:butt" />
  <path
     d="m 201.012,13.828125 0,-13.59375 5.10937,0 q 1.54688,0 2.48438,0.40625 0.95312,0.40625 1.48437,1.265625 0.53125,0.859375 0.53125,1.796875 0,0.875 -0.46875,1.65625 -0.46875,0.765625 -1.4375,1.234375 1.23438,0.359375 1.89063,1.234375 0.67187,0.875 0.67187,2.0625 0,0.953125 -0.40625,1.78125 -0.39062,0.8125 -0.98437,1.265625 -0.59375,0.4375 -1.5,0.671875 -0.89063,0.21875 -2.1875,0.21875 l -5.1875,0 z m 1.79687,-7.890625 2.9375,0 q 1.20313,0 1.71875,-0.15625 0.6875,-0.203125 1.03125,-0.671875 0.35938,-0.46875 0.35938,-1.1875 0,-0.671875 -0.32813,-1.1875 -0.32812,-0.515625 -0.9375,-0.703125 -0.59375,-0.203125 -2.0625,-0.203125 l -2.71875,0 0,4.109375 z m 0,6.28125 3.39063,0 q 0.875,0 1.21875,-0.0625 0.625,-0.109375 1.04687,-0.359375 0.42188,-0.265625 0.6875,-0.765625 0.26563,-0.5 0.26563,-1.140625 0,-0.765625 -0.39063,-1.328125 Q 208.637,8 207.9495,7.78125 207.262,7.546875 205.96512,7.546875 l -3.15625,0 0,4.671875 z m 16.9592,1.609375 0,-1.453125 q -1.14062,1.671875 -3.125,1.671875 -0.85937,0 -1.625,-0.328125 -0.75,-0.34375 -1.125,-0.84375 -0.35937,-0.5 -0.51562,-1.234375 -0.0937,-0.5 -0.0937,-1.5625 l 0,-6.109375 1.67187,0 0,5.46875 q 0,1.3125 0.0937,1.765625 0.15625,0.65625 0.67188,1.03125 0.51562,0.375 1.26562,0.375 0.75,0 1.40625,-0.375 0.65625,-0.390625 0.92188,-1.046875 0.28125,-0.671875 0.28125,-1.9375 l 0,-5.28125 1.67187,0 0,9.859375 -1.5,0 z m 4.32885,0 0,-8.546875 -1.48438,0 0,-1.3125 1.48438,0 0,-1.046875 q 0,-0.984375 0.17187,-1.46875 0.23438,-0.65625 0.84375,-1.046875 Q 225.72192,0 226.81567,0 q 0.70312,0 1.5625,0.15625 l -0.25,1.46875 q -0.51563,-0.09375 -0.98438,-0.09375 -0.76562,0 -1.07812,0.328125 -0.3125,0.3125 -0.3125,1.203125 l 0,0.90625 1.92187,0 0,1.3125 -1.92187,0 0,8.546875 -1.65625,0 z m 5.1833,0 0,-8.546875 -1.48438,0 0,-1.3125 1.48438,0 0,-1.046875 q 0,-0.984375 0.17187,-1.46875 0.23438,-0.65625 0.84375,-1.046875 Q 230.90522,0 231.99897,0 q 0.70312,0 1.5625,0.15625 l -0.25,1.46875 q -0.51563,-0.09375 -0.98438,-0.09375 -0.76562,0 -1.07812,0.328125 -0.3125,0.3125 -0.3125,1.203125 l 0,0.90625 1.92187,0 0,1.3125 -1.92187,0 0,8.546875 -1.65625,0 z m 11.52707,-3.171875 1.71875,0.21875 q -0.40625,1.5 -1.51563,2.34375 -1.09375,0.828125 -2.8125,0.828125 -2.15625,0 -3.42189,-1.328125 -1.26562,-1.328125 -1.26562,-3.734375 0,-2.484375 1.26562,-3.859375 1.28127,-1.375 3.32814,-1.375 1.98438,0 3.23438,1.34375 1.25,1.34375 1.25,3.796875 0,0.140625 -0.0156,0.4375 l -7.34376,0 q 0.0937,1.625 0.92189,2.484375 0.82812,0.859375 2.0625,0.859375 0.90625,0 1.54687,-0.46875 0.65625,-0.484375 1.04688,-1.546875 z m -5.48439,-2.703125 5.50001,0 Q 240.71354,6.71875 240.19791,6.09375 239.40104,5.125 238.11979,5.125 q -1.14063,0 -1.9375,0.78125 -0.78127,0.765625 -0.85939,2.046875 z m 9.09446,5.875 0,-9.859375 1.5,0 0,1.5 q 0.57813,-1.046875 1.0625,-1.375 0.48438,-0.34375 1.07813,-0.34375 0.84375,0 1.71875,0.546875 l -0.57813,1.546875 q -0.60937,-0.359375 -1.23437,-0.359375 -0.54688,0 -0.98438,0.328125 -0.42187,0.328125 -0.60937,0.90625 -0.28125,0.890625 -0.28125,1.953125 l 0,5.15625 -1.67188,0 z M 255.20399,8.90625 q 0,-2.734375 1.53125,-4.0625 1.26562,-1.09375 3.09375,-1.09375 2.03125,0 3.3125,1.34375 1.29687,1.328125 1.29687,3.671875 0,1.90625 -0.57812,3 -0.5625,1.078125 -1.65625,1.6875 -1.07813,0.59375 -2.375,0.59375 -2.0625,0 -3.34375,-1.328125 -1.28125,-1.328125 -1.28125,-3.8125 z m 1.71875,0 q 0,1.890625 0.82812,2.828125 0.82813,0.9375 2.07813,0.9375 1.25,0 2.0625,-0.9375 0.82812,-0.953125 0.82812,-2.890625 0,-1.828125 -0.82812,-2.765625 -0.82813,-0.9375 -2.0625,-0.9375 -1.25,0 -2.07813,0.9375 -0.82812,0.9375 -0.82812,2.828125 z m 10.82882,4.921875 -1.54687,0 0,-13.59375 1.65625,0 0,4.84375 Q 268.92344,3.75 270.56406,3.75 q 0.90625,0 1.71875,0.375 0.8125,0.359375 1.32813,1.03125 0.53125,0.65625 0.82812,1.59375 0.29688,0.9375 0.29688,2 0,2.53125 -1.25,3.921875 -1.25,1.375 -3,1.375 -1.75,0 -2.73438,-1.453125 l 0,1.234375 z m -0.0156,-5 q 0,1.765625 0.46875,2.5625 0.79687,1.28125 2.14062,1.28125 1.09375,0 1.89063,-0.9375 0.79687,-0.953125 0.79687,-2.84375 0,-1.921875 -0.76562,-2.84375 Q 271.50158,5.125 270.42346,5.125 q -1.09375,0 -1.89063,0.953125 -0.79687,0.953125 -0.79687,2.75 z m 8.84448,-6.65625 0,-1.9375 1.65625,0 0,1.9375 -1.65625,0 z m -2.125,15.484373 0.3125,-1.421875 q 0.5,0.125 0.79687,0.125 0.51563,0 0.76563,-0.34375 0.25,-0.328123 0.25,-1.687498 l 0,-10.359375 1.65625,0 0,10.390625 q 0,1.828123 -0.46875,2.546873 -0.59375,0.921875 -2,0.921875 -0.67188,0 -1.3125,-0.171875 z M 287.47525,10.65625 289.194,10.875 q -0.40625,1.5 -1.51563,2.34375 -1.09375,0.828125 -2.8125,0.828125 -2.15625,0 -3.42187,-1.328125 -1.26563,-1.328125 -1.26563,-3.734375 0,-2.484375 1.26563,-3.859375 1.28125,-1.375 3.32812,-1.375 1.98438,0 3.23438,1.34375 1.25,1.34375 1.25,3.796875 0,0.140625 -0.0156,0.4375 l -7.34375,0 q 0.0937,1.625 0.92188,2.484375 0.82812,0.859375 2.0625,0.859375 0.90625,0 1.54687,-0.46875 0.65625,-0.484375 1.04688,-1.546875 z m -5.48438,-2.703125 5.5,0 Q 287.3815,6.71875 286.86587,6.09375 286.069,5.125 284.78775,5.125 q -1.14063,0 -1.9375,0.78125 -0.78125,0.765625 -0.85938,2.046875 z m 15.54761,2.265625 1.64062,0.21875 q -0.26562,1.6875 -1.375,2.65625 -1.10937,0.953125 -2.73437,0.953125 -2.01563,0 -3.25,-1.3125 -1.21875,-1.328125 -1.21875,-3.796875 0,-1.59375 0.51562,-2.78125 0.53125,-1.203125 1.60938,-1.796875 Q 293.81973,3.75 295.08535,3.75 q 1.60938,0 2.625,0.8125 1.01563,0.8125 1.3125,2.3125 l -1.625,0.25 q -0.23437,-1 -0.82812,-1.5 -0.59375,-0.5 -1.42188,-0.5 -1.26562,0 -2.0625,0.90625 -0.78125,0.90625 -0.78125,2.859375 0,1.984375 0.76563,2.890625 0.76562,0.890625 1.98437,0.890625 0.98438,0 1.64063,-0.59375 0.65625,-0.609375 0.84375,-1.859375 z m 6.54687,2.109375 0.23438,1.484375 q -0.70313,0.140625 -1.26563,0.140625 -0.90625,0 -1.40625,-0.28125 -0.5,-0.296875 -0.70312,-0.75 -0.20313,-0.46875 -0.20313,-1.984375 l 0,-5.65625 -1.23437,0 0,-1.3125 1.23437,0 0,-2.4375 1.65625,-1 0,3.4375 1.6875,0 0,1.3125 -1.6875,0 0,5.75 q 0,0.71875 0.0781,0.921875 0.0937,0.203125 0.29687,0.328125 0.20313,0.125 0.57813,0.125 0.26562,0 0.73437,-0.07813 z"
     id="path3343"
     inkscape:connector-curvature="0"
     style="fill:#000000;fill-rule:nonzero" />
  <path
     d="m 483.99946,232.94668 20.75857,0.43912"
     id="path3345"
     inkscape:connector-curvature="0"
     style="stroke:#000000;stroke-width:2;stroke-linecap:butt;stroke-linejoin:round" />
  <path
     d="m 504.68821,236.68853 9.14398,-3.11078 -9.00427,-3.49467 z"
     id="path3347"
     inkscape:connector-curvature="0"
     style="fill:#000000;fill-rule:evenodd;stroke:#000000;stroke-width:2;stroke-linecap:butt" />
  <path
     d="m 527.89518,238.03555 0,-2.60938 2.60937,0 0,2.60938 -2.60937,0 z m 10.36658,0 0,-2.60938 2.60937,0 0,2.60938 -2.60937,0 z m 10.36663,0 0,-2.60938 2.60938,0 0,2.60938 -2.60938,0 z"
     id="path3349"
     inkscape:connector-curvature="0"
     style="fill:#000000;fill-rule:nonzero" />
</svg>
