<?xml version="1.0" encoding="UTF-8" standalone="no"?>
<svg
   xmlns:dc="http://purl.org/dc/elements/1.1/"
   xmlns:cc="http://creativecommons.org/ns#"
   xmlns:rdf="http://www.w3.org/1999/02/22-rdf-syntax-ns#"
   xmlns:svg="http://www.w3.org/2000/svg"
   xmlns="http://www.w3.org/2000/svg"
   xmlns:sodipodi="http://sodipodi.sourceforge.net/DTD/sodipodi-0.dtd"
   xmlns:inkscape="http://www.inkscape.org/namespaces/inkscape"
   version="1.1"
   viewBox="0 0 770.126 146"
   stroke-miterlimit="10"
   clip-path="url(#p.0)"
   id="svg5872"
   inkscape:version="0.48.2 r9819"
   width="100%"
   height="100%"
   sodipodi:docname="frame-operations.svg"
   style="fill:none;stroke:none">
  <metadata
     id="metadata5911">
    <rdf:RDF>
      <cc:Work
         rdf:about="">
        <dc:format>image/svg+xml</dc:format>
        <dc:type
           rdf:resource="http://purl.org/dc/dcmitype/StillImage" />
      </cc:Work>
    </rdf:RDF>
  </metadata>
  <defs
     id="defs5909" />
  <sodipodi:namedview
     pagecolor="#ffffff"
     bordercolor="#666666"
     borderopacity="1"
     objecttolerance="10"
     gridtolerance="10"
     guidetolerance="10"
     inkscape:pageopacity="0"
     inkscape:pageshadow="2"
     inkscape:window-width="949"
     inkscape:window-height="775"
     id="namedview5907"
     showgrid="false"
     fit-margin-top="0"
     fit-margin-left="0"
     fit-margin-right="0"
     fit-margin-bottom="0"
     inkscape:zoom="0.32777778"
     inkscape:cx="473"
     inkscape:cy="-207"
     inkscape:window-x="0"
     inkscape:window-y="0"
     inkscape:window-maximized="0"
     inkscape:current-layer="svg5872" />
  <clipPath
     id="p.0">
    <path
       d="M 0,0 960,0 960,720 0,720 0,0 z"
       clip-rule="nonzero"
       id="path5875"
       inkscape:connector-curvature="0" />
  </clipPath>
  <path
     d="m 1,1 512.126,0 0,48 L 1,49 z"
     id="path5877"
     inkscape:connector-curvature="0"
     style="fill:#a4c2f4;fill-rule:nonzero;stroke:#000000;stroke-width:2;stroke-linecap:butt;stroke-linejoin:round" />
  <path
     d="m 181.56104,31.164062 0,-13.59375 4.6875,0 q 1.57812,0 2.42187,0.1875 1.15625,0.265625 1.98438,0.96875 1.07812,0.921875 1.60937,2.34375 0.53125,1.40625 0.53125,3.21875 0,1.546875 -0.35937,2.75 -0.35938,1.1875 -0.92188,1.984375 -0.5625,0.78125 -1.23437,1.234375 -0.67188,0.4375 -1.625,0.671875 -0.95313,0.234375 -2.1875,0.234375 l -4.90625,0 z m 1.79687,-1.609375 2.90625,0 q 1.34375,0 2.10938,-0.25 0.76562,-0.25 1.21875,-0.703125 0.64062,-0.640625 1,-1.71875 0.35937,-1.078125 0.35937,-2.625 0,-2.125 -0.70312,-3.265625 -0.70313,-1.15625 -1.70313,-1.546875 -0.71875,-0.28125 -2.32812,-0.28125 l -2.85938,0 0,10.390625 z m 11.70733,1.609375 0,-13.59375 9.84375,0 0,1.59375 -8.04688,0 0,4.171875 7.53125,0 0,1.59375 -7.53125,0 0,4.625 8.35938,0 0,1.609375 -10.15625,0 z m 12.41232,0 0,-13.59375 5.125,0 q 1.35937,0 2.07812,0.125 1,0.171875 1.67188,0.640625 0.67187,0.46875 1.07812,1.3125 0.42188,0.84375 0.42188,1.84375 0,1.734375 -1.10938,2.9375 -1.09375,1.203125 -3.98437,1.203125 l -3.48438,0 0,5.53125 -1.79687,0 z m 1.79687,-7.140625 3.51563,0 q 1.75,0 2.46875,-0.640625 0.73437,-0.65625 0.73437,-1.828125 0,-0.859375 -0.4375,-1.46875 -0.42187,-0.609375 -1.125,-0.796875 -0.45312,-0.125 -1.67187,-0.125 l -3.48438,0 0,4.859375 z m 14.09983,7.140625 0,-12 -4.46875,0 0,-1.59375 10.76562,0 0,1.59375 -4.5,0 0,12 -1.79687,0 z m 7.98973,0 0,-13.59375 1.8125,0 0,5.578125 7.0625,0 0,-5.578125 1.79687,0 0,13.59375 -1.79687,0 0,-6.40625 -7.0625,0 0,6.40625 -1.8125,0 z m 11.67607,3.78125 0,-1.21875 11.06248,0 0,1.21875 -11.06248,0 z m 15.57884,-3.78125 0,-12 -4.46875,0 0,-1.59375 10.76563,0 0,1.59375 -4.5,0 0,12 -1.79688,0 z m 7.97412,0 0,-13.59375 9.84375,0 0,1.59375 -8.04687,0 0,4.171875 7.53125,0 0,1.59375 -7.53125,0 0,4.625 8.35937,0 0,1.609375 -10.15625,0 z m 11.80292,-4.375 1.6875,-0.140625 q 0.125,1.015625 0.5625,1.671875 0.4375,0.65625 1.35937,1.0625 0.9375,0.40625 2.09375,0.40625 1.03125,0 1.8125,-0.3125 0.79688,-0.3125 1.1875,-0.84375 0.39063,-0.53125 0.39063,-1.15625 0,-0.640625 -0.375,-1.109375 -0.375,-0.484375 -1.23438,-0.8125 -0.54687,-0.21875 -2.42187,-0.65625 -1.875,-0.453125 -2.625,-0.859375 -0.96875,-0.515625 -1.45313,-1.265625 -0.46875,-0.75 -0.46875,-1.6875 0,-1.03125 0.57813,-1.921875 0.59375,-0.90625 1.70312,-1.359375 1.125,-0.46875 2.5,-0.46875 1.51563,0 2.67188,0.484375 1.15625,0.484375 1.76562,1.4375 0.625,0.9375 0.67188,2.140625 l -1.71875,0.125 q -0.14063,-1.28125 -0.95313,-1.9375 -0.79687,-0.671875 -2.35937,-0.671875 -1.625,0 -2.375,0.609375 -0.75,0.59375 -0.75,1.4375 0,0.734375 0.53125,1.203125 0.51562,0.46875 2.70312,0.96875 2.20313,0.5 3.01563,0.875 1.1875,0.546875 1.75,1.390625 0.57812,0.828125 0.57812,1.921875 0,1.09375 -0.625,2.0625 -0.625,0.953125 -1.79687,1.484375 -1.15625,0.53125 -2.60938,0.53125 -1.84375,0 -3.09375,-0.53125 -1.25,-0.546875 -1.96875,-1.625 -0.70312,-1.078125 -0.73437,-2.453125 z m 16.5061,4.375 0,-12 -4.46875,0 0,-1.59375 10.76563,0 0,1.59375 -4.5,0 0,12 -1.79688,0 z m 21.68866,-8 -8.96875,0 0,-1.5625 8.96875,0 0,1.5625 z m 0,4.125 -8.96875,0 0,-1.546875 8.96875,0 0,1.546875 z m 10.96888,3.875 0,-12 -4.46875,0 0,-1.59375 10.76562,0 0,1.59375 -4.5,0 0,12 -1.79687,0 z"
     id="path5879"
     inkscape:connector-curvature="0"
     style="fill:#000000;fill-rule:nonzero" />
  <path
     d="m 1,49 256.09448,0 0,48 L 1,97 z"
     id="path5881"
     inkscape:connector-curvature="0"
     style="fill:#b6d7a8;fill-rule:nonzero;stroke:#000000;stroke-width:2;stroke-linecap:butt;stroke-linejoin:round" />
  <path
     d="m 20.896858,79.16406 0,-13.59375 4.6875,0 q 1.578125,0 2.421875,0.1875 1.15625,0.265625 1.984375,0.96875 1.078125,0.921875 1.609375,2.34375 0.53125,1.40625 0.53125,3.21875 0,1.546875 -0.359375,2.75 -0.359375,1.1875 -0.921875,1.984375 -0.5625,0.78125 -1.234375,1.234375 -0.671875,0.4375 -1.625,0.671875 -0.953125,0.234375 -2.1875,0.234375 l -4.90625,0 z m 1.796875,-1.609375 2.90625,0 q 1.34375,0 2.109375,-0.25 0.765625,-0.25 1.21875,-0.703125 0.640625,-0.640625 1,-1.71875 0.359375,-1.078125 0.359375,-2.625 0,-2.125 -0.703125,-3.265625 -0.703125,-1.15625 -1.703125,-1.546875 -0.71875,-0.28125 -2.328125,-0.28125 l -2.859375,0 0,10.390625 z m 11.707321,1.609375 0,-13.59375 9.84375,0 0,1.59375 -8.046875,0 0,4.171875 7.53125,0 0,1.59375 -7.53125,0 0,4.625 8.359375,0 0,1.609375 -10.15625,0 z m 12.412323,0 0,-13.59375 5.125,0 q 1.359375,0 2.078125,0.125 1,0.171875 1.671875,0.640625 0.671875,0.46875 1.078125,1.3125 0.421875,0.84375 0.421875,1.84375 0,1.734375 -1.109375,2.9375 -1.09375,1.203125 -3.984375,1.203125 l -3.484375,0 0,5.53125 -1.796875,0 z m 1.796875,-7.140625 3.515625,0 q 1.75,0 2.46875,-0.640625 0.734375,-0.65625 0.734375,-1.828125 0,-0.859375 -0.4375,-1.46875 -0.421875,-0.609375 -1.125,-0.796875 -0.453125,-0.125 -1.671875,-0.125 l -3.484375,0 0,4.859375 z m 14.099823,7.140625 0,-12 -4.46875,0 0,-1.59375 10.765625,0 0,1.59375 -4.5,0 0,12 -1.796875,0 z m 7.989731,0 0,-13.59375 1.8125,0 0,5.578125 7.0625,0 0,-5.578125 1.796875,0 0,13.59375 -1.796875,0 0,-6.40625 -7.0625,0 0,6.40625 -1.8125,0 z m 11.676071,3.78125 0,-1.21875 11.062503,0 0,1.21875 -11.062503,0 z m 14.500713,-3.78125 -3.60937,-13.59375 1.84375,0 2.0625,8.90625 q 0.34375,1.40625 0.57812,2.78125 0.51563,-2.171875 0.60938,-2.515625 l 2.59375,-9.171875 2.17187,0 1.95313,6.875 q 0.73437,2.5625 1.04687,4.8125 0.26563,-1.28125 0.6875,-2.953125 l 2.125,-8.734375 1.8125,0 -3.73437,13.59375 -1.73438,0 -2.85937,-10.359375 q -0.35938,-1.296875 -0.42188,-1.59375 -0.21875,0.9375 -0.40625,1.59375 l -2.89062,10.359375 -1.82813,0 z m 15.26491,0 0,-13.59375 6.03125,0 q 1.8125,0 2.75,0.359375 0.95313,0.359375 1.51563,1.296875 0.5625,0.921875 0.5625,2.046875 0,1.453125 -0.9375,2.453125 -0.92187,0.984375 -2.89063,1.25 0.71875,0.34375 1.09375,0.671875 0.78126,0.734375 1.48438,1.8125 l 2.375,3.703125 -2.26562,0 -1.79688,-2.828125 q -0.79688,-1.21875 -1.3125,-1.875 -0.5,-0.65625 -0.90625,-0.90625 -0.40625,-0.265625 -0.8125,-0.359375 -0.3125,-0.07813 -1.01563,-0.07813 l -2.07812,0 0,6.046875 -1.79688,0 z m 1.79688,-7.59375 3.85937,0 q 1.23438,0 1.92188,-0.25 0.70312,-0.265625 1.0625,-0.828125 0.375,-0.5625 0.375,-1.21875 0,-0.96875 -0.70313,-1.578125 -0.70312,-0.625 -2.21875,-0.625 l -4.29687,0 0,4.5 z m 11.94169,7.59375 0,-13.59375 1.8125,0 0,13.59375 -1.8125,0 z m 8.33956,0 0,-12 -4.46875,0 0,-1.59375 10.76563,0 0,1.59375 -4.5,0 0,12 -1.79688,0 z m 7.9741,0 0,-13.59375 9.84375,0 0,1.59375 -8.04688,0 0,4.171875 7.53125,0 0,1.59375 -7.53125,0 0,4.625 8.35938,0 0,1.609375 -10.15625,0 z m 12.34982,0 0,-13.59375 2.71875,0 3.21875,9.625 q 0.4375,1.34375 0.64062,2.015625 0.23438,-0.75 0.73438,-2.1875 l 3.25,-9.453125 2.42187,0 0,13.59375 -1.73437,0 0,-11.390625 -3.95313,11.390625 -1.625,0 -3.9375,-11.578125 0,11.578125 -1.73437,0 z m 14.1033,0 5.23438,-13.59375 1.9375,0 5.5625,13.59375 -2.04688,0 -1.59375,-4.125 -5.6875,0 -1.48437,4.125 -1.92188,0 z m 3.92188,-5.578125 4.60937,0 -1.40625,-3.78125 q -0.65625,-1.703125 -0.96875,-2.8125 -0.26562,1.3125 -0.73437,2.59375 l -1.5,4 z m 9.41232,1.203125 1.6875,-0.140625 q 0.125,1.015625 0.5625,1.671875 0.4375,0.65625 1.35937,1.0625 0.9375,0.40625 2.09375,0.40625 1.03125,0 1.8125,-0.3125 0.79688,-0.3125 1.1875,-0.84375 0.39063,-0.53125 0.39063,-1.15625 0,-0.640625 -0.375,-1.109375 -0.375,-0.484375 -1.23438,-0.8125 -0.54687,-0.21875 -2.42187,-0.65625 -1.875,-0.453125 -2.625,-0.859375 -0.96875,-0.515625 -1.45313,-1.265625 -0.46875,-0.75 -0.46875,-1.6875 0,-1.03125 0.57813,-1.921875 0.59375,-0.90625 1.70312,-1.359375 1.125,-0.46875 2.5,-0.46875 1.51563,0 2.67188,0.484375 1.15625,0.484375 1.76562,1.4375 0.625,0.9375 0.67188,2.140625 l -1.71875,0.125 q -0.14063,-1.28125 -0.95313,-1.9375 -0.79687,-0.671875 -2.35937,-0.671875 -1.625,0 -2.375,0.609375 -0.75,0.59375 -0.75,1.4375 0,0.734375 0.53125,1.203125 0.51562,0.46875 2.70312,0.96875 2.20313,0.5 3.01563,0.875 1.1875,0.546875 1.75,1.390625 0.57812,0.828125 0.57812,1.921875 0,1.09375 -0.625,2.0625 -0.625,0.953125 -1.79687,1.484375 -1.15625,0.53125 -2.60938,0.53125 -1.84375,0 -3.09375,-0.53125 -1.25,-0.546875 -1.96875,-1.625 -0.70312,-1.078125 -0.73437,-2.453125 z m 12.97482,4.375 0,-13.59375 1.79688,0 0,6.734375 6.76562,-6.734375 2.4375,0 -5.70312,5.5 5.95312,8.09375 -2.375,0 -4.84375,-6.890625 -2.23437,2.171875 0,4.71875 -1.79688,0 z m 26.26752,-8 -8.96875,0 0,-1.5625 8.96875,0 0,1.5625 z m 0,4.125 -8.96875,0 0,-1.546875 8.96875,0 0,1.546875 z m 10.96887,3.875 0,-12 -4.46875,0 0,-1.59375 10.76563,0 0,1.59375 -4.5,0 0,12 -1.79688,0 z"
     id="path5883"
     inkscape:connector-curvature="0"
     style="fill:#000000;fill-rule:nonzero" />
  <path
     d="m 1,97 255.84253,0 0,48 L 1,145 z"
     id="path5885"
     inkscape:connector-curvature="0"
     style="fill:#fff2cc;fill-rule:nonzero;stroke:#000000;stroke-width:2;stroke-linecap:butt;stroke-linejoin:round" />
  <path
     d="m 14.248474,127.16406 0,-13.59375 4.6875,0 q 1.578125,0 2.421875,0.1875 1.15625,0.26563 1.984375,0.96875 1.078125,0.92188 1.609375,2.34375 0.53125,1.40625 0.53125,3.21875 0,1.54687 -0.359375,2.75 -0.359375,1.1875 -0.921875,1.98437 -0.5625,0.78125 -1.234375,1.23438 -0.671875,0.4375 -1.625,0.67187 -0.953125,0.23438 -2.1875,0.23438 l -4.90625,0 z m 1.796875,-1.60938 2.90625,0 q 1.34375,0 2.109375,-0.25 0.765625,-0.25 1.21875,-0.70312 0.640625,-0.64063 1,-1.71875 0.359375,-1.07813 0.359375,-2.625 0,-2.125 -0.703125,-3.26562 -0.703125,-1.15625 -1.703125,-1.54688 -0.71875,-0.28125 -2.328125,-0.28125 l -2.859375,0 0,10.39062 z m 11.441696,1.60938 0,-9.85937 1.5,0 0,1.5 q 0.578125,-1.04688 1.0625,-1.375 0.484375,-0.34375 1.078125,-0.34375 0.84375,0 1.71875,0.54687 l -0.578125,1.54688 q -0.609375,-0.35938 -1.234375,-0.35938 -0.546875,0 -0.984375,0.32813 -0.421875,0.32812 -0.609375,0.90625 -0.28125,0.89062 -0.28125,1.95312 l 0,5.15625 -1.671875,0 z m 12.665802,-1.21875 q -0.9375,0.79687 -1.796875,1.125 -0.859375,0.3125 -1.84375,0.3125 -1.609375,0 -2.484375,-0.78125 -0.875,-0.79688 -0.875,-2.03125 0,-0.73438 0.328125,-1.32813 0.328125,-0.59375 0.859375,-0.95312 0.53125,-0.35938 1.203125,-0.54688 0.5,-0.14062 1.484375,-0.25 2.03125,-0.25 2.984375,-0.57812 0,-0.34375 0,-0.4375 0,-1.01562 -0.46875,-1.4375 -0.640625,-0.5625 -1.90625,-0.5625 -1.171875,0 -1.734375,0.40625 -0.5625,0.40625 -0.828125,1.46875 l -1.640625,-0.23437 q 0.234375,-1.04688 0.734375,-1.6875 0.515625,-0.64063 1.46875,-0.98438 0.96875,-0.35937 2.25,-0.35937 1.265625,0 2.046875,0.29687 0.78125,0.29688 1.15625,0.75 0.375,0.45313 0.515625,1.14063 0.09375,0.42187 0.09375,1.53125 l 0,2.23437 q 0,2.32812 0.09375,2.95312 0.109375,0.60938 0.4375,1.17188 l -1.75,0 q -0.265625,-0.51563 -0.328125,-1.21875 z m -0.140625,-3.71875 q -0.90625,0.35937 -2.734375,0.625 -1.03125,0.14062 -1.453125,0.32812 -0.421875,0.1875 -0.65625,0.54688 -0.234375,0.35937 -0.234375,0.79687 0,0.67188 0.5,1.125 0.515625,0.4375 1.484375,0.4375 0.96875,0 1.71875,-0.42187 0.75,-0.4375 1.109375,-1.15625 0.265625,-0.57813 0.265625,-1.67188 l 0,-0.60937 z m 5.906967,4.9375 -3.015625,-9.85937 1.71875,0 1.5625,5.68749 0.59375,2.125 q 0.03125,-0.15625 0.5,-2.03125 l 1.578125,-5.78124 1.71875,0 1.46875,5.71874 0.484375,1.89063 0.578125,-1.90625 1.6875,-5.70312 1.625,0 -3.078125,9.85937 -1.734375,0 -1.578125,-5.90625 -0.375,-1.67187 -2,7.57812 -1.734375,0 z m 16.203125,-4.92188 q 0,-2.73437 1.53125,-4.06249 1.265625,-1.09375 3.09375,-1.09375 2.03125,0 3.3125,1.34375 1.296875,1.32812 1.296875,3.67187 0,1.90625 -0.578125,3 -0.5625,1.07812 -1.65625,1.6875 -1.078125,0.59375 -2.375,0.59375 -2.0625,0 -3.34375,-1.32813 -1.28125,-1.32812 -1.28125,-3.8125 z m 1.71875,0 q 0,1.89063 0.828125,2.82813 0.828125,0.9375 2.078125,0.9375 1.25,0 2.0625,-0.9375 0.828125,-0.95313 0.828125,-2.89063 0,-1.82812 -0.828125,-2.76562 -0.828125,-0.9375 -2.0625,-0.9375 -1.25,0 -2.078125,0.9375 -0.828125,0.9375 -0.828125,2.82812 z m 9.281967,8.70313 0,-13.64062 1.53125,0 0,1.28125 q 0.53125,-0.75 1.203125,-1.125 0.6875,-0.375 1.640625,-0.375 1.265625,0 2.234375,0.65625 0.96875,0.64062 1.453125,1.82812 0.5,1.1875 0.5,2.59375 0,1.51562 -0.546875,2.73437 -0.546875,1.20313 -1.578125,1.84375 -1.03125,0.64063 -2.171875,0.64063 -0.84375,0 -1.515625,-0.34375 -0.65625,-0.35938 -1.078125,-0.89063 l 0,4.79688 -1.671875,0 z m 1.515625,-8.65625 q 0,1.90625 0.765625,2.8125 0.78125,0.90625 1.875,0.90625 1.109375,0 1.890625,-0.9375 0.796875,-0.9375 0.796875,-2.92188 0,-1.87499 -0.78125,-2.81249 -0.765625,-0.9375 -1.84375,-0.9375 -1.0625,0 -1.890625,1 -0.8125,1 -0.8125,2.89062 z m 15.297592,3.65625 q -0.9375,0.79687 -1.796875,1.125 -0.859375,0.3125 -1.84375,0.3125 -1.609375,0 -2.484375,-0.78125 -0.875,-0.79688 -0.875,-2.03125 0,-0.73438 0.328125,-1.32813 0.328125,-0.59375 0.859375,-0.95312 0.53125,-0.35938 1.203125,-0.54688 0.5,-0.14062 1.484375,-0.25 2.03125,-0.25 2.984375,-0.57812 0,-0.34375 0,-0.4375 0,-1.01562 -0.46875,-1.4375 -0.640625,-0.5625 -1.90625,-0.5625 -1.171875,0 -1.734375,0.40625 -0.5625,0.40625 -0.828125,1.46875 l -1.640625,-0.23437 q 0.234375,-1.04688 0.734375,-1.6875 0.515625,-0.64063 1.46875,-0.98438 0.96875,-0.35937 2.25,-0.35937 1.265625,0 2.046875,0.29687 0.78125,0.29688 1.15625,0.75 0.375,0.45313 0.515625,1.14063 0.09375,0.42187 0.09375,1.53125 l 0,2.23437 q 0,2.32812 0.09375,2.95312 0.109375,0.60938 0.4375,1.17188 l -1.75,0 q -0.265625,-0.51563 -0.328125,-1.21875 z m -0.140625,-3.71875 q -0.90625,0.35937 -2.734375,0.625 -1.03125,0.14062 -1.453125,0.32812 -0.421875,0.1875 -0.65625,0.54688 -0.234375,0.35937 -0.234375,0.79687 0,0.67188 0.5,1.125 0.515625,0.4375 1.484375,0.4375 0.96875,0 1.71875,-0.42187 0.75,-0.4375 1.109375,-1.15625 0.265625,-0.57813 0.265625,-1.67188 l 0,-0.60937 z m 10.360087,8.71875 0,-4.82813 q -0.39062,0.54688 -1.09375,0.90625 -0.6875,0.35938 -1.48437,0.35938 -1.75,0 -3.01563,-1.39063 -1.26562,-1.40625 -1.26562,-3.84375 0,-1.48437 0.51562,-2.65624 0.51563,-1.1875 1.48438,-1.79688 0.98437,-0.60937 2.15625,-0.60937 1.82812,0 2.875,1.54687 l 0,-1.32812 1.5,0 0,13.64062 -1.67188,0 z m -5.14062,-8.73438 q 0,1.90625 0.79687,2.85938 0.79688,0.9375 1.90625,0.9375 1.0625,0 1.82813,-0.89063 0.78125,-0.90625 0.78125,-2.76562 0,-1.95312 -0.8125,-2.95312 -0.8125,-1 -1.90625,-1 -1.09375,0 -1.84375,0.9375 -0.75,0.92187 -0.75,2.87499 z m 15.68822,4.95313 0,-1.45313 q -1.14063,1.67188 -3.125,1.67188 -0.85938,0 -1.625,-0.32813 -0.75,-0.34375 -1.125,-0.84375 -0.35938,-0.5 -0.51563,-1.23437 -0.0937,-0.5 -0.0937,-1.5625 l 0,-6.10937 1.67188,0 0,5.46874 q 0,1.3125 0.0937,1.76563 0.15625,0.65625 0.67187,1.03125 0.51563,0.375 1.26563,0.375 0.75,0 1.40625,-0.375 0.65625,-0.39063 0.92187,-1.04688 0.28125,-0.67187 0.28125,-1.9375 l 0,-5.28124 1.67188,0 0,9.85937 -1.5,0 z m 10.67259,-3.17188 1.71875,0.21875 q -0.40625,1.5 -1.51563,2.34375 -1.09375,0.82813 -2.8125,0.82813 -2.15625,0 -3.42187,-1.32813 -1.26563,-1.32812 -1.26563,-3.73437 0,-2.48437 1.26563,-3.85937 1.28125,-1.375 3.32812,-1.375 1.98438,0 3.23438,1.34375 1.25,1.34375 1.25,3.79687 0,0.14062 -0.0156,0.4375 l -7.34375,0 q 0.0937,1.625 0.92188,2.48437 0.82812,0.85938 2.0625,0.85938 0.90625,0 1.54687,-0.46875 0.65625,-0.48438 1.04688,-1.54688 z m -5.48438,-2.70312 5.5,0 q -0.10937,-1.23437 -0.625,-1.85937 -0.79687,-0.96875 -2.07812,-0.96875 -1.14063,0 -1.9375,0.78125 -0.78125,0.76562 -0.85938,2.04687 z m 9.5476,5.875 0,-1.90625 1.90625,0 0,1.90625 q 0,1.04687 -0.375,1.6875 -0.375,0.65625 -1.17188,1 l -0.46875,-0.71875 q 0.53125,-0.21875 0.78125,-0.67188 0.25,-0.45312 0.28125,-1.29687 l -0.95312,0 z m 10.2416,0 0,-13.59375 9.17188,0 0,1.59375 -7.375,0 0,4.21875 6.375,0 0,1.60938 -6.375,0 0,6.17187 -1.79688,0 z m 11.06786,0 0,-9.85937 1.5,0 0,1.5 q 0.57812,-1.04688 1.0625,-1.375 0.48437,-0.34375 1.07812,-0.34375 0.84375,0 1.71875,0.54687 l -0.57812,1.54688 q -0.60938,-0.35938 -1.23438,-0.35938 -0.54687,0 -0.98437,0.32813 -0.42188,0.32812 -0.60938,0.90625 -0.28125,0.89062 -0.28125,1.95312 l 0,5.15625 -1.67187,0 z m 5.6033,-4.92188 q 0,-2.73437 1.53125,-4.06249 1.26563,-1.09375 3.09375,-1.09375 2.03125,0 3.3125,1.34375 1.29688,1.32812 1.29688,3.67187 0,1.90625 -0.57813,3 -0.5625,1.07812 -1.65625,1.6875 -1.07812,0.59375 -2.375,0.59375 -2.0625,0 -3.34375,-1.32813 -1.28125,-1.32812 -1.28125,-3.8125 z m 1.71875,0 q 0,1.89063 0.82813,2.82813 0.82812,0.9375 2.07812,0.9375 1.25,0 2.0625,-0.9375 0.82813,-0.95313 0.82813,-2.89063 0,-1.82812 -0.82813,-2.76562 -0.82812,-0.9375 -2.0625,-0.9375 -1.25,0 -2.07812,0.9375 -0.82813,0.9375 -0.82813,2.82812 z m 9.28197,4.92188 0,-9.85937 1.5,0 0,1.40625 q 1.09375,-1.625 3.14062,-1.625 0.89063,0 1.64063,0.32812 0.75,0.3125 1.10937,0.84375 0.375,0.51563 0.53125,1.21875 0.0937,0.46875 0.0937,1.625 l 0,6.0625 -1.67187,0 0,-6 q 0,-1.01562 -0.20313,-1.51562 -0.1875,-0.51563 -0.6875,-0.8125 -0.5,-0.29688 -1.17187,-0.29688 -1.0625,0 -1.84375,0.67188 -0.76563,0.67187 -0.76563,2.57812 l 0,5.375 -1.67187,0 z m 14.03197,-1.5 0.23437,1.48437 q -0.70312,0.14063 -1.26562,0.14063 -0.90625,0 -1.40625,-0.28125 -0.5,-0.29688 -0.70313,-0.75 -0.20312,-0.46875 -0.20312,-1.98438 l 0,-5.65624 -1.23438,0 0,-1.3125 1.23438,0 0,-2.4375 1.65625,-1 0,3.4375 1.6875,0 0,1.3125 -1.6875,0 0,5.74999 q 0,0.71875 0.0781,0.92188 0.0937,0.20312 0.29688,0.32812 0.20312,0.125 0.57812,0.125 0.26563,0 0.73438,-0.0781 z m 10.3666,0 0.23438,1.48437 q -0.70313,0.14063 -1.26563,0.14063 -0.90625,0 -1.40625,-0.28125 -0.5,-0.29688 -0.70312,-0.75 -0.20313,-0.46875 -0.20313,-1.98438 l 0,-5.65624 -1.23437,0 0,-1.3125 1.23437,0 0,-2.4375 1.65625,-1 0,3.4375 1.6875,0 0,1.3125 -1.6875,0 0,5.74999 q 0,0.71875 0.0781,0.92188 0.0937,0.20312 0.29687,0.32812 0.20313,0.125 0.57813,0.125 0.26562,0 0.73437,-0.0781 z m 0.90206,-3.42188 q 0,-2.73437 1.53125,-4.06249 1.26562,-1.09375 3.09375,-1.09375 2.03125,0 3.3125,1.34375 1.29687,1.32812 1.29687,3.67187 0,1.90625 -0.57812,3 -0.5625,1.07812 -1.65625,1.6875 -1.07813,0.59375 -2.375,0.59375 -2.0625,0 -3.34375,-1.32813 -1.28125,-1.32812 -1.28125,-3.8125 z m 1.71875,0 q 0,1.89063 0.82812,2.82813 0.82813,0.9375 2.07813,0.9375 1.25,0 2.0625,-0.9375 0.82812,-0.95313 0.82812,-2.89063 0,-1.82812 -0.82812,-2.76562 -0.82813,-0.9375 -2.0625,-0.9375 -1.25,0 -2.07813,0.9375 -0.82812,0.9375 -0.82812,2.82812 z m 14.60589,4.92188 0,-13.59375 5.10938,0 q 1.54687,0 2.48437,0.40625 0.95313,0.40625 1.48438,1.26563 0.53125,0.85937 0.53125,1.79687 0,0.875 -0.46875,1.65625 -0.46875,0.76563 -1.4375,1.23438 1.23437,0.35937 1.89062,1.23437 0.67188,0.875 0.67188,2.0625 0,0.95312 -0.40625,1.78125 -0.39063,0.8125 -0.98438,1.26562 -0.59375,0.4375 -1.5,0.67188 -0.89062,0.21875 -2.1875,0.21875 l -5.1875,0 z m 1.79688,-7.89062 2.9375,0 q 1.20312,0 1.71875,-0.15625 0.6875,-0.20313 1.03125,-0.67188 0.35937,-0.46875 0.35937,-1.1875 0,-0.67187 -0.32812,-1.1875 -0.32813,-0.51562 -0.9375,-0.70312 -0.59375,-0.20313 -2.0625,-0.20313 l -2.71875,0 0,4.10938 z m 0,6.28124 3.39062,0 q 0.875,0 1.21875,-0.0625 0.625,-0.10937 1.04688,-0.35937 0.42187,-0.26563 0.6875,-0.76563 0.26562,-0.5 0.26562,-1.14062 0,-0.76563 -0.39062,-1.32813 -0.39063,-0.5625 -1.07813,-0.78125 -0.6875,-0.23437 -1.98437,-0.23437 l -3.15625,0 0,4.67187 z m 16.94357,0.39063 q -0.9375,0.79687 -1.79687,1.125 -0.85938,0.3125 -1.84375,0.3125 -1.60938,0 -2.48438,-0.78125 -0.875,-0.79688 -0.875,-2.03125 0,-0.73438 0.32813,-1.32813 0.32812,-0.59375 0.85937,-0.95312 0.53125,-0.35938 1.20313,-0.54688 0.5,-0.14062 1.48437,-0.25 2.03125,-0.25 2.98438,-0.57812 0,-0.34375 0,-0.4375 0,-1.01562 -0.46875,-1.4375 -0.64063,-0.5625 -1.90625,-0.5625 -1.17188,0 -1.73438,0.40625 -0.5625,0.40625 -0.82812,1.46875 l -1.64063,-0.23437 q 0.23438,-1.04688 0.73438,-1.6875 0.51562,-0.64063 1.46875,-0.98438 0.96875,-0.35937 2.25,-0.35937 1.26562,0 2.04687,0.29687 0.78125,0.29688 1.15625,0.75 0.375,0.45313 0.51563,1.14063 0.0937,0.42187 0.0937,1.53125 l 0,2.23437 q 0,2.32812 0.0937,2.95312 0.10937,0.60938 0.4375,1.17188 l -1.75,0 q -0.26563,-0.51563 -0.32813,-1.21875 z m -0.14062,-3.71875 q -0.90625,0.35937 -2.73438,0.625 -1.03125,0.14062 -1.45312,0.32812 -0.42188,0.1875 -0.65625,0.54688 -0.23438,0.35937 -0.23438,0.79687 0,0.67188 0.5,1.125 0.51563,0.4375 1.48438,0.4375 0.96875,0 1.71875,-0.42187 0.75,-0.4375 1.10937,-1.15625 0.26563,-0.57813 0.26563,-1.67188 l 0,-0.60937 z m 10.51634,1.32812 1.64062,0.21875 q -0.26562,1.6875 -1.375,2.65625 -1.10937,0.95313 -2.73437,0.95313 -2.01563,0 -3.25,-1.3125 -1.21875,-1.32813 -1.21875,-3.79688 0,-1.59374 0.51562,-2.78124 0.53125,-1.20313 1.60938,-1.79688 1.09375,-0.60937 2.35937,-0.60937 1.60938,0 2.625,0.8125 1.01563,0.8125 1.3125,2.3125 l -1.625,0.25 q -0.23437,-1 -0.82812,-1.5 -0.59375,-0.5 -1.42188,-0.5 -1.26562,0 -2.0625,0.90625 -0.78125,0.90625 -0.78125,2.85937 0,1.98437 0.76563,2.89062 0.76562,0.89063 1.98437,0.89063 0.98438,0 1.64063,-0.59375 0.65625,-0.60938 0.84375,-1.85938 z m 2.90625,3.60938 0,-13.59375 1.67187,0 0,7.75 3.95313,-4.01562 2.15625,0 -3.76563,3.65625 4.14063,6.20312 -2.0625,0 -3.25,-5.03125 -1.17188,1.125 0,3.90625 -1.67187,0 z"
     id="path5887"
     inkscape:connector-curvature="0"
     style="fill:#000000;fill-rule:nonzero" />
  <path
     d="m 513,1 255.90552,0 0,48 L 513,49 z"
     id="path5889"
     inkscape:connector-curvature="0"
     style="fill:#c9daf8;fill-rule:nonzero;stroke:#000000;stroke-width:2;stroke-linecap:butt;stroke-linejoin:round" />
  <path
     d="m 565.4508,31.164062 0,-13.59375 4.6875,0 q 1.57812,0 2.42187,0.1875 1.15625,0.265625 1.98438,0.96875 1.07812,0.921875 1.60937,2.34375 0.53125,1.40625 0.53125,3.21875 0,1.546875 -0.35937,2.75 -0.35938,1.1875 -0.92188,1.984375 -0.5625,0.78125 -1.23437,1.234375 -0.67188,0.4375 -1.625,0.671875 -0.95313,0.234375 -2.1875,0.234375 l -4.90625,0 z m 1.79687,-1.609375 2.90625,0 q 1.34375,0 2.10938,-0.25 0.76562,-0.25 1.21875,-0.703125 0.64062,-0.640625 1,-1.71875 0.35937,-1.078125 0.35937,-2.625 0,-2.125 -0.70312,-3.265625 -0.70313,-1.15625 -1.70313,-1.546875 -0.71875,-0.28125 -2.32812,-0.28125 l -2.85938,0 0,10.390625 z m 11.70734,1.609375 0,-13.59375 9.84375,0 0,1.59375 -8.04687,0 0,4.171875 7.53125,0 0,1.59375 -7.53125,0 0,4.625 8.35937,0 0,1.609375 -10.15625,0 z m 12.41229,0 0,-13.59375 5.125,0 q 1.35938,0 2.07813,0.125 1,0.171875 1.67187,0.640625 0.67188,0.46875 1.07813,1.3125 0.42187,0.84375 0.42187,1.84375 0,1.734375 -1.10937,2.9375 -1.09375,1.203125 -3.98438,1.203125 l -3.48437,0 0,5.53125 -1.79688,0 z m 1.79688,-7.140625 3.51562,0 q 1.75,0 2.46875,-0.640625 0.73438,-0.65625 0.73438,-1.828125 0,-0.859375 -0.4375,-1.46875 -0.42188,-0.609375 -1.125,-0.796875 -0.45313,-0.125 -1.67188,-0.125 l -3.48437,0 0,4.859375 z m 14.09985,7.140625 0,-12 -4.46875,0 0,-1.59375 10.76563,0 0,1.59375 -4.5,0 0,12 -1.79688,0 z m 7.98975,0 0,-13.59375 1.8125,0 0,5.578125 7.0625,0 0,-5.578125 1.79687,0 0,13.59375 -1.79687,0 0,-6.40625 -7.0625,0 0,6.40625 -1.8125,0 z m 11.67602,3.78125 0,-1.21875 11.0625,0 0,1.21875 -11.0625,0 z m 15.57886,-3.78125 0,-12 -4.46875,0 0,-1.59375 10.76562,0 0,1.59375 -4.5,0 0,12 -1.79687,0 z m 7.97412,0 0,-13.59375 9.84375,0 0,1.59375 -8.04687,0 0,4.171875 7.53125,0 0,1.59375 -7.53125,0 0,4.625 8.35937,0 0,1.609375 -10.15625,0 z m 11.80298,-4.375 1.6875,-0.140625 q 0.125,1.015625 0.5625,1.671875 0.4375,0.65625 1.35937,1.0625 0.9375,0.40625 2.09375,0.40625 1.03125,0 1.8125,-0.3125 0.79688,-0.3125 1.1875,-0.84375 0.39063,-0.53125 0.39063,-1.15625 0,-0.640625 -0.375,-1.109375 -0.375,-0.484375 -1.23438,-0.8125 -0.54687,-0.21875 -2.42187,-0.65625 -1.875,-0.453125 -2.625,-0.859375 -0.96875,-0.515625 -1.45313,-1.265625 -0.46875,-0.75 -0.46875,-1.6875 0,-1.03125 0.57813,-1.921875 0.59375,-0.90625 1.70312,-1.359375 1.125,-0.46875 2.5,-0.46875 1.51563,0 2.67188,0.484375 1.15625,0.484375 1.76562,1.4375 0.625,0.9375 0.67188,2.140625 l -1.71875,0.125 q -0.14063,-1.28125 -0.95313,-1.9375 -0.79687,-0.671875 -2.35937,-0.671875 -1.625,0 -2.375,0.609375 -0.75,0.59375 -0.75,1.4375 0,0.734375 0.53125,1.203125 0.51562,0.46875 2.70312,0.96875 2.20313,0.5 3.01563,0.875 1.1875,0.546875 1.75,1.390625 0.57812,0.828125 0.57812,1.921875 0,1.09375 -0.625,2.0625 -0.625,0.953125 -1.79687,1.484375 -1.15625,0.53125 -2.60938,0.53125 -1.84375,0 -3.09375,-0.53125 -1.25,-0.546875 -1.96875,-1.625 -0.70312,-1.078125 -0.73437,-2.453125 z m 16.50604,4.375 0,-12 -4.46875,0 0,-1.59375 10.76563,0 0,1.59375 -4.5,0 0,12 -1.79688,0 z m 21.68866,-8 -8.96875,0 0,-1.5625 8.96875,0 0,1.5625 z m 0,4.125 -8.96875,0 0,-1.546875 8.96875,0 0,1.546875 z m 7.6095,3.875 0,-13.59375 9.17187,0 0,1.59375 -7.375,0 0,4.21875 6.375,0 0,1.609375 -6.375,0 0,6.171875 -1.79687,0 z"
     id="path5891"
     inkscape:connector-curvature="0"
     style="fill:#000000;fill-rule:nonzero" />
  <path
     d="m 257,49 512.126,0 0,48 L 257,97 z"
     id="path5893"
     inkscape:connector-curvature="0"
     style="fill:#d9ead3;fill-rule:nonzero;stroke:#000000;stroke-width:2;stroke-linecap:butt;stroke-linejoin:round" />
  <path
     d="m 404.9126,79.16406 0,-13.59375 4.6875,0 q 1.57812,0 2.42187,0.1875 1.15625,0.265625 1.98438,0.96875 1.07812,0.921875 1.60937,2.34375 0.53125,1.40625 0.53125,3.21875 0,1.546875 -0.35937,2.75 -0.35938,1.1875 -0.92188,1.984375 -0.5625,0.78125 -1.23437,1.234375 -0.67188,0.4375 -1.625,0.671875 -0.95313,0.234375 -2.1875,0.234375 l -4.90625,0 z m 1.79687,-1.609375 2.90625,0 q 1.34375,0 2.10938,-0.25 0.76562,-0.25 1.21875,-0.703125 0.64062,-0.640625 1,-1.71875 0.35937,-1.078125 0.35937,-2.625 0,-2.125 -0.70312,-3.265625 -0.70313,-1.15625 -1.70313,-1.546875 -0.71875,-0.28125 -2.32812,-0.28125 l -2.85938,0 0,10.390625 z m 11.70734,1.609375 0,-13.59375 9.84375,0 0,1.59375 -8.04687,0 0,4.171875 7.53125,0 0,1.59375 -7.53125,0 0,4.625 8.35937,0 0,1.609375 -10.15625,0 z m 12.41229,0 0,-13.59375 5.125,0 q 1.35938,0 2.07813,0.125 1,0.171875 1.67187,0.640625 0.67188,0.46875 1.07813,1.3125 0.42187,0.84375 0.42187,1.84375 0,1.734375 -1.10937,2.9375 -1.09375,1.203125 -3.98438,1.203125 l -3.48437,0 0,5.53125 -1.79688,0 z m 1.79688,-7.140625 3.51562,0 q 1.75,0 2.46875,-0.640625 0.73438,-0.65625 0.73438,-1.828125 0,-0.859375 -0.4375,-1.46875 -0.42188,-0.609375 -1.125,-0.796875 -0.45313,-0.125 -1.67188,-0.125 l -3.48437,0 0,4.859375 z m 14.09985,7.140625 0,-12 -4.46875,0 0,-1.59375 10.76563,0 0,1.59375 -4.5,0 0,12 -1.79688,0 z m 7.98972,0 0,-13.59375 1.8125,0 0,5.578125 7.0625,0 0,-5.578125 1.79687,0 0,13.59375 -1.79687,0 0,-6.40625 -7.0625,0 0,6.40625 -1.8125,0 z m 11.67605,3.78125 0,-1.21875 11.0625,0 0,1.21875 -11.0625,0 z m 14.50074,-3.78125 -3.60938,-13.59375 1.84375,0 2.0625,8.90625 q 0.34375,1.40625 0.57813,2.78125 0.51562,-2.171875 0.60937,-2.515625 l 2.59375,-9.171875 2.17188,0 1.95312,6.875 q 0.73438,2.5625 1.04688,4.8125 0.26562,-1.28125 0.6875,-2.953125 l 2.125,-8.734375 1.8125,0 -3.73438,13.59375 -1.73437,0 -2.85938,-10.359375 q -0.35937,-1.296875 -0.42187,-1.59375 -0.21875,0.9375 -0.40625,1.59375 l -2.89063,10.359375 -1.82812,0 z m 15.26489,0 0,-13.59375 6.03125,0 q 1.8125,0 2.75,0.359375 0.95312,0.359375 1.51562,1.296875 0.5625,0.921875 0.5625,2.046875 0,1.453125 -0.9375,2.453125 -0.92187,0.984375 -2.89062,1.25 0.71875,0.34375 1.09375,0.671875 0.78125,0.734375 1.48437,1.8125 l 2.375,3.703125 -2.26562,0 -1.79688,-2.828125 q -0.79687,-1.21875 -1.3125,-1.875 -0.5,-0.65625 -0.90625,-0.90625 -0.40625,-0.265625 -0.8125,-0.359375 -0.3125,-0.07813 -1.01562,-0.07813 l -2.07813,0 0,6.046875 -1.79687,0 z m 1.79687,-7.59375 3.85938,0 q 1.23437,0 1.92187,-0.25 0.70313,-0.265625 1.0625,-0.828125 0.375,-0.5625 0.375,-1.21875 0,-0.96875 -0.70312,-1.578125 -0.70313,-0.625 -2.21875,-0.625 l -4.29688,0 0,4.5 z m 11.94171,7.59375 0,-13.59375 1.8125,0 0,13.59375 -1.8125,0 z m 8.33954,0 0,-12 -4.46875,0 0,-1.59375 10.76563,0 0,1.59375 -4.5,0 0,12 -1.79688,0 z m 7.97412,0 0,-13.59375 9.84375,0 0,1.59375 -8.04687,0 0,4.171875 7.53125,0 0,1.59375 -7.53125,0 0,4.625 8.35937,0 0,1.609375 -10.15625,0 z m 12.34986,0 0,-13.59375 2.71875,0 3.21875,9.625 q 0.4375,1.34375 0.64062,2.015625 0.23438,-0.75 0.73438,-2.1875 l 3.25,-9.453125 2.42187,0 0,13.59375 -1.73437,0 0,-11.390625 -3.95313,11.390625 -1.625,0 -3.9375,-11.578125 0,11.578125 -1.73437,0 z m 14.10327,0 5.23437,-13.59375 1.9375,0 5.5625,13.59375 -2.04687,0 -1.59375,-4.125 -5.6875,0 -1.48438,4.125 -1.92187,0 z m 3.92187,-5.578125 4.60938,0 -1.40625,-3.78125 q -0.65625,-1.703125 -0.96875,-2.8125 -0.26563,1.3125 -0.73438,2.59375 l -1.5,4 z m 9.41236,1.203125 1.6875,-0.140625 q 0.125,1.015625 0.5625,1.671875 0.4375,0.65625 1.35937,1.0625 0.9375,0.40625 2.09375,0.40625 1.03125,0 1.8125,-0.3125 0.79688,-0.3125 1.1875,-0.84375 0.39063,-0.53125 0.39063,-1.15625 0,-0.640625 -0.375,-1.109375 -0.375,-0.484375 -1.23438,-0.8125 -0.54687,-0.21875 -2.42187,-0.65625 -1.875,-0.453125 -2.625,-0.859375 -0.96875,-0.515625 -1.45313,-1.265625 -0.46875,-0.75 -0.46875,-1.6875 0,-1.03125 0.57813,-1.921875 0.59375,-0.90625 1.70312,-1.359375 1.125,-0.46875 2.5,-0.46875 1.51563,0 2.67188,0.484375 1.15625,0.484375 1.76562,1.4375 0.625,0.9375 0.67188,2.140625 l -1.71875,0.125 q -0.14063,-1.28125 -0.95313,-1.9375 -0.79687,-0.671875 -2.35937,-0.671875 -1.625,0 -2.375,0.609375 -0.75,0.59375 -0.75,1.4375 0,0.734375 0.53125,1.203125 0.51562,0.46875 2.70312,0.96875 2.20313,0.5 3.01563,0.875 1.1875,0.546875 1.75,1.390625 0.57812,0.828125 0.57812,1.921875 0,1.09375 -0.625,2.0625 -0.625,0.953125 -1.79687,1.484375 -1.15625,0.53125 -2.60938,0.53125 -1.84375,0 -3.09375,-0.53125 -1.25,-0.546875 -1.96875,-1.625 -0.70312,-1.078125 -0.73437,-2.453125 z m 12.97479,4.375 0,-13.59375 1.79688,0 0,6.734375 6.76562,-6.734375 2.4375,0 -5.70312,5.5 5.95312,8.09375 -2.375,0 -4.84375,-6.890625 -2.23437,2.171875 0,4.71875 -1.79688,0 z m 26.26752,-8 -8.96875,0 0,-1.5625 8.96875,0 0,1.5625 z m 0,4.125 -8.96875,0 0,-1.546875 8.96875,0 0,1.546875 z m 7.60949,3.875 0,-13.59375 9.17188,0 0,1.59375 -7.375,0 0,4.21875 6.375,0 0,1.609375 -6.375,0 0,6.171875 -1.79688,0 z"
     id="path5895"
     inkscape:connector-curvature="0"
     style="fill:#000000;fill-rule:nonzero" />
  <path
     d="m 257,97 255.93701,0 0,48 L 257,145 z"
     id="path5897"
     inkscape:connector-curvature="0"
     style="fill:#fce5cd;fill-rule:nonzero;stroke:#000000;stroke-width:2;stroke-linecap:butt;stroke-linejoin:round" />
  <path
     d="m 280.15674,116.4375 0,-13.59375 4.6875,0 q 1.57813,0 2.42188,0.1875 1.15625,0.26563 1.98437,0.96875 1.07813,0.92188 1.60938,2.34375 0.53125,1.40625 0.53125,3.21875 0,1.54688 -0.35938,2.75 -0.35937,1.1875 -0.92187,1.98438 -0.5625,0.78125 -1.23438,1.23437 -0.67187,0.4375 -1.625,0.67188 -0.95312,0.23437 -2.1875,0.23437 l -4.90625,0 z m 1.79688,-1.60937 2.90625,0 q 1.34375,0 2.10937,-0.25 0.76563,-0.25 1.21875,-0.70313 0.64063,-0.64062 1,-1.71875 0.35938,-1.07812 0.35938,-2.625 0,-2.125 -0.70313,-3.26562 -0.70312,-1.15625 -1.70312,-1.54688 -0.71875,-0.28125 -2.32813,-0.28125 l -2.85937,0 0,10.39063 z m 11.44171,1.60937 0,-9.85937 1.5,0 0,1.5 q 0.57812,-1.04688 1.0625,-1.375 0.48437,-0.34375 1.07812,-0.34375 0.84375,0 1.71875,0.54687 l -0.57812,1.54688 q -0.60938,-0.35938 -1.23438,-0.35938 -0.54687,0 -0.98437,0.32813 -0.42188,0.32812 -0.60938,0.90625 -0.28125,0.89062 -0.28125,1.95312 l 0,5.15625 -1.67187,0 z m 12.6658,-1.21875 q -0.9375,0.79688 -1.79688,1.125 -0.85937,0.3125 -1.84375,0.3125 -1.60937,0 -2.48437,-0.78125 -0.875,-0.79687 -0.875,-2.03125 0,-0.73437 0.32812,-1.32812 0.32813,-0.59375 0.85938,-0.95313 0.53125,-0.35937 1.20312,-0.54687 0.5,-0.14063 1.48438,-0.25 2.03125,-0.25 2.98437,-0.57813 0,-0.34375 0,-0.4375 0,-1.01562 -0.46875,-1.4375 -0.64062,-0.5625 -1.90625,-0.5625 -1.17187,0 -1.73437,0.40625 -0.5625,0.40625 -0.82813,1.46875 l -1.64062,-0.23437 q 0.23437,-1.04688 0.73437,-1.6875 0.51563,-0.64063 1.46875,-0.98438 0.96875,-0.35937 2.25,-0.35937 1.26563,0 2.04688,0.29687 0.78125,0.29688 1.15625,0.75 0.375,0.45313 0.51562,1.14063 0.0937,0.42187 0.0937,1.53125 l 0,2.23437 q 0,2.32813 0.0937,2.95313 0.10938,0.60937 0.4375,1.17187 l -1.75,0 q -0.26562,-0.51562 -0.32812,-1.21875 z M 305.9205,111.5 q -0.90625,0.35938 -2.73437,0.625 -1.03125,0.14063 -1.45313,0.32813 -0.42187,0.1875 -0.65625,0.54687 -0.23437,0.35938 -0.23437,0.79688 0,0.67187 0.5,1.125 0.51562,0.4375 1.48437,0.4375 0.96875,0 1.71875,-0.42188 0.75,-0.4375 1.10938,-1.15625 0.26562,-0.57812 0.26562,-1.67187 l 0,-0.60938 z m 5.90695,4.9375 -3.01562,-9.85937 1.71875,0 1.5625,5.6875 0.59375,2.125 q 0.0312,-0.15625 0.5,-2.03125 l 1.57812,-5.78125 1.71875,0 1.46875,5.71875 0.48438,1.89062 0.57812,-1.90625 1.6875,-5.70312 1.625,0 -3.07812,9.85937 -1.73438,0 -1.57812,-5.90625 -0.375,-1.67187 -2,7.57812 -1.73438,0 z m 20.48438,-1.5 0.23437,1.48438 q -0.70312,0.14062 -1.26562,0.14062 -0.90625,0 -1.40625,-0.28125 -0.5,-0.29687 -0.70313,-0.75 -0.20312,-0.46875 -0.20312,-1.98437 l 0,-5.65625 -1.23438,0 0,-1.3125 1.23438,0 0,-2.4375 1.65625,-1 0,3.4375 1.6875,0 0,1.3125 -1.6875,0 0,5.75 q 0,0.71875 0.0781,0.92187 0.0937,0.20313 0.29688,0.32813 0.20312,0.125 0.57812,0.125 0.26563,0 0.73438,-0.0781 z m 1.51144,1.5 0,-9.85937 1.5,0 0,1.5 q 0.57813,-1.04688 1.0625,-1.375 0.48438,-0.34375 1.07813,-0.34375 0.84375,0 1.71875,0.54687 l -0.57813,1.54688 q -0.60937,-0.35938 -1.23437,-0.35938 -0.54688,0 -0.98438,0.32813 -0.42187,0.32812 -0.60937,0.90625 -0.28125,0.89062 -0.28125,1.95312 l 0,5.15625 -1.67188,0 z m 12.66581,-1.21875 q -0.9375,0.79688 -1.79688,1.125 -0.85937,0.3125 -1.84375,0.3125 -1.60937,0 -2.48437,-0.78125 -0.875,-0.79687 -0.875,-2.03125 0,-0.73437 0.32812,-1.32812 0.32813,-0.59375 0.85938,-0.95313 0.53125,-0.35937 1.20312,-0.54687 0.5,-0.14063 1.48438,-0.25 2.03125,-0.25 2.98437,-0.57813 0,-0.34375 0,-0.4375 0,-1.01562 -0.46875,-1.4375 -0.64062,-0.5625 -1.90625,-0.5625 -1.17187,0 -1.73437,0.40625 -0.5625,0.40625 -0.82813,1.46875 l -1.64062,-0.23437 q 0.23437,-1.04688 0.73437,-1.6875 0.51563,-0.64063 1.46875,-0.98438 0.96875,-0.35937 2.25,-0.35937 1.26563,0 2.04688,0.29687 0.78125,0.29688 1.15625,0.75 0.375,0.45313 0.51562,1.14063 0.0937,0.42187 0.0937,1.53125 l 0,2.23437 q 0,2.32813 0.0937,2.95313 0.10938,0.60937 0.4375,1.17187 l -1.75,0 q -0.26562,-0.51562 -0.32812,-1.21875 z M 346.34845,111.5 q -0.90625,0.35938 -2.73437,0.625 -1.03125,0.14063 -1.45313,0.32813 -0.42187,0.1875 -0.65625,0.54687 -0.23437,0.35938 -0.23437,0.79688 0,0.67187 0.5,1.125 0.51562,0.4375 1.48437,0.4375 0.96875,0 1.71875,-0.42188 0.75,-0.4375 1.10938,-1.15625 0.26562,-0.57812 0.26562,-1.67187 l 0,-0.60938 z m 4.07886,4.9375 0,-9.85937 1.5,0 0,1.40625 q 1.09375,-1.625 3.14062,-1.625 0.89063,0 1.64063,0.32812 0.75,0.3125 1.10937,0.84375 0.375,0.51563 0.53125,1.21875 0.0937,0.46875 0.0937,1.625 l 0,6.0625 -1.67187,0 0,-6 q 0,-1.01562 -0.20313,-1.51562 -0.1875,-0.51563 -0.6875,-0.8125 -0.5,-0.29688 -1.17187,-0.29688 -1.0625,0 -1.84375,0.67188 -0.76563,0.67187 -0.76563,2.57812 l 0,5.375 -1.67187,0 z m 9.70383,-2.9375 1.65625,-0.26562 q 0.14062,1 0.76562,1.53125 0.64063,0.51562 1.78125,0.51562 1.15625,0 1.70313,-0.46875 0.5625,-0.46875 0.5625,-1.09375 0,-0.5625 -0.48438,-0.89062 -0.34375,-0.21875 -1.70312,-0.5625 -1.84375,-0.46875 -2.5625,-0.79688 -0.70313,-0.34375 -1.07813,-0.9375 -0.35937,-0.60937 -0.35937,-1.32812 0,-0.65625 0.29687,-1.21875 0.3125,-0.5625 0.82813,-0.9375 0.39062,-0.28125 1.0625,-0.48438 0.67187,-0.20312 1.4375,-0.20312 1.17187,0 2.04687,0.34375 0.875,0.32812 1.28125,0.90625 0.42188,0.5625 0.57813,1.51562 l -1.625,0.21875 q -0.10938,-0.75 -0.65625,-1.17187 -0.53125,-0.4375 -1.5,-0.4375 -1.15625,0 -1.64063,0.39062 -0.48437,0.375 -0.48437,0.875 0,0.32813 0.20312,0.59375 0.20313,0.26563 0.64063,0.4375 0.25,0.0937 1.46875,0.4375 1.76562,0.46875 2.46875,0.76563 0.70312,0.29687 1.09375,0.875 0.40625,0.57812 0.40625,1.4375 0,0.82812 -0.48438,1.57812 -0.48437,0.73438 -1.40625,1.14063 -0.92187,0.39062 -2.07812,0.39062 -1.92188,0 -2.9375,-0.79687 -1,-0.79688 -1.28125,-2.35938 z m 9.96875,2.9375 0,-13.59375 1.67187,0 0,13.59375 -1.67187,0 z m 10.62918,0 0,-1.45312 q -1.14063,1.67187 -3.125,1.67187 -0.85938,0 -1.625,-0.32812 -0.75,-0.34375 -1.125,-0.84375 -0.35938,-0.5 -0.51563,-1.23438 -0.0937,-0.5 -0.0937,-1.5625 l 0,-6.10937 1.67188,0 0,5.46875 q 0,1.3125 0.0937,1.76562 0.15625,0.65625 0.67187,1.03125 0.51563,0.375 1.26563,0.375 0.75,0 1.40625,-0.375 0.65625,-0.39062 0.92187,-1.04687 0.28125,-0.67188 0.28125,-1.9375 l 0,-5.28125 1.67188,0 0,9.85937 -1.5,0 z m 10.3601,-3.60937 1.64063,0.21875 q -0.26563,1.6875 -1.375,2.65625 -1.10938,0.95312 -2.73438,0.95312 -2.01562,0 -3.25,-1.3125 -1.21875,-1.32812 -1.21875,-3.79687 0,-1.59375 0.51563,-2.78125 0.53125,-1.20313 1.60937,-1.79688 1.09375,-0.60937 2.35938,-0.60937 1.60937,0 2.625,0.8125 1.01562,0.8125 1.3125,2.3125 l -1.625,0.25 q -0.23438,-1 -0.82813,-1.5 -0.59375,-0.5 -1.42187,-0.5 -1.26563,0 -2.0625,0.90625 -0.78125,0.90625 -0.78125,2.85937 0,1.98438 0.76562,2.89063 0.76563,0.89062 1.98438,0.89062 0.98437,0 1.64062,-0.59375 0.65625,-0.60937 0.84375,-1.85937 z m 9.64063,0.4375 1.71875,0.21875 q -0.40625,1.5 -1.51563,2.34375 -1.09375,0.82812 -2.8125,0.82812 -2.15625,0 -3.42187,-1.32812 -1.26563,-1.32813 -1.26563,-3.73438 0,-2.48437 1.26563,-3.85937 1.28125,-1.375 3.32812,-1.375 1.98438,0 3.23438,1.34375 1.25,1.34375 1.25,3.79687 0,0.14063 -0.0156,0.4375 l -7.34375,0 q 0.0937,1.625 0.92188,2.48438 0.82812,0.85937 2.0625,0.85937 0.90625,0 1.54687,-0.46875 0.65625,-0.48437 1.04688,-1.54687 z m -5.48438,-2.70313 5.5,0 q -0.10937,-1.23437 -0.625,-1.85937 -0.79687,-0.96875 -2.07812,-0.96875 -1.14063,0 -1.9375,0.78125 -0.78125,0.76562 -0.85938,2.04687 z m 9.11011,5.875 0,-9.85937 1.5,0 0,1.40625 q 1.09375,-1.625 3.14063,-1.625 0.89062,0 1.64062,0.32812 0.75,0.3125 1.10938,0.84375 0.375,0.51563 0.53125,1.21875 0.0937,0.46875 0.0937,1.625 l 0,6.0625 -1.67188,0 0,-6 q 0,-1.01562 -0.20312,-1.51562 -0.1875,-0.51563 -0.6875,-0.8125 -0.5,-0.29688 -1.17188,-0.29688 -1.0625,0 -1.84375,0.67188 -0.76562,0.67187 -0.76562,2.57812 l 0,5.375 -1.67188,0 z m 14.03195,-1.5 0.23438,1.48438 q -0.70313,0.14062 -1.26563,0.14062 -0.90625,0 -1.40625,-0.28125 -0.5,-0.29687 -0.70312,-0.75 -0.20313,-0.46875 -0.20313,-1.98437 l 0,-5.65625 -1.23437,0 0,-1.3125 1.23437,0 0,-2.4375 1.65625,-1 0,3.4375 1.6875,0 0,1.3125 -1.6875,0 0,5.75 q 0,0.71875 0.0781,0.92187 0.0937,0.20313 0.29687,0.32813 0.20313,0.125 0.57813,0.125 0.26562,0 0.73437,-0.0781 z m 1.96457,1.5 0,-1.90625 1.90625,0 0,1.90625 q 0,1.04688 -0.375,1.6875 -0.375,0.65625 -1.17187,1 l -0.46875,-0.71875 q 0.53125,-0.21875 0.78125,-0.67187 0.25,-0.45313 0.28125,-1.29688 l -0.95313,0 z m 10.0697,0 0,-13.59375 5.10938,0 q 1.54687,0 2.48437,0.40625 0.95313,0.40625 1.48438,1.26563 0.53125,0.85937 0.53125,1.79687 0,0.875 -0.46875,1.65625 -0.46875,0.76563 -1.4375,1.23438 1.23437,0.35937 1.89062,1.23437 0.67188,0.875 0.67188,2.0625 0,0.95313 -0.40625,1.78125 -0.39063,0.8125 -0.98438,1.26563 -0.59375,0.4375 -1.5,0.67187 -0.89062,0.21875 -2.1875,0.21875 l -5.1875,0 z m 1.79688,-7.89062 2.9375,0 q 1.20312,0 1.71875,-0.15625 0.6875,-0.20313 1.03125,-0.67188 0.35937,-0.46875 0.35937,-1.1875 0,-0.67187 -0.32812,-1.1875 -0.32813,-0.51562 -0.9375,-0.70312 -0.59375,-0.20313 -2.0625,-0.20313 l -2.71875,0 0,4.10938 z m 0,6.28125 3.39062,0 q 0.875,0 1.21875,-0.0625 0.625,-0.10938 1.04688,-0.35938 0.42187,-0.26562 0.6875,-0.76562 0.26562,-0.5 0.26562,-1.14063 0,-0.76562 -0.39062,-1.32812 -0.39063,-0.5625 -1.07813,-0.78125 -0.6875,-0.23438 -1.98437,-0.23438 l -3.15625,0 0,4.67188 z m 16.9436,0.39062 q -0.9375,0.79688 -1.79687,1.125 -0.85938,0.3125 -1.84375,0.3125 -1.60938,0 -2.48438,-0.78125 -0.875,-0.79687 -0.875,-2.03125 0,-0.73437 0.32813,-1.32812 0.32812,-0.59375 0.85937,-0.95313 0.53125,-0.35937 1.20313,-0.54687 0.5,-0.14063 1.48437,-0.25 2.03125,-0.25 2.98438,-0.57813 0,-0.34375 0,-0.4375 0,-1.01562 -0.46875,-1.4375 -0.64063,-0.5625 -1.90625,-0.5625 -1.17188,0 -1.73438,0.40625 -0.5625,0.40625 -0.82812,1.46875 l -1.64063,-0.23437 q 0.23438,-1.04688 0.73438,-1.6875 0.51562,-0.64063 1.46875,-0.98438 0.96875,-0.35937 2.25,-0.35937 1.26562,0 2.04687,0.29687 0.78125,0.29688 1.15625,0.75 0.375,0.45313 0.51563,1.14063 0.0937,0.42187 0.0937,1.53125 l 0,2.23437 q 0,2.32813 0.0937,2.95313 0.10937,0.60937 0.4375,1.17187 l -1.75,0 q -0.26563,-0.51562 -0.32813,-1.21875 z M 449.02161,111.5 q -0.90625,0.35938 -2.73438,0.625 -1.03125,0.14063 -1.45312,0.32813 -0.42188,0.1875 -0.65625,0.54687 -0.23438,0.35938 -0.23438,0.79688 0,0.67187 0.5,1.125 0.51563,0.4375 1.48438,0.4375 0.96875,0 1.71875,-0.42188 0.75,-0.4375 1.10937,-1.15625 0.26563,-0.57812 0.26563,-1.67187 l 0,-0.60938 z m 10.51632,1.32813 1.64063,0.21875 q -0.26563,1.6875 -1.375,2.65625 -1.10938,0.95312 -2.73438,0.95312 -2.01562,0 -3.25,-1.3125 -1.21875,-1.32812 -1.21875,-3.79687 0,-1.59375 0.51563,-2.78125 0.53125,-1.20313 1.60937,-1.79688 1.09375,-0.60937 2.35938,-0.60937 1.60937,0 2.625,0.8125 1.01562,0.8125 1.3125,2.3125 l -1.625,0.25 q -0.23438,-1 -0.82813,-1.5 -0.59375,-0.5 -1.42187,-0.5 -1.26563,0 -2.0625,0.90625 -0.78125,0.90625 -0.78125,2.85937 0,1.98438 0.76562,2.89063 0.76563,0.89062 1.98438,0.89062 0.98437,0 1.64062,-0.59375 0.65625,-0.60937 0.84375,-1.85937 z m 2.90625,3.60937 0,-13.59375 1.67188,0 0,7.75 3.95312,-4.01562 2.15625,0 -3.76562,3.65625 4.14062,6.20312 -2.0625,0 -3.25,-5.03125 -1.17187,1.125 0,3.90625 -1.67188,0 z m 18.15207,-1.5 0.23438,1.48438 q -0.70313,0.14062 -1.26563,0.14062 -0.90625,0 -1.40625,-0.28125 -0.5,-0.29687 -0.70312,-0.75 -0.20313,-0.46875 -0.20313,-1.98437 l 0,-5.65625 -1.23437,0 0,-1.3125 1.23437,0 0,-2.4375 1.65625,-1 0,3.4375 1.6875,0 0,1.3125 -1.6875,0 0,5.75 q 0,0.71875 0.0781,0.92187 0.0937,0.20313 0.29687,0.32813 0.20313,0.125 0.57813,0.125 0.26562,0 0.73437,-0.0781 z m 0.90204,-3.42187 q 0,-2.73438 1.53125,-4.0625 1.26563,-1.09375 3.09375,-1.09375 2.03125,0 3.3125,1.34375 1.29688,1.32812 1.29688,3.67187 0,1.90625 -0.57813,3 -0.5625,1.07813 -1.65625,1.6875 -1.07812,0.59375 -2.375,0.59375 -2.0625,0 -3.34375,-1.32812 -1.28125,-1.32813 -1.28125,-3.8125 z m 1.71875,0 q 0,1.89062 0.82813,2.82812 0.82812,0.9375 2.07812,0.9375 1.25,0 2.0625,-0.9375 0.82813,-0.95312 0.82813,-2.89062 0,-1.82813 -0.82813,-2.76563 -0.82812,-0.9375 -2.0625,-0.9375 -1.25,0 -2.07812,0.9375 -0.82813,0.9375 -0.82813,2.82813 z"
     id="path5899"
     inkscape:connector-curvature="0"
     style="fill:#000000;fill-rule:nonzero" />
  <path
     d="m 364.7593,137.89062 0,-13.59375 9.17187,0 0,1.59375 -7.375,0 0,4.21875 6.375,0 0,1.60938 -6.375,0 0,6.17187 -1.79687,0 z m 11.06784,0 0,-9.85937 1.5,0 0,1.5 q 0.57813,-1.04688 1.0625,-1.375 0.48438,-0.34375 1.07813,-0.34375 0.84375,0 1.71875,0.54687 l -0.57813,1.54688 q -0.60937,-0.35938 -1.23437,-0.35938 -0.54688,0 -0.98438,0.32813 -0.42187,0.32812 -0.60937,0.90625 -0.28125,0.89062 -0.28125,1.95312 l 0,5.15625 -1.67188,0 z m 5.60333,-4.92187 q 0,-2.73438 1.53125,-4.0625 1.26563,-1.09375 3.09375,-1.09375 2.03125,0 3.3125,1.34375 1.29688,1.32812 1.29688,3.67187 0,1.90625 -0.57813,3 -0.5625,1.07813 -1.65625,1.6875 -1.07812,0.59375 -2.375,0.59375 -2.0625,0 -3.34375,-1.32812 -1.28125,-1.32813 -1.28125,-3.8125 z m 1.71875,0 q 0,1.89062 0.82813,2.82812 0.82812,0.9375 2.07812,0.9375 1.25,0 2.0625,-0.9375 0.82813,-0.95312 0.82813,-2.89062 0,-1.82813 -0.82813,-2.76563 -0.82812,-0.9375 -2.0625,-0.9375 -1.25,0 -2.07812,0.9375 -0.82813,0.9375 -0.82813,2.82813 z m 9.28196,4.92187 0,-9.85937 1.5,0 0,1.40625 q 1.09375,-1.625 3.14062,-1.625 0.89063,0 1.64063,0.32812 0.75,0.3125 1.10937,0.84375 0.375,0.51563 0.53125,1.21875 0.0937,0.46875 0.0937,1.625 l 0,6.0625 -1.67187,0 0,-6 q 0,-1.01562 -0.20313,-1.51562 -0.1875,-0.51563 -0.6875,-0.8125 -0.5,-0.29688 -1.17187,-0.29688 -1.0625,0 -1.84375,0.67188 -0.76563,0.67187 -0.76563,2.57812 l 0,5.375 -1.67187,0 z m 14.03195,-1.5 0.23437,1.48438 q -0.70312,0.14062 -1.26562,0.14062 -0.90625,0 -1.40625,-0.28125 -0.5,-0.29687 -0.70313,-0.75 -0.20312,-0.46875 -0.20312,-1.98437 l 0,-5.65625 -1.23438,0 0,-1.3125 1.23438,0 0,-2.4375 1.65625,-1 0,3.4375 1.6875,0 0,1.3125 -1.6875,0 0,5.75 q 0,0.71875 0.0781,0.92187 0.0937,0.20313 0.29688,0.32813 0.20312,0.125 0.57812,0.125 0.26563,0 0.73438,-0.0781 z"
     id="path5901"
     inkscape:connector-curvature="0"
     style="fill:#000000;fill-rule:nonzero" />
  <path
     d="m 513.126,97 255.87402,0 0,48 -255.87402,0 z"
     id="path5903"
     inkscape:connector-curvature="0"
     style="fill:#f4cccc;fill-rule:nonzero;stroke:#000000;stroke-width:2;stroke-linecap:butt;stroke-linejoin:round" />
  <path
     d="m 548.1892,127.16406 0,-13.59375 4.6875,0 q 1.57813,0 2.42188,0.1875 1.15625,0.26563 1.98437,0.96875 1.07813,0.92188 1.60938,2.34375 0.53125,1.40625 0.53125,3.21875 0,1.54687 -0.35938,2.75 -0.35937,1.1875 -0.92187,1.98437 -0.5625,0.78125 -1.23438,1.23438 -0.67187,0.4375 -1.625,0.67187 -0.95312,0.23438 -2.1875,0.23438 l -4.90625,0 z m 1.79688,-1.60938 2.90625,0 q 1.34375,0 2.10937,-0.25 0.76563,-0.25 1.21875,-0.70312 0.64063,-0.64063 1,-1.71875 0.35938,-1.07813 0.35938,-2.625 0,-2.125 -0.70313,-3.26562 -0.70312,-1.15625 -1.70312,-1.54688 -0.71875,-0.28125 -2.32813,-0.28125 l -2.85937,0 0,10.39062 z m 11.44171,1.60938 0,-9.85937 1.5,0 0,1.5 q 0.57812,-1.04688 1.0625,-1.375 0.48437,-0.34375 1.07812,-0.34375 0.84375,0 1.71875,0.54687 l -0.57812,1.54688 q -0.60938,-0.35938 -1.23438,-0.35938 -0.54687,0 -0.98437,0.32813 -0.42188,0.32812 -0.60938,0.90625 -0.28125,0.89062 -0.28125,1.95312 l 0,5.15625 -1.67187,0 z m 12.66583,-1.21875 q -0.9375,0.79687 -1.79688,1.125 -0.85937,0.3125 -1.84375,0.3125 -1.60937,0 -2.48437,-0.78125 -0.875,-0.79688 -0.875,-2.03125 0,-0.73438 0.32812,-1.32813 0.32813,-0.59375 0.85938,-0.95312 0.53125,-0.35938 1.20312,-0.54688 0.5,-0.14062 1.48438,-0.25 2.03125,-0.25 2.98437,-0.57812 0,-0.34375 0,-0.4375 0,-1.01562 -0.46875,-1.4375 -0.64062,-0.5625 -1.90625,-0.5625 -1.17187,0 -1.73437,0.40625 -0.5625,0.40625 -0.82813,1.46875 l -1.64062,-0.23437 q 0.23437,-1.04688 0.73437,-1.6875 0.51563,-0.64063 1.46875,-0.98438 0.96875,-0.35937 2.25,-0.35937 1.26563,0 2.04688,0.29687 0.78125,0.29688 1.15625,0.75 0.375,0.45313 0.51562,1.14063 0.0937,0.42187 0.0937,1.53125 l 0,2.23437 q 0,2.32812 0.0937,2.95312 0.10938,0.60938 0.4375,1.17188 l -1.75,0 q -0.26562,-0.51563 -0.32812,-1.21875 z m -0.14063,-3.71875 q -0.90625,0.35937 -2.73437,0.625 -1.03125,0.14062 -1.45313,0.32812 -0.42187,0.1875 -0.65625,0.54688 -0.23437,0.35937 -0.23437,0.79687 0,0.67188 0.5,1.125 0.51562,0.4375 1.48437,0.4375 0.96875,0 1.71875,-0.42187 0.75,-0.4375 1.10938,-1.15625 0.26562,-0.57813 0.26562,-1.67188 l 0,-0.60937 z m 5.90692,4.9375 -3.01562,-9.85937 1.71875,0 1.5625,5.68749 0.59375,2.125 q 0.0312,-0.15625 0.5,-2.03125 l 1.57812,-5.78124 1.71875,0 1.46875,5.71874 0.48438,1.89063 0.57812,-1.90625 1.6875,-5.70312 1.625,0 -3.07812,9.85937 -1.73438,0 -1.57812,-5.90625 -0.375,-1.67187 -2,7.57812 -1.73438,0 z m 25.96875,-13.59375 1.79688,0 0,7.84375 q 0,2.0625 -0.46875,3.26562 -0.45313,1.20313 -1.67188,1.96875 -1.20312,0.75 -3.17187,0.75 -1.90625,0 -3.125,-0.65625 -1.21875,-0.65625 -1.73438,-1.90625 -0.51562,-1.25 -0.51562,-3.42187 l 0,-7.84375 1.79687,0 0,7.84375 q 0,1.76562 0.32813,2.60937 0.32812,0.84375 1.125,1.29688 0.8125,0.45312 1.96875,0.45312 1.98437,0 2.82812,-0.89062 0.84375,-0.90625 0.84375,-3.46875 l 0,-7.84375 z m 4.84797,13.59375 0,-13.59375 1.8125,0 0,13.59375 -1.8125,0 z m 5.10516,0 0,-1.90625 1.90625,0 0,1.90625 q 0,1.04687 -0.375,1.6875 -0.375,0.65625 -1.17188,1 l -0.46875,-0.71875 q 0.53125,-0.21875 0.78125,-0.67188 0.25,-0.45312 0.28125,-1.29687 l -0.95312,0 z m 10.06976,0 0,-13.59375 5.10938,0 q 1.54687,0 2.48437,0.40625 0.95313,0.40625 1.48438,1.26563 0.53125,0.85937 0.53125,1.79687 0,0.875 -0.46875,1.65625 -0.46875,0.76563 -1.4375,1.23438 1.23437,0.35937 1.89062,1.23437 0.67188,0.875 0.67188,2.0625 0,0.95312 -0.40625,1.78125 -0.39063,0.8125 -0.98438,1.26562 -0.59375,0.4375 -1.5,0.67188 -0.89062,0.21875 -2.1875,0.21875 l -5.1875,0 z m 1.79688,-7.89062 2.9375,0 q 1.20312,0 1.71875,-0.15625 0.6875,-0.20313 1.03125,-0.67188 0.35937,-0.46875 0.35937,-1.1875 0,-0.67187 -0.32812,-1.1875 -0.32813,-0.51562 -0.9375,-0.70312 -0.59375,-0.20313 -2.0625,-0.20313 l -2.71875,0 0,4.10938 z m 0,6.28124 3.39062,0 q 0.875,0 1.21875,-0.0625 0.625,-0.10937 1.04688,-0.35937 0.42187,-0.26563 0.6875,-0.76563 0.26562,-0.5 0.26562,-1.14062 0,-0.76563 -0.39062,-1.32813 -0.39063,-0.5625 -1.07813,-0.78125 -0.6875,-0.23437 -1.98437,-0.23437 l -3.15625,0 0,4.67187 z m 16.94354,0.39063 q -0.9375,0.79687 -1.79688,1.125 -0.85937,0.3125 -1.84375,0.3125 -1.60937,0 -2.48437,-0.78125 -0.875,-0.79688 -0.875,-2.03125 0,-0.73438 0.32812,-1.32813 0.32813,-0.59375 0.85938,-0.95312 0.53125,-0.35938 1.20312,-0.54688 0.5,-0.14062 1.48438,-0.25 2.03125,-0.25 2.98437,-0.57812 0,-0.34375 0,-0.4375 0,-1.01562 -0.46875,-1.4375 -0.64062,-0.5625 -1.90625,-0.5625 -1.17187,0 -1.73437,0.40625 -0.5625,0.40625 -0.82813,1.46875 l -1.64062,-0.23437 q 0.23437,-1.04688 0.73437,-1.6875 0.51563,-0.64063 1.46875,-0.98438 0.96875,-0.35937 2.25,-0.35937 1.26563,0 2.04688,0.29687 0.78125,0.29688 1.15625,0.75 0.375,0.45313 0.51562,1.14063 0.0937,0.42187 0.0937,1.53125 l 0,2.23437 q 0,2.32812 0.0937,2.95312 0.10938,0.60938 0.4375,1.17188 l -1.75,0 q -0.26562,-0.51563 -0.32812,-1.21875 z m -0.14063,-3.71875 q -0.90625,0.35937 -2.73437,0.625 -1.03125,0.14062 -1.45313,0.32812 -0.42187,0.1875 -0.65625,0.54688 -0.23437,0.35937 -0.23437,0.79687 0,0.67188 0.5,1.125 0.51562,0.4375 1.48437,0.4375 0.96875,0 1.71875,-0.42187 0.75,-0.4375 1.10938,-1.15625 0.26562,-0.57813 0.26562,-1.67188 l 0,-0.60937 z m 10.51636,1.32812 1.64063,0.21875 q -0.26563,1.6875 -1.375,2.65625 -1.10938,0.95313 -2.73438,0.95313 -2.01562,0 -3.25,-1.3125 -1.21875,-1.32813 -1.21875,-3.79688 0,-1.59374 0.51563,-2.78124 0.53125,-1.20313 1.60937,-1.79688 1.09375,-0.60937 2.35938,-0.60937 1.60937,0 2.625,0.8125 1.01562,0.8125 1.3125,2.3125 l -1.625,0.25 q -0.23438,-1 -0.82813,-1.5 -0.59375,-0.5 -1.42187,-0.5 -1.26563,0 -2.0625,0.90625 -0.78125,0.90625 -0.78125,2.85937 0,1.98437 0.76562,2.89062 0.76563,0.89063 1.98438,0.89063 0.98437,0 1.64062,-0.59375 0.65625,-0.60938 0.84375,-1.85938 z m 2.90625,3.60938 0,-13.59375 1.67188,0 0,7.75 3.95312,-4.01562 2.15625,0 -3.76562,3.65625 4.14062,6.20312 -2.0625,0 -3.25,-5.03125 -1.17187,1.125 0,3.90625 -1.67188,0 z m 18.15204,-1.5 0.23438,1.48437 q -0.70313,0.14063 -1.26563,0.14063 -0.90625,0 -1.40625,-0.28125 -0.5,-0.29688 -0.70312,-0.75 -0.20313,-0.46875 -0.20313,-1.98438 l 0,-5.65624 -1.23437,0 0,-1.3125 1.23437,0 0,-2.4375 1.65625,-1 0,3.4375 1.6875,0 0,1.3125 -1.6875,0 0,5.74999 q 0,0.71875 0.0781,0.92188 0.0937,0.20312 0.29687,0.32812 0.20313,0.125 0.57813,0.125 0.26562,0 0.73437,-0.0781 z m 0.9021,-3.42188 q 0,-2.73437 1.53125,-4.06249 1.26563,-1.09375 3.09375,-1.09375 2.03125,0 3.3125,1.34375 1.29688,1.32812 1.29688,3.67187 0,1.90625 -0.57813,3 -0.5625,1.07812 -1.65625,1.6875 -1.07812,0.59375 -2.375,0.59375 -2.0625,0 -3.34375,-1.32813 -1.28125,-1.32812 -1.28125,-3.8125 z m 1.71875,0 q 0,1.89063 0.82813,2.82813 0.82812,0.9375 2.07812,0.9375 1.25,0 2.0625,-0.9375 0.82813,-0.95313 0.82813,-2.89063 0,-1.82812 -0.82813,-2.76562 -0.82812,-0.9375 -2.0625,-0.9375 -1.25,0 -2.07812,0.9375 -0.82813,0.9375 -0.82813,2.82812 z m 14.77777,4.92188 0,-13.59375 9.17188,0 0,1.59375 -7.375,0 0,4.21875 6.375,0 0,1.60938 -6.375,0 0,6.17187 -1.79688,0 z m 11.06781,0 0,-9.85937 1.5,0 0,1.5 q 0.57813,-1.04688 1.0625,-1.375 0.48438,-0.34375 1.07813,-0.34375 0.84375,0 1.71875,0.54687 l -0.57813,1.54688 q -0.60937,-0.35938 -1.23437,-0.35938 -0.54688,0 -0.98438,0.32813 -0.42187,0.32812 -0.60937,0.90625 -0.28125,0.89062 -0.28125,1.95312 l 0,5.15625 -1.67188,0 z m 5.60333,-4.92188 q 0,-2.73437 1.53125,-4.06249 1.26563,-1.09375 3.09375,-1.09375 2.03125,0 3.3125,1.34375 1.29688,1.32812 1.29688,3.67187 0,1.90625 -0.57813,3 -0.5625,1.07812 -1.65625,1.6875 -1.07812,0.59375 -2.375,0.59375 -2.0625,0 -3.34375,-1.32813 -1.28125,-1.32812 -1.28125,-3.8125 z m 1.71875,0 q 0,1.89063 0.82813,2.82813 0.82812,0.9375 2.07812,0.9375 1.25,0 2.0625,-0.9375 0.82813,-0.95313 0.82813,-2.89063 0,-1.82812 -0.82813,-2.76562 -0.82812,-0.9375 -2.0625,-0.9375 -1.25,0 -2.07812,0.9375 -0.82813,0.9375 -0.82813,2.82812 z m 9.28199,4.92188 0,-9.85937 1.5,0 0,1.40625 q 1.09375,-1.625 3.14062,-1.625 0.89063,0 1.64063,0.32812 0.75,0.3125 1.10937,0.84375 0.375,0.51563 0.53125,1.21875 0.0937,0.46875 0.0937,1.625 l 0,6.0625 -1.67187,0 0,-6 q 0,-1.01562 -0.20313,-1.51562 -0.1875,-0.51563 -0.6875,-0.8125 -0.5,-0.29688 -1.17187,-0.29688 -1.0625,0 -1.84375,0.67188 -0.76563,0.67187 -0.76563,2.57812 l 0,5.375 -1.67187,0 z m 14.03192,-1.5 0.23437,1.48437 q -0.70312,0.14063 -1.26562,0.14063 -0.90625,0 -1.40625,-0.28125 -0.5,-0.29688 -0.70313,-0.75 -0.20312,-0.46875 -0.20312,-1.98438 l 0,-5.65624 -1.23438,0 0,-1.3125 1.23438,0 0,-2.4375 1.65625,-1 0,3.4375 1.6875,0 0,1.3125 -1.6875,0 0,5.74999 q 0,0.71875 0.0781,0.92188 0.0937,0.20312 0.29688,0.32812 0.20312,0.125 0.57812,0.125 0.26563,0 0.73438,-0.0781 z"
     id="path5905"
     inkscape:connector-curvature="0"
     style="fill:#000000;fill-rule:nonzero" />
</svg>
