<?xml version="1.0" encoding="UTF-8" standalone="no"?>
<svg
   xmlns:dc="http://purl.org/dc/elements/1.1/"
   xmlns:cc="http://creativecommons.org/ns#"
   xmlns:rdf="http://www.w3.org/1999/02/22-rdf-syntax-ns#"
   xmlns:svg="http://www.w3.org/2000/svg"
   xmlns="http://www.w3.org/2000/svg"
   xmlns:sodipodi="http://sodipodi.sourceforge.net/DTD/sodipodi-0.dtd"
   xmlns:inkscape="http://www.inkscape.org/namespaces/inkscape"
   version="1.1"
   viewBox="0 0 469.40156 146.00001"
   stroke-miterlimit="10"
   clip-path="url(#p.0)"
   id="svg3312"
   inkscape:version="0.48.2 r9819"
   width="100%"
   height="100%"
   sodipodi:docname="relative-cost-of-operations.svg"
   style="fill:none;stroke:none">
  <metadata
     id="metadata3349">
    <rdf:RDF>
      <cc:Work
         rdf:about="">
        <dc:format>image/svg+xml</dc:format>
        <dc:type
           rdf:resource="http://purl.org/dc/dcmitype/StillImage" />
      </cc:Work>
    </rdf:RDF>
  </metadata>
  <defs
     id="defs3347" />
  <sodipodi:namedview
     pagecolor="#ffffff"
     bordercolor="#666666"
     borderopacity="1"
     objecttolerance="10"
     gridtolerance="10"
     guidetolerance="10"
     inkscape:pageopacity="0"
     inkscape:pageshadow="2"
     inkscape:window-width="985"
     inkscape:window-height="927"
     id="namedview3345"
     showgrid="false"
     fit-margin-top="0"
     fit-margin-left="0"
     fit-margin-right="0"
     fit-margin-bottom="0"
     inkscape:zoom="0.83958333"
     inkscape:cx="470.78215"
     inkscape:cy="-204.09186"
     inkscape:window-x="0"
     inkscape:window-y="0"
     inkscape:window-maximized="0"
     inkscape:current-layer="svg3312" />
  <clipPath
     id="p.0">
    <path
       d="M 0,0 960,0 960,720 0,720 0,0 z"
       clip-rule="nonzero"
       id="path3315"
       inkscape:connector-curvature="0" />
  </clipPath>
  <path
     d="m 1,1 467.2756,0 0,48 L 1,49 z"
     id="path3317"
     inkscape:connector-curvature="0"
     style="fill:#dd7e6b;fill-rule:nonzero;stroke:#000000;stroke-width:2;stroke-linecap:butt;stroke-linejoin:round" />
  <path
     d="m 126.28511,31.164064 0,-13.593752 9.17187,0 0,1.59375 -7.375,0 0,4.218752 6.375,0 0,1.609375 -6.375,0 0,6.171875 -1.79687,0 z m 11.06786,0 0,-9.859377 1.5,0 0,1.500002 q 0.57812,-1.046877 1.0625,-1.375002 0.48437,-0.34375 1.07812,-0.34375 0.84375,0 1.71875,0.546875 l -0.57812,1.546877 q -0.60938,-0.359375 -1.23438,-0.359375 -0.54687,0 -0.98437,0.328125 -0.42188,0.328125 -0.60938,0.90625 -0.28125,0.890625 -0.28125,1.953125 l 0,5.15625 -1.67187,0 z m 12.6658,-1.21875 q -0.9375,0.796875 -1.79688,1.125 -0.85937,0.3125 -1.84375,0.3125 -1.60937,0 -2.48437,-0.78125 -0.875,-0.796875 -0.875,-2.03125 0,-0.734375 0.32812,-1.328125 0.32813,-0.59375 0.85938,-0.953125 0.53125,-0.359375 1.20312,-0.546875 0.5,-0.140625 1.48438,-0.25 2.03125,-0.25 2.98437,-0.578125 0,-0.34375 0,-0.4375 0,-1.015625 -0.46875,-1.4375 -0.64062,-0.5625 -1.90625,-0.5625 -1.17187,0 -1.73437,0.40625 -0.5625,0.40625 -0.82813,1.46875 l -1.64062,-0.234375 q 0.23437,-1.046875 0.73437,-1.6875 0.51563,-0.640627 1.46875,-0.984377 0.96875,-0.359375 2.25,-0.359375 1.26563,0 2.04688,0.296875 0.78125,0.296875 1.15625,0.750002 0.375,0.453125 0.51562,1.140625 0.0937,0.421875 0.0937,1.53125 l 0,2.234375 q 0,2.328125 0.0937,2.953125 0.10938,0.609375 0.4375,1.171875 l -1.75,0 q -0.26562,-0.515625 -0.32812,-1.21875 z m -0.14063,-3.71875 q -0.90625,0.359375 -2.73437,0.625 -1.03125,0.140625 -1.45313,0.328125 -0.42187,0.1875 -0.65625,0.546875 -0.23437,0.359375 -0.23437,0.796875 0,0.671875 0.5,1.125 0.51562,0.4375 1.48437,0.4375 0.96875,0 1.71875,-0.421875 0.75,-0.4375 1.10938,-1.15625 0.26562,-0.578125 0.26562,-1.671875 l 0,-0.609375 z m 4.07885,4.9375 0,-9.859377 1.5,0 0,1.390627 q 0.45312,-0.718752 1.21875,-1.156252 0.78125,-0.453125 1.76562,-0.453125 1.09375,0 1.79688,0.453125 0.70312,0.453125 0.98437,1.281252 1.17188,-1.734377 3.04688,-1.734377 1.46875,0 2.25,0.8125 0.79687,0.812502 0.79687,2.500002 l 0,6.765625 -1.67187,0 0,-6.203125 q 0,-1 -0.15625,-1.4375 -0.15625,-0.453125 -0.59375,-0.71875 -0.42188,-0.265625 -1,-0.265625 -1.03125,0 -1.71875,0.6875 -0.6875,0.6875 -0.6875,2.21875 l 0,5.71875 -1.67188,0 0,-6.40625 q 0,-1.109375 -0.40625,-1.65625 -0.40625,-0.5625 -1.34375,-0.5625 -0.70312,0 -1.3125,0.375 -0.59375,0.359375 -0.85937,1.078125 -0.26563,0.71875 -0.26563,2.0625 l 0,5.109375 -1.67187,0 z m 22.2908,-3.171875 1.71875,0.21875 q -0.40625,1.5 -1.51563,2.34375 -1.09375,0.828125 -2.8125,0.828125 -2.15625,0 -3.42187,-1.328125 -1.26563,-1.328125 -1.26563,-3.734375 0,-2.484375 1.26563,-3.859375 1.28125,-1.375002 3.32812,-1.375002 1.98438,0 3.23438,1.343752 1.25,1.34375 1.25,3.796875 0,0.140625 -0.0156,0.4375 l -7.34375,0 q 0.0937,1.625 0.92188,2.484375 0.82812,0.859375 2.0625,0.859375 0.90625,0 1.54687,-0.46875 0.65625,-0.484375 1.04688,-1.546875 z m -5.48438,-2.703125 5.5,0 q -0.10937,-1.234375 -0.625,-1.859375 -0.79687,-0.96875 -2.07812,-0.96875 -1.14063,0 -1.9375,0.78125 -0.78125,0.765625 -0.85938,2.046875 z m 10.65697,5.875 -1.54688,0 0,-13.593752 1.65625,0 0,4.843752 q 1.0625,-1.328127 2.70313,-1.328127 0.90625,0 1.71875,0.375 0.8125,0.359375 1.32812,1.031252 0.53125,0.65625 0.82813,1.59375 0.29687,0.9375 0.29687,2 0,2.53125 -1.25,3.921875 -1.25,1.375 -3,1.375 -1.75,0 -2.73437,-1.453125 l 0,1.234375 z m -0.0156,-5 q 0,1.765625 0.46875,2.5625 0.79688,1.28125 2.14063,1.28125 1.09375,0 1.89062,-0.9375 0.79688,-0.953125 0.79688,-2.84375 0,-1.921875 -0.76563,-2.84375 -0.76562,-0.921875 -1.84375,-0.921875 -1.09375,0 -1.89062,0.953125 -0.79688,0.953125 -0.79688,2.75 z m 15.2976,5 0,-1.453125 q -1.14063,1.671875 -3.125,1.671875 -0.85938,0 -1.625,-0.328125 -0.75,-0.34375 -1.125,-0.84375 -0.35938,-0.5 -0.51563,-1.234375 -0.0937,-0.5 -0.0937,-1.5625 l 0,-6.109377 1.67188,0 0,5.468752 q 0,1.3125 0.0937,1.765625 0.15625,0.65625 0.67187,1.03125 0.51563,0.375 1.26563,0.375 0.75,0 1.40625,-0.375 0.65625,-0.390625 0.92187,-1.046875 0.28125,-0.671875 0.28125,-1.9375 l 0,-5.281252 1.67188,0 0,9.859377 -1.5,0 z m 4.32884,0 0,-8.546875 -1.48438,0 0,-1.312502 1.48438,0 0,-1.046875 q 0,-0.984375 0.17187,-1.46875 0.23438,-0.65625 0.84375,-1.046875 0.60938,-0.40625 1.70313,-0.40625 0.70312,0 1.5625,0.15625 l -0.25,1.46875 q -0.51563,-0.09375 -0.98438,-0.09375 -0.76562,0 -1.07812,0.328125 -0.3125,0.3125 -0.3125,1.203125 l 0,0.90625 1.92187,0 0,1.312502 -1.92187,0 0,8.546875 -1.65625,0 z m 5.1833,0 0,-8.546875 -1.48437,0 0,-1.312502 1.48437,0 0,-1.046875 q 0,-0.984375 0.17188,-1.46875 0.23437,-0.65625 0.84375,-1.046875 0.60937,-0.40625 1.70312,-0.40625 0.70313,0 1.5625,0.15625 l -0.25,1.46875 q -0.51562,-0.09375 -0.98437,-0.09375 -0.76563,0 -1.07813,0.328125 -0.3125,0.3125 -0.3125,1.203125 l 0,0.90625 1.92188,0 0,1.312502 -1.92188,0 0,8.546875 -1.65625,0 z m 11.52706,-3.171875 1.71875,0.21875 q -0.40625,1.5 -1.51563,2.34375 -1.09375,0.828125 -2.8125,0.828125 -2.15625,0 -3.42187,-1.328125 -1.26563,-1.328125 -1.26563,-3.734375 0,-2.484375 1.26563,-3.859375 1.28125,-1.375002 3.32812,-1.375002 1.98438,0 3.23438,1.343752 1.25,1.34375 1.25,3.796875 0,0.140625 -0.0156,0.4375 l -7.34375,0 q 0.0937,1.625 0.92188,2.484375 0.82812,0.859375 2.0625,0.859375 0.90625,0 1.54687,-0.46875 0.65625,-0.484375 1.04688,-1.546875 z m -5.48438,-2.703125 5.5,0 q -0.10937,-1.234375 -0.625,-1.859375 -0.79687,-0.96875 -2.07812,-0.96875 -1.14063,0 -1.9375,0.78125 -0.78125,0.765625 -0.85938,2.046875 z m 9.09447,5.875 0,-9.859377 1.5,0 0,1.500002 q 0.57812,-1.046877 1.0625,-1.375002 0.48437,-0.34375 1.07812,-0.34375 0.84375,0 1.71875,0.546875 l -0.57812,1.546877 q -0.60938,-0.359375 -1.23438,-0.359375 -0.54687,0 -0.98437,0.328125 -0.42188,0.328125 -0.60938,0.90625 -0.28125,0.890625 -0.28125,1.953125 l 0,5.15625 -1.67187,0 z m 4.9783,0.234375 3.9375,-14.062502 1.34375,0 -3.9375,14.062502 -1.34375,0 z m 16.35518,-5 1.79687,0.453125 q -0.5625,2.21875 -2.03125,3.390625 -1.46875,1.15625 -3.59375,1.15625 -2.20312,0 -3.57812,-0.890625 -1.375,-0.90625 -2.09375,-2.59375 -0.71875,-1.703125 -0.71875,-3.65625 0,-2.125 0.79687,-3.703127 0.8125,-1.578125 2.3125,-2.390625 1.5,-0.828125 3.29688,-0.828125 2.04687,0 3.4375,1.046875 1.39062,1.03125 1.9375,2.90625 l -1.76563,0.421875 q -0.46875,-1.484375 -1.375,-2.15625 -0.90625,-0.6875 -2.26562,-0.6875 -1.5625,0 -2.625,0.75 -1.04688,0.75 -1.48438,2.03125 -0.42187,1.265627 -0.42187,2.609377 0,1.734375 0.5,3.03125 0.51562,1.28125 1.57812,1.921875 1.07813,0.640625 2.3125,0.640625 1.51563,0 2.5625,-0.859375 1.04688,-0.875 1.42188,-2.59375 z m 2.92607,-0.15625 q 0,-2.734375 1.53125,-4.0625 1.26563,-1.093752 3.09375,-1.093752 2.03125,0 3.3125,1.343752 1.29688,1.328125 1.29688,3.671875 0,1.90625 -0.57813,3 -0.5625,1.078125 -1.65625,1.6875 -1.07812,0.59375 -2.375,0.59375 -2.0625,0 -3.34375,-1.328125 -1.28125,-1.328125 -1.28125,-3.8125 z m 1.71875,0 q 0,1.890625 0.82813,2.828125 0.82812,0.9375 2.07812,0.9375 1.25,0 2.0625,-0.9375 0.82813,-0.953125 0.82813,-2.890625 0,-1.828125 -0.82813,-2.765625 -0.82812,-0.9375 -2.0625,-0.9375 -1.25,0 -2.07812,0.9375 -0.82813,0.9375 -0.82813,2.828125 z m 9.28195,4.921875 0,-9.859377 1.5,0 0,1.406252 q 1.09375,-1.625002 3.14063,-1.625002 0.89062,0 1.64062,0.328125 0.75,0.3125 1.10938,0.843752 0.375,0.515625 0.53125,1.21875 0.0937,0.46875 0.0937,1.625 l 0,6.0625 -1.67188,0 0,-6 q 0,-1.015625 -0.20312,-1.515625 -0.1875,-0.515625 -0.6875,-0.8125 -0.5,-0.296875 -1.17188,-0.296875 -1.0625,0 -1.84375,0.671875 -0.76562,0.671875 -0.76562,2.578125 l 0,5.375 -1.67188,0 z m 14.03195,-1.5 0.23438,1.484375 q -0.70313,0.140625 -1.26563,0.140625 -0.90625,0 -1.40625,-0.28125 -0.5,-0.296875 -0.70312,-0.75 -0.20313,-0.46875 -0.20313,-1.984375 l 0,-5.65625 -1.23437,0 0,-1.312502 1.23437,0 0,-2.4375 1.65625,-1 0,3.4375 1.6875,0 0,1.312502 -1.6875,0 0,5.75 q 0,0.71875 0.0781,0.921875 0.0937,0.203125 0.29687,0.328125 0.20313,0.125 0.57813,0.125 0.26562,0 0.73437,-0.07813 z m 8.27707,-1.671875 1.71875,0.21875 q -0.40625,1.5 -1.51562,2.34375 -1.09375,0.828125 -2.8125,0.828125 -2.15625,0 -3.42188,-1.328125 -1.26562,-1.328125 -1.26562,-3.734375 0,-2.484375 1.26562,-3.859375 1.28125,-1.375002 3.32813,-1.375002 1.98437,0 3.23437,1.343752 1.25,1.34375 1.25,3.796875 0,0.140625 -0.0156,0.4375 l -7.34375,0 q 0.0937,1.625 0.92187,2.484375 0.82813,0.859375 2.0625,0.859375 0.90625,0 1.54688,-0.46875 0.65625,-0.484375 1.04687,-1.546875 z m -5.48437,-2.703125 5.5,0 q -0.10938,-1.234375 -0.625,-1.859375 -0.79688,-0.96875 -2.07813,-0.96875 -1.14062,0 -1.9375,0.78125 -0.78125,0.765625 -0.85937,2.046875 z m 8.0007,5.875 3.59375,-5.125 -3.32812,-4.734377 2.09375,0 1.51562,2.312502 q 0.42188,0.65625 0.67188,1.109375 0.42187,-0.609375 0.76562,-1.09375 l 1.65625,-2.328127 1.98438,0 -3.39063,4.640627 3.65625,5.21875 -2.04687,0 -2.03125,-3.0625 -0.53125,-0.828125 -2.59375,3.890625 -2.01563,0 z m 14.09375,-1.5 0.23438,1.484375 q -0.70313,0.140625 -1.26563,0.140625 -0.90625,0 -1.40625,-0.28125 -0.5,-0.296875 -0.70312,-0.75 -0.20313,-0.46875 -0.20313,-1.984375 l 0,-5.65625 -1.23437,0 0,-1.312502 1.23437,0 0,-2.4375 1.65625,-1 0,3.4375 1.6875,0 0,1.312502 -1.6875,0 0,5.75 q 0,0.71875 0.0781,0.921875 0.0937,0.203125 0.29687,0.328125 0.20313,0.125 0.57813,0.125 0.26562,0 0.73437,-0.07813 z m 6.31976,-2.875 1.6875,-0.140625 q 0.125,1.015625 0.5625,1.671875 0.4375,0.65625 1.35938,1.0625 0.9375,0.40625 2.09375,0.40625 1.03125,0 1.8125,-0.3125 0.79687,-0.3125 1.1875,-0.84375 0.39062,-0.53125 0.39062,-1.15625 0,-0.640625 -0.375,-1.109375 -0.375,-0.484375 -1.23437,-0.8125 -0.54688,-0.21875 -2.42188,-0.65625 -1.875,-0.453125 -2.625,-0.859375 -0.96875,-0.515625 -1.45312,-1.265625 -0.46875,-0.750002 -0.46875,-1.687502 0,-1.03125 0.57812,-1.921875 0.59375,-0.90625 1.70313,-1.359375 1.125,-0.46875 2.5,-0.46875 1.51562,0 2.67187,0.484375 1.15625,0.484375 1.76563,1.4375 0.625,0.9375 0.67187,2.140625 l -1.71875,0.125 q -0.14062,-1.28125 -0.95312,-1.9375 -0.79688,-0.671875 -2.35938,-0.671875 -1.625,0 -2.375,0.609375 -0.75,0.59375 -0.75,1.4375 0,0.734375 0.53125,1.203127 0.51563,0.46875 2.70313,0.96875 2.20312,0.5 3.01562,0.875 1.1875,0.546875 1.75,1.390625 0.57813,0.828125 0.57813,1.921875 0,1.09375 -0.625,2.0625 -0.625,0.953125 -1.79688,1.484375 -1.15625,0.53125 -2.60937,0.53125 -1.84375,0 -3.09375,-0.53125 -1.25,-0.546875 -1.96875,-1.625 -0.70316,-1.078125 -0.73441,-2.453125 z m 16.49042,2.875 0.23438,1.484375 q -0.70313,0.140625 -1.26563,0.140625 -0.90625,0 -1.40625,-0.28125 -0.5,-0.296875 -0.70312,-0.75 -0.20313,-0.46875 -0.20313,-1.984375 l 0,-5.65625 -1.23437,0 0,-1.312502 1.23437,0 0,-2.4375 1.65625,-1 0,3.4375 1.6875,0 0,1.312502 -1.6875,0 0,5.75 q 0,0.71875 0.0781,0.921875 0.0937,0.203125 0.29687,0.328125 0.20313,0.125 0.57813,0.125 0.26562,0 0.73437,-0.07813 z m 7.96457,0.28125 q -0.9375,0.796875 -1.79688,1.125 -0.85937,0.3125 -1.84375,0.3125 -1.60937,0 -2.48437,-0.78125 -0.875,-0.796875 -0.875,-2.03125 0,-0.734375 0.32812,-1.328125 0.32813,-0.59375 0.85938,-0.953125 0.53125,-0.359375 1.20312,-0.546875 0.5,-0.140625 1.48438,-0.25 2.03125,-0.25 2.98437,-0.578125 0,-0.34375 0,-0.4375 0,-1.015625 -0.46875,-1.4375 -0.64062,-0.5625 -1.90625,-0.5625 -1.17187,0 -1.73437,0.40625 -0.5625,0.40625 -0.82813,1.46875 l -1.64062,-0.234375 q 0.23437,-1.046875 0.73437,-1.6875 0.51563,-0.640627 1.46875,-0.984377 0.96875,-0.359375 2.25,-0.359375 1.26563,0 2.04688,0.296875 0.78125,0.296875 1.15625,0.750002 0.375,0.453125 0.51562,1.140625 0.0937,0.421875 0.0937,1.53125 l 0,2.234375 q 0,2.328125 0.0937,2.953125 0.10938,0.609375 0.4375,1.171875 l -1.75,0 q -0.26562,-0.515625 -0.32812,-1.21875 z m -0.14063,-3.71875 q -0.90625,0.359375 -2.73437,0.625 -1.03125,0.140625 -1.45313,0.328125 -0.42187,0.1875 -0.65625,0.546875 -0.23437,0.359375 -0.23437,0.796875 0,0.671875 0.5,1.125 0.51562,0.4375 1.48437,0.4375 0.96875,0 1.71875,-0.421875 0.75,-0.4375 1.10938,-1.15625 0.26562,-0.578125 0.26562,-1.671875 l 0,-0.609375 z m 7.73508,3.4375 0.23438,1.484375 q -0.70313,0.140625 -1.26563,0.140625 -0.90625,0 -1.40625,-0.28125 -0.5,-0.296875 -0.70312,-0.75 -0.20313,-0.46875 -0.20313,-1.984375 l 0,-5.65625 -1.23437,0 0,-1.312502 1.23437,0 0,-2.4375 1.65625,-1 0,3.4375 1.6875,0 0,1.312502 -1.6875,0 0,5.75 q 0,0.71875 0.0781,0.921875 0.0937,0.203125 0.29687,0.328125 0.20313,0.125 0.57813,0.125 0.26562,0 0.73437,-0.07813 z m 8.27707,-1.671875 1.71875,0.21875 q -0.40625,1.5 -1.51562,2.34375 -1.09375,0.828125 -2.8125,0.828125 -2.15625,0 -3.42188,-1.328125 -1.26562,-1.328125 -1.26562,-3.734375 0,-2.484375 1.26562,-3.859375 1.28125,-1.375002 3.32813,-1.375002 1.98437,0 3.23437,1.343752 1.25,1.34375 1.25,3.796875 0,0.140625 -0.0156,0.4375 l -7.34375,0 q 0.0937,1.625 0.92187,2.484375 0.82813,0.859375 2.0625,0.859375 0.90625,0 1.54688,-0.46875 0.65625,-0.484375 1.04687,-1.546875 z m -5.48437,-2.703125 5.5,0 q -0.10938,-1.234375 -0.625,-1.859375 -0.79688,-0.96875 -2.07813,-0.96875 -1.14062,0 -1.9375,0.78125 -0.78125,0.765625 -0.85937,2.046875 z"
     id="path3319"
     inkscape:connector-curvature="0"
     style="fill:#000000;fill-rule:nonzero" />
  <path
     d="m 1,49.000004 233.38582,0 0,48 -233.38582,0 z"
     id="path3321"
     inkscape:connector-curvature="0"
     style="fill:#ffe599;fill-rule:nonzero;stroke:#000000;stroke-width:2;stroke-linecap:butt;stroke-linejoin:round" />
  <path
     d="m 46.586302,79.164064 0,-13.59375 5.125,0 q 1.359375,0 2.078125,0.125 1.000004,0.171875 1.671879,0.640625 0.671875,0.46875 1.078125,1.3125 0.421875,0.84375 0.421875,1.84375 0,1.734375 -1.109375,2.9375 -1.093754,1.203125 -3.984379,1.203125 l -3.484375,0 0,5.53125 -1.796875,0 z m 1.796875,-7.140625 3.515625,0 q 1.75,0 2.46875,-0.640625 0.734379,-0.65625 0.734379,-1.828125 0,-0.859375 -0.437504,-1.46875 -0.421875,-0.609375 -1.125,-0.796875 -0.453125,-0.125 -1.671875,-0.125 l -3.484375,0 0,4.859375 z m 10.412327,7.140625 0,-9.859375 1.5,0 0,1.5 q 0.578125,-1.046875 1.0625,-1.375 0.484375,-0.34375 1.078125,-0.34375 0.84375,0 1.71875,0.546875 l -0.578125,1.546875 q -0.609375,-0.359375 -1.234375,-0.359375 -0.546875,0 -0.984375,0.328125 -0.421875,0.328125 -0.609375,0.90625 -0.28125,0.890625 -0.28125,1.953125 l 0,5.15625 -1.671875,0 z m 5.603302,-4.921875 q 0,-2.734375 1.53125,-4.0625 1.265625,-1.09375 3.09375,-1.09375 2.03125,0 3.3125,1.34375 1.296875,1.328125 1.296875,3.671875 0,1.90625 -0.578125,3 -0.5625,1.078125 -1.65625,1.6875 -1.078125,0.59375 -2.375,0.59375 -2.0625,0 -3.34375,-1.328125 -1.28125,-1.328125 -1.28125,-3.8125 z m 1.71875,0 q 0,1.890625 0.828125,2.828125 0.828125,0.9375 2.078125,0.9375 1.25,0 2.0625,-0.9375 0.828125,-0.953125 0.828125,-2.890625 0,-1.828125 -0.828125,-2.765625 -0.828125,-0.9375 -2.0625,-0.9375 -1.25,0 -2.078125,0.9375 -0.828125,0.9375 -0.828125,2.828125 z m 8.985092,5.734375 1.609375,0.25 q 0.109375,0.75 0.578125,1.09375 0.609375,0.453125 1.6875,0.453125 1.171875,0 1.796875,-0.46875 0.625,-0.453125 0.859375,-1.28125 0.125,-0.515625 0.109375,-2.15625 -1.09375,1.296875 -2.71875,1.296875 -2.03125,0 -3.15625,-1.46875 -1.109375,-1.46875 -1.109375,-3.515625 0,-1.40625 0.515625,-2.59375 0.515625,-1.203125 1.484375,-1.84375 0.96875,-0.65625 2.265625,-0.65625 1.75,0 2.875,1.40625 l 0,-1.1875 1.546875,0 0,8.515625 q 0,2.3125 -0.46875,3.265625 -0.46875,0.96875 -1.484375,1.515625 -1.015625,0.5625 -2.5,0.5625 -1.765625,0 -2.859375,-0.796875 -1.078125,-0.796875 -1.03125,-2.390625 z m 1.375,-5.921875 q 0,1.953125 0.765625,2.84375 0.78125,0.890625 1.9375,0.890625 1.140625,0 1.921875,-0.890625 0.78125,-0.890625 0.78125,-2.78125 0,-1.8125 -0.8125,-2.71875 -0.796875,-0.921875 -1.921875,-0.921875 -1.109375,0 -1.890625,0.90625 -0.78125,0.890625 -0.78125,2.671875 z m 9.281967,5.109375 0,-9.859375 1.5,0 0,1.5 q 0.578125,-1.046875 1.0625,-1.375 0.484375,-0.34375 1.078125,-0.34375 0.84375,0 1.718752,0.546875 l -0.578127,1.546875 q -0.609375,-0.359375 -1.234375,-0.359375 -0.546875,0 -0.984375,0.328125 -0.421875,0.328125 -0.609375,0.90625 -0.28125,0.890625 -0.28125,1.953125 l 0,5.15625 -1.671875,0 z m 12.665797,-1.21875 q -0.9375,0.796875 -1.79687,1.125 -0.85938,0.3125 -1.84375,0.3125 -1.60938,0 -2.48438,-0.78125 -0.875,-0.796875 -0.875,-2.03125 0,-0.734375 0.32813,-1.328125 0.32812,-0.59375 0.85937,-0.953125 0.53125,-0.359375 1.20313,-0.546875 0.5,-0.140625 1.48437,-0.25 2.03125,-0.25 2.98438,-0.578125 0,-0.34375 0,-0.4375 0,-1.015625 -0.46875,-1.4375 -0.64063,-0.5625 -1.90625,-0.5625 -1.17188,0 -1.73438,0.40625 -0.5625,0.40625 -0.82812,1.46875 l -1.64063,-0.234375 q 0.23438,-1.046875 0.73438,-1.6875 0.51562,-0.640625 1.46875,-0.984375 0.96875,-0.359375 2.25,-0.359375 1.26562,0 2.04687,0.296875 0.78125,0.296875 1.15625,0.75 0.375,0.453125 0.51563,1.140625 0.0937,0.421875 0.0937,1.53125 l 0,2.234375 q 0,2.328125 0.0937,2.953125 0.10937,0.609375 0.4375,1.171875 l -1.749998,0 q -0.26563,-0.515625 -0.32813,-1.21875 z m -0.14062,-3.71875 q -0.90625,0.359375 -2.73438,0.625 -1.03125,0.140625 -1.45312,0.328125 -0.42188,0.1875 -0.65625,0.546875 -0.23438,0.359375 -0.23438,0.796875 0,0.671875 0.5,1.125 0.51563,0.4375 1.48438,0.4375 0.96875,0 1.71875,-0.421875 0.75,-0.4375 1.10937,-1.15625 0.26563,-0.578125 0.26563,-1.671875 l 0,-0.609375 z m 4.078838,4.9375 0,-9.859375 1.5,0 0,1.390625 q 0.45313,-0.71875 1.21875,-1.15625 0.78125,-0.453125 1.76563,-0.453125 1.09375,0 1.79687,0.453125 0.70313,0.453125 0.98438,1.28125 1.17187,-1.734375 3.04687,-1.734375 1.46875,0 2.25,0.8125 0.79688,0.8125 0.79688,2.5 l 0,6.765625 -1.67188,0 0,-6.203125 q 0,-1 -0.15625,-1.4375 -0.15625,-0.453125 -0.59375,-0.71875 -0.42187,-0.265625 -1,-0.265625 -1.03125,0 -1.71875,0.6875 -0.6875,0.6875 -0.6875,2.21875 l 0,5.71875 -1.67187,0 0,-6.40625 q 0,-1.109375 -0.40625,-1.65625 -0.40625,-0.5625 -1.34375,-0.5625 -0.70313,0 -1.3125,0.375 -0.59375,0.359375 -0.85938,1.078125 -0.26562,0.71875 -0.26562,2.0625 l 0,5.109375 -1.67188,0 z m 14.86893,-2.9375 1.65625,-0.265625 q 0.14062,1 0.76562,1.53125 0.64063,0.515625 1.78125,0.515625 1.15625,0 1.70313,-0.46875 0.5625,-0.46875 0.5625,-1.09375 0,-0.5625 -0.48438,-0.890625 -0.34375,-0.21875 -1.70312,-0.5625 -1.84375,-0.46875 -2.5625,-0.796875 -0.70313,-0.34375 -1.07813,-0.9375 -0.35937,-0.609375 -0.35937,-1.328125 0,-0.65625 0.29687,-1.21875 0.3125,-0.5625 0.82813,-0.9375 0.39062,-0.28125 1.0625,-0.484375 0.67187,-0.203125 1.4375,-0.203125 1.17187,0 2.04687,0.34375 0.875,0.328125 1.28125,0.90625 0.42188,0.5625 0.57813,1.515625 l -1.625,0.21875 q -0.10938,-0.75 -0.65625,-1.171875 -0.53125,-0.4375 -1.5,-0.4375 -1.15625,0 -1.64063,0.390625 -0.48437,0.375 -0.48437,0.875 0,0.328125 0.20312,0.59375 0.20313,0.265625 0.64063,0.4375 0.25,0.09375 1.46875,0.4375 1.76562,0.46875 2.46875,0.765625 0.70312,0.296875 1.09375,0.875 0.40625,0.578125 0.40625,1.4375 0,0.828125 -0.48438,1.578125 -0.48437,0.734375 -1.40625,1.140625 -0.92187,0.390625 -2.07812,0.390625 -1.92188,0 -2.9375,-0.796875 -1,-0.796875 -1.28125,-2.359375 z m 8.75,3.171875 3.9375,-14.0625 1.34375,0 -3.9375,14.0625 -1.34375,0 z m 6.57393,-0.234375 0,-13.59375 5.10937,0 q 1.54688,0 2.48438,0.40625 0.95312,0.40625 1.48437,1.265625 0.53125,0.859375 0.53125,1.796875 0,0.875 -0.46875,1.65625 -0.46875,0.765625 -1.4375,1.234375 1.23438,0.359375 1.89063,1.234375 0.67187,0.875 0.67187,2.0625 0,0.953125 -0.40625,1.78125 -0.39062,0.8125 -0.98437,1.265625 -0.59375,0.4375 -1.5,0.671875 -0.89063,0.21875 -2.1875,0.21875 l -5.1875,0 z m 1.79687,-7.890625 2.9375,0 q 1.20313,0 1.71875,-0.15625 0.6875,-0.203125 1.03125,-0.671875 0.35938,-0.46875 0.35938,-1.1875 0,-0.671875 -0.32813,-1.1875 -0.32812,-0.515625 -0.9375,-0.703125 -0.59375,-0.203125 -2.0625,-0.203125 l -2.71875,0 0,4.109375 z m 0,6.28125 3.39063,0 q 0.875,0 1.21875,-0.0625 0.625,-0.109375 1.04687,-0.359375 0.42188,-0.265625 0.6875,-0.765625 0.26563,-0.5 0.26563,-1.140625 0,-0.765625 -0.39063,-1.328125 -0.39062,-0.5625 -1.07812,-0.78125 -0.6875,-0.234375 -1.98438,-0.234375 l -3.15625,0 0,4.671875 z m 16.9592,1.609375 0,-1.453125 q -1.14062,1.671875 -3.125,1.671875 -0.85937,0 -1.625,-0.328125 -0.75,-0.34375 -1.125,-0.84375 -0.35937,-0.5 -0.51562,-1.234375 -0.0937,-0.5 -0.0937,-1.5625 l 0,-6.109375 1.67187,0 0,5.46875 q 0,1.3125 0.0937,1.765625 0.15625,0.65625 0.67188,1.03125 0.51562,0.375 1.26562,0.375 0.75,0 1.40625,-0.375 0.65625,-0.390625 0.92188,-1.046875 0.28125,-0.671875 0.28125,-1.9375 l 0,-5.28125 1.67187,0 0,9.859375 -1.5,0 z m 4.32884,0 0,-8.546875 -1.48437,0 0,-1.3125 1.48437,0 0,-1.046875 q 0,-0.984375 0.17188,-1.46875 0.23437,-0.65625 0.84375,-1.046875 0.60937,-0.40625 1.70312,-0.40625 0.70313,0 1.5625,0.15625 l -0.25,1.46875 q -0.51562,-0.09375 -0.98437,-0.09375 -0.76563,0 -1.07813,0.328125 -0.3125,0.3125 -0.3125,1.203125 l 0,0.90625 1.92188,0 0,1.3125 -1.92188,0 0,8.546875 -1.65625,0 z m 5.18331,0 0,-8.546875 -1.48438,0 0,-1.3125 1.48438,0 0,-1.046875 q 0,-0.984375 0.17187,-1.46875 0.23438,-0.65625 0.84375,-1.046875 0.60938,-0.40625 1.70313,-0.40625 0.70312,0 1.5625,0.15625 l -0.25,1.46875 q -0.51563,-0.09375 -0.98438,-0.09375 -0.76562,0 -1.07812,0.328125 -0.3125,0.3125 -0.3125,1.203125 l 0,0.90625 1.92187,0 0,1.3125 -1.92187,0 0,8.546875 -1.65625,0 z m 11.52705,-3.171875 1.71875,0.21875 q -0.40625,1.5 -1.51562,2.34375 -1.09375,0.828125 -2.8125,0.828125 -2.15625,0 -3.42188,-1.328125 -1.26562,-1.328125 -1.26562,-3.734375 0,-2.484375 1.26562,-3.859375 1.28125,-1.375 3.32813,-1.375 1.98437,0 3.23437,1.34375 1.25,1.34375 1.25,3.796875 0,0.140625 -0.0156,0.4375 l -7.34375,0 q 0.0937,1.625 0.92187,2.484375 0.82813,0.859375 2.0625,0.859375 0.90625,0 1.54688,-0.46875 0.65625,-0.484375 1.04687,-1.546875 z m -5.48437,-2.703125 5.5,0 q -0.10938,-1.234375 -0.625,-1.859375 -0.79688,-0.96875 -2.07813,-0.96875 -1.14062,0 -1.9375,0.78125 -0.78125,0.765625 -0.85937,2.046875 z m 9.09446,5.875 0,-9.859375 1.5,0 0,1.5 q 0.57813,-1.046875 1.0625,-1.375 0.48438,-0.34375 1.07813,-0.34375 0.84375,0 1.71875,0.546875 l -0.57813,1.546875 q -0.60937,-0.359375 -1.23437,-0.359375 -0.54688,0 -0.98438,0.328125 -0.42187,0.328125 -0.60937,0.90625 -0.28125,0.890625 -0.28125,1.953125 l 0,5.15625 -1.67188,0 z m 5.55643,-2.9375 1.65625,-0.265625 q 0.14062,1 0.76562,1.53125 0.64063,0.515625 1.78125,0.515625 1.15625,0 1.70313,-0.46875 0.5625,-0.46875 0.5625,-1.09375 0,-0.5625 -0.48438,-0.890625 -0.34375,-0.21875 -1.70312,-0.5625 -1.84375,-0.46875 -2.5625,-0.796875 -0.70313,-0.34375 -1.07813,-0.9375 -0.35937,-0.609375 -0.35937,-1.328125 0,-0.65625 0.29687,-1.21875 0.3125,-0.5625 0.82813,-0.9375 0.39062,-0.28125 1.0625,-0.484375 0.67187,-0.203125 1.4375,-0.203125 1.17187,0 2.04687,0.34375 0.875,0.328125 1.28125,0.90625 0.42188,0.5625 0.57813,1.515625 l -1.625,0.21875 q -0.10938,-0.75 -0.65625,-1.171875 -0.53125,-0.4375 -1.5,-0.4375 -1.15625,0 -1.64063,0.390625 -0.48437,0.375 -0.48437,0.875 0,0.328125 0.20312,0.59375 0.20313,0.265625 0.64063,0.4375 0.25,0.09375 1.46875,0.4375 1.76562,0.46875 2.46875,0.765625 0.70312,0.296875 1.09375,0.875 0.40625,0.578125 0.40625,1.4375 0,0.828125 -0.48438,1.578125 -0.48437,0.734375 -1.40625,1.140625 -0.92187,0.390625 -2.07812,0.390625 -1.92188,0 -2.9375,-0.796875 -1,-0.796875 -1.28125,-2.359375 z"
     id="path3323"
     inkscape:connector-curvature="0"
     style="fill:#000000;fill-rule:nonzero" />
  <path
     d="m 1,96.999994 116.85039,0 0,48.000006 L 1,145 z"
     id="path3325"
     inkscape:connector-curvature="0"
     style="fill:#93c47d;fill-rule:nonzero;stroke:#000000;stroke-width:2;stroke-linecap:butt;stroke-linejoin:round" />
  <path
     d="m 32.498766,113.57031 1.796875,0 0,7.84376 q 0,2.0625 -0.46875,3.26562 -0.453125,1.20313 -1.671875,1.96875 -1.203125,0.75 -3.171875,0.75 -1.90625,0 -3.125,-0.65625 -1.21875,-0.65625 -1.734375,-1.90625 -0.515625,-1.25 -0.515625,-3.42187 l 0,-7.84376 1.796875,0 0,7.84376 q 0,1.76562 0.328125,2.60937 0.328125,0.84375 1.125,1.29688 0.8125,0.45312 1.96875,0.45312 1.984375,0 2.828125,-0.89062 0.84375,-0.90625 0.84375,-3.46875 l 0,-7.84376 z m 4.332321,13.59376 0,-9.85939 1.5,0 0,1.40626 q 1.09375,-1.62501 3.140625,-1.62501 0.890625,0 1.640625,0.32813 0.75,0.3125 1.109375,0.84376 0.375,0.51562 0.53125,1.21875 0.09375,0.46875 0.09375,1.625 l 0,6.0625 -1.671875,0 0,-6 q 0,-1.01563 -0.203125,-1.51563 -0.1875,-0.51562 -0.6875,-0.8125 -0.5,-0.29687 -1.171875,-0.29687 -1.0625,0 -1.84375,0.67187 -0.765625,0.67188 -0.765625,2.57813 l 0,5.375 -1.671875,0 z m 10.391342,-11.68751 0,-1.90625 1.671875,0 0,1.90625 -1.671875,0 z m 0,11.68751 0,-9.85939 1.671875,0 0,9.85939 -1.671875,0 z m 4.535446,0 0,-8.54688 -1.484375,0 0,-1.3125 1.484375,0 0,-1.04688 q 0,-0.98437 0.171875,-1.46875 0.234375,-0.65625 0.84375,-1.04687 0.609375,-0.40625 1.703125,-0.40625 0.703125,0 1.5625,0.15625 l -0.25,1.46875 q -0.515625,-0.0937 -0.984375,-0.0937 -0.765625,0 -1.078125,0.32812 -0.3125,0.3125 -0.3125,1.20313 l 0,0.90625 1.921875,0 0,1.3125 -1.921875,0 0,8.54688 -1.65625,0 z m 4.152054,-4.92188 q 0,-2.73437 1.53125,-4.0625 1.265625,-1.09375 3.09375,-1.09375 2.03125,0 3.3125,1.34375 1.296875,1.32813 1.296875,3.67188 0,1.90625 -0.578125,3 -0.5625,1.07812 -1.65625,1.6875 -1.078125,0.59375 -2.375,0.59375 -2.0625,0 -3.34375,-1.32813 -1.28125,-1.32812 -1.28125,-3.8125 z m 1.71875,0 q 0,1.89063 0.828125,2.82813 0.828125,0.9375 2.078125,0.9375 1.25,0 2.0625,-0.9375 0.828125,-0.95313 0.828125,-2.89063 0,-1.82812 -0.828125,-2.76562 -0.828125,-0.9375 -2.0625,-0.9375 -1.25,0 -2.078125,0.9375 -0.828125,0.9375 -0.828125,2.82812 z m 9.266342,4.92188 0,-9.85939 1.5,0 0,1.50001 q 0.578125,-1.04688 1.0625,-1.37501 0.484375,-0.34375 1.078125,-0.34375 0.84375,0 1.71875,0.54688 l -0.578125,1.54688 q -0.609375,-0.35937 -1.234375,-0.35937 -0.546875,0 -0.984375,0.32812 -0.421875,0.32813 -0.609375,0.90625 -0.28125,0.89063 -0.28125,1.95313 l 0,5.15625 -1.671875,0 z m 6.228302,0 0,-9.85939 1.5,0 0,1.39064 q 0.453125,-0.71876 1.21875,-1.15626 0.78125,-0.45313 1.765625,-0.45313 1.09375,0 1.796875,0.45313 0.703125,0.45312 0.984375,1.28126 1.171875,-1.73439 3.046875,-1.73439 1.46875,0 2.25,0.8125 0.796875,0.81251 0.796875,2.50001 l 0,6.76563 -1.671875,0 0,-6.20313 q 0,-1 -0.15625,-1.4375 -0.15625,-0.45312 -0.59375,-0.71875 -0.421875,-0.26562 -1,-0.26562 -1.03125,0 -1.71875,0.6875 -0.6875,0.6875 -0.6875,2.21875 l 0,5.71875 -1.671875,0 0,-6.40625 q 0,-1.10938 -0.40625,-1.65625 -0.40625,-0.5625 -1.34375,-0.5625 -0.703125,0 -1.3125,0.375 -0.59375,0.35937 -0.859375,1.07812 -0.265625,0.71875 -0.265625,2.0625 l 0,5.10938 -1.671875,0 z m 14.868927,-2.9375 1.65625,-0.26563 q 0.140625,1 0.765625,1.53125 0.640627,0.51563 1.781247,0.51563 1.15625,0 1.70313,-0.46875 0.5625,-0.46875 0.5625,-1.09375 0,-0.5625 -0.48438,-0.89063 -0.34375,-0.21875 -1.70312,-0.5625 -1.843752,-0.46875 -2.562502,-0.79687 -0.703125,-0.34375 -1.078125,-0.9375 -0.359375,-0.60938 -0.359375,-1.32813 0,-0.65625 0.296875,-1.21875 0.3125,-0.5625 0.828125,-0.9375 0.390625,-0.28125 1.0625,-0.48438 0.671872,-0.20312 1.437502,-0.20312 1.17187,0 2.04687,0.34375 0.875,0.32812 1.28125,0.90625 0.42188,0.5625 0.57813,1.51563 l -1.625,0.21875 q -0.10938,-0.75 -0.65625,-1.17188 -0.53125,-0.4375 -1.5,-0.4375 -1.15625,0 -1.640627,0.39063 -0.484375,0.375 -0.484375,0.875 0,0.32812 0.203125,0.59375 0.203125,0.26562 0.640625,0.4375 0.250002,0.0937 1.468752,0.4375 1.76562,0.46875 2.46875,0.76562 0.70312,0.29688 1.09375,0.875 0.40625,0.57813 0.40625,1.4375 0,0.82813 -0.48438,1.57813 -0.48437,0.73437 -1.40625,1.14062 -0.92187,0.39063 -2.07812,0.39063 -1.921877,0 -2.937502,-0.79688 -1,-0.79687 -1.28125,-2.35937 z"
     id="path3327"
     inkscape:connector-curvature="0"
     style="fill:#000000;fill-rule:nonzero" />
  <path
     d="m 117.8504,96.999994 116.85039,0 0,48.000006 -116.85039,0 z"
     id="path3329"
     inkscape:connector-curvature="0"
     style="fill:#93c47d;fill-rule:nonzero;stroke:#000000;stroke-width:2;stroke-linecap:butt;stroke-linejoin:round" />
  <path
     d="m 149.34917,113.57031 1.79688,0 0,7.84376 q 0,2.0625 -0.46875,3.26562 -0.45313,1.20313 -1.67188,1.96875 -1.20312,0.75 -3.17187,0.75 -1.90625,0 -3.125,-0.65625 -1.21875,-0.65625 -1.73438,-1.90625 -0.51562,-1.25 -0.51562,-3.42187 l 0,-7.84376 1.79687,0 0,7.84376 q 0,1.76562 0.32813,2.60937 0.32812,0.84375 1.125,1.29688 0.8125,0.45312 1.96875,0.45312 1.98437,0 2.82812,-0.89062 0.84375,-0.90625 0.84375,-3.46875 l 0,-7.84376 z m 4.33232,13.59376 0,-9.85939 1.5,0 0,1.40626 q 1.09375,-1.62501 3.14063,-1.62501 0.89062,0 1.64062,0.32813 0.75,0.3125 1.10938,0.84376 0.375,0.51562 0.53125,1.21875 0.0937,0.46875 0.0937,1.625 l 0,6.0625 -1.67188,0 0,-6 q 0,-1.01563 -0.20312,-1.51563 -0.1875,-0.51562 -0.6875,-0.8125 -0.5,-0.29687 -1.17188,-0.29687 -1.0625,0 -1.84375,0.67187 -0.76562,0.67188 -0.76562,2.57813 l 0,5.375 -1.67188,0 z m 10.39134,-11.68751 0,-1.90625 1.67188,0 0,1.90625 -1.67188,0 z m 0,11.68751 0,-9.85939 1.67188,0 0,9.85939 -1.67188,0 z m 4.53545,0 0,-8.54688 -1.48438,0 0,-1.3125 1.48438,0 0,-1.04688 q 0,-0.98437 0.17187,-1.46875 0.23438,-0.65625 0.84375,-1.04687 0.60938,-0.40625 1.70313,-0.40625 0.70312,0 1.5625,0.15625 l -0.25,1.46875 q -0.51563,-0.0937 -0.98438,-0.0937 -0.76562,0 -1.07812,0.32812 -0.3125,0.3125 -0.3125,1.20313 l 0,0.90625 1.92187,0 0,1.3125 -1.92187,0 0,8.54688 -1.65625,0 z m 4.15205,-4.92188 q 0,-2.73437 1.53125,-4.0625 1.26563,-1.09375 3.09375,-1.09375 2.03125,0 3.3125,1.34375 1.29686,1.32813 1.29686,3.67188 0,1.90625 -0.57811,3 -0.5625,1.07812 -1.65625,1.6875 -1.07812,0.59375 -2.375,0.59375 -2.0625,0 -3.34375,-1.32813 -1.28125,-1.32812 -1.28125,-3.8125 z m 1.71875,0 q 0,1.89063 0.82813,2.82813 0.82812,0.9375 2.07812,0.9375 1.25,0 2.0625,-0.9375 0.82813,-0.95313 0.82813,-2.89063 0,-1.82812 -0.82813,-2.76562 -0.82812,-0.9375 -2.0625,-0.9375 -1.25,0 -2.07812,0.9375 -0.82813,0.9375 -0.82813,2.82812 z m 9.26633,4.92188 0,-9.85939 1.5,0 0,1.50001 q 0.57813,-1.04688 1.0625,-1.37501 0.48438,-0.34375 1.07813,-0.34375 0.84375,0 1.71875,0.54688 l -0.57813,1.54688 q -0.60937,-0.35937 -1.23437,-0.35937 -0.54688,0 -0.98438,0.32812 -0.42187,0.32813 -0.60937,0.90625 -0.28125,0.89063 -0.28125,1.95313 l 0,5.15625 -1.67188,0 z m 6.2283,0 0,-9.85939 1.5,0 0,1.39064 q 0.45313,-0.71876 1.21875,-1.15626 0.78125,-0.45313 1.76563,-0.45313 1.09375,0 1.79687,0.45313 0.70313,0.45312 0.98438,1.28126 1.17187,-1.73439 3.04687,-1.73439 1.46875,0 2.25,0.8125 0.79688,0.81251 0.79688,2.50001 l 0,6.76563 -1.67188,0 0,-6.20313 q 0,-1 -0.15625,-1.4375 -0.15625,-0.45312 -0.59375,-0.71875 -0.42187,-0.26562 -1,-0.26562 -1.03125,0 -1.71875,0.6875 -0.6875,0.6875 -0.6875,2.21875 l 0,5.71875 -1.67187,0 0,-6.40625 q 0,-1.10938 -0.40625,-1.65625 -0.40625,-0.5625 -1.34375,-0.5625 -0.70313,0 -1.3125,0.375 -0.59375,0.35937 -0.85938,1.07812 -0.26562,0.71875 -0.26562,2.0625 l 0,5.10938 -1.67188,0 z m 14.86893,-2.9375 1.65625,-0.26563 q 0.14062,1 0.76562,1.53125 0.64063,0.51563 1.78125,0.51563 1.15625,0 1.70313,-0.46875 0.5625,-0.46875 0.5625,-1.09375 0,-0.5625 -0.48438,-0.89063 -0.34375,-0.21875 -1.70312,-0.5625 -1.84375,-0.46875 -2.5625,-0.79687 -0.70313,-0.34375 -1.07813,-0.9375 -0.35937,-0.60938 -0.35937,-1.32813 0,-0.65625 0.29687,-1.21875 0.3125,-0.5625 0.82813,-0.9375 0.39062,-0.28125 1.0625,-0.48438 0.67187,-0.20312 1.4375,-0.20312 1.17187,0 2.04687,0.34375 0.875,0.32812 1.28125,0.90625 0.42188,0.5625 0.57813,1.51563 l -1.625,0.21875 q -0.10938,-0.75 -0.65625,-1.17188 -0.53125,-0.4375 -1.5,-0.4375 -1.15625,0 -1.64063,0.39063 -0.48437,0.375 -0.48437,0.875 0,0.32812 0.20312,0.59375 0.20313,0.26562 0.64063,0.4375 0.25,0.0937 1.46875,0.4375 1.76562,0.46875 2.46875,0.76562 0.70312,0.29688 1.09375,0.875 0.40625,0.57813 0.40625,1.4375 0,0.82813 -0.48438,1.57813 -0.48437,0.73437 -1.40625,1.14062 -0.92187,0.39063 -2.07812,0.39063 -1.92188,0 -2.9375,-0.79688 -1,-0.79687 -1.28125,-2.35937 z"
     id="path3331"
     inkscape:connector-curvature="0"
     style="fill:#000000;fill-rule:nonzero" />
  <path
     d="m 234.70079,96.999994 116.8504,0 0,48.000006 -116.8504,0 z"
     id="path3333"
     inkscape:connector-curvature="0"
     style="fill:#93c47d;fill-rule:nonzero;stroke:#000000;stroke-width:2;stroke-linecap:butt;stroke-linejoin:round" />
  <path
     d="m 266.19955,113.57031 1.79687,0 0,7.84376 q 0,2.0625 -0.46875,3.26562 -0.45312,1.20313 -1.67187,1.96875 -1.20313,0.75 -3.17188,0.75 -1.90625,0 -3.125,-0.65625 -1.21875,-0.65625 -1.73437,-1.90625 -0.51563,-1.25 -0.51563,-3.42187 l 0,-7.84376 1.79688,0 0,7.84376 q 0,1.76562 0.32812,2.60937 0.32813,0.84375 1.125,1.29688 0.8125,0.45312 1.96875,0.45312 1.98438,0 2.82813,-0.89062 0.84375,-0.90625 0.84375,-3.46875 l 0,-7.84376 z m 4.33234,13.59376 0,-9.85939 1.5,0 0,1.40626 q 1.09375,-1.62501 3.14062,-1.62501 0.89063,0 1.64063,0.32813 0.75,0.3125 1.10937,0.84376 0.375,0.51562 0.53125,1.21875 0.0937,0.46875 0.0937,1.625 l 0,6.0625 -1.67187,0 0,-6 q 0,-1.01563 -0.20313,-1.51563 -0.1875,-0.51562 -0.6875,-0.8125 -0.5,-0.29687 -1.17187,-0.29687 -1.0625,0 -1.84375,0.67187 -0.76563,0.67188 -0.76563,2.57813 l 0,5.375 -1.67187,0 z m 10.39132,-11.68751 0,-1.90625 1.67188,0 0,1.90625 -1.67188,0 z m 0,11.68751 0,-9.85939 1.67188,0 0,9.85939 -1.67188,0 z m 4.53546,0 0,-8.54688 -1.48437,0 0,-1.3125 1.48437,0 0,-1.04688 q 0,-0.98437 0.17188,-1.46875 0.23437,-0.65625 0.84375,-1.04687 0.60937,-0.40625 1.70312,-0.40625 0.70313,0 1.5625,0.15625 l -0.25,1.46875 q -0.51562,-0.0937 -0.98437,-0.0937 -0.76563,0 -1.07813,0.32812 -0.3125,0.3125 -0.3125,1.20313 l 0,0.90625 1.92188,0 0,1.3125 -1.92188,0 0,8.54688 -1.65625,0 z m 4.15204,-4.92188 q 0,-2.73437 1.53125,-4.0625 1.26563,-1.09375 3.09375,-1.09375 2.03125,0 3.3125,1.34375 1.29688,1.32813 1.29688,3.67188 0,1.90625 -0.57813,3 -0.5625,1.07812 -1.65625,1.6875 -1.07812,0.59375 -2.375,0.59375 -2.0625,0 -3.34375,-1.32813 -1.28125,-1.32812 -1.28125,-3.8125 z m 1.71875,0 q 0,1.89063 0.82813,2.82813 0.82812,0.9375 2.07812,0.9375 1.25,0 2.0625,-0.9375 0.82813,-0.95313 0.82813,-2.89063 0,-1.82812 -0.82813,-2.76562 -0.82812,-0.9375 -2.0625,-0.9375 -1.25,0 -2.07812,0.9375 -0.82813,0.9375 -0.82813,2.82812 z m 9.26636,4.92188 0,-9.85939 1.5,0 0,1.50001 q 0.57813,-1.04688 1.0625,-1.37501 0.48438,-0.34375 1.07813,-0.34375 0.84375,0 1.71875,0.54688 l -0.57813,1.54688 q -0.60937,-0.35937 -1.23437,-0.35937 -0.54688,0 -0.98438,0.32812 -0.42187,0.32813 -0.60937,0.90625 -0.28125,0.89063 -0.28125,1.95313 l 0,5.15625 -1.67188,0 z m 6.2283,0 0,-9.85939 1.5,0 0,1.39064 q 0.45313,-0.71876 1.21875,-1.15626 0.78125,-0.45313 1.76563,-0.45313 1.09375,0 1.79687,0.45313 0.70313,0.45312 0.98438,1.28126 1.17187,-1.73439 3.04687,-1.73439 1.46875,0 2.25,0.8125 0.79688,0.81251 0.79688,2.50001 l 0,6.76563 -1.67188,0 0,-6.20313 q 0,-1 -0.15625,-1.4375 -0.15625,-0.45312 -0.59375,-0.71875 -0.42187,-0.26562 -1,-0.26562 -1.03125,0 -1.71875,0.6875 -0.6875,0.6875 -0.6875,2.21875 l 0,5.71875 -1.67187,0 0,-6.40625 q 0,-1.10938 -0.40625,-1.65625 -0.40625,-0.5625 -1.34375,-0.5625 -0.70313,0 -1.3125,0.375 -0.59375,0.35937 -0.85938,1.07812 -0.26562,0.71875 -0.26562,2.0625 l 0,5.10938 -1.67188,0 z m 14.86893,-2.9375 1.65625,-0.26563 q 0.14062,1 0.76562,1.53125 0.64063,0.51563 1.78125,0.51563 1.15625,0 1.70313,-0.46875 0.5625,-0.46875 0.5625,-1.09375 0,-0.5625 -0.48438,-0.89063 -0.34375,-0.21875 -1.70312,-0.5625 -1.84375,-0.46875 -2.5625,-0.79687 -0.70313,-0.34375 -1.07813,-0.9375 -0.35937,-0.60938 -0.35937,-1.32813 0,-0.65625 0.29687,-1.21875 0.3125,-0.5625 0.82813,-0.9375 0.39062,-0.28125 1.0625,-0.48438 0.67187,-0.20312 1.4375,-0.20312 1.17187,0 2.04687,0.34375 0.875,0.32812 1.28125,0.90625 0.42188,0.5625 0.57813,1.51563 l -1.625,0.21875 q -0.10938,-0.75 -0.65625,-1.17188 -0.53125,-0.4375 -1.5,-0.4375 -1.15625,0 -1.64063,0.39063 -0.48437,0.375 -0.48437,0.875 0,0.32812 0.20312,0.59375 0.20313,0.26562 0.64063,0.4375 0.25,0.0937 1.46875,0.4375 1.76562,0.46875 2.46875,0.76562 0.70312,0.29688 1.09375,0.875 0.40625,0.57813 0.40625,1.4375 0,0.82813 -0.48438,1.57813 -0.48437,0.73437 -1.40625,1.14062 -0.92187,0.39063 -2.07812,0.39063 -1.92188,0 -2.9375,-0.79688 -1,-0.79687 -1.28125,-2.35937 z"
     id="path3335"
     inkscape:connector-curvature="0"
     style="fill:#000000;fill-rule:nonzero" />
  <path
     d="m 351.55119,96.999994 116.85037,0 0,48.000006 -116.85037,0 z"
     id="path3337"
     inkscape:connector-curvature="0"
     style="fill:#93c47d;fill-rule:nonzero;stroke:#000000;stroke-width:2;stroke-linecap:butt;stroke-linejoin:round" />
  <path
     d="m 383.04995,113.57031 1.79688,0 0,7.84376 q 0,2.0625 -0.46875,3.26562 -0.45313,1.20313 -1.67188,1.96875 -1.20312,0.75 -3.17187,0.75 -1.90625,0 -3.125,-0.65625 -1.21875,-0.65625 -1.73438,-1.90625 -0.51562,-1.25 -0.51562,-3.42187 l 0,-7.84376 1.79687,0 0,7.84376 q 0,1.76562 0.32813,2.60937 0.32812,0.84375 1.125,1.29688 0.8125,0.45312 1.96875,0.45312 1.98437,0 2.82812,-0.89062 0.84375,-0.90625 0.84375,-3.46875 l 0,-7.84376 z m 4.33234,13.59376 0,-9.85939 1.5,0 0,1.40626 q 1.09375,-1.62501 3.14062,-1.62501 0.89063,0 1.64063,0.32813 0.75,0.3125 1.10937,0.84376 0.375,0.51562 0.53125,1.21875 0.0937,0.46875 0.0937,1.625 l 0,6.0625 -1.67187,0 0,-6 q 0,-1.01563 -0.20313,-1.51563 -0.1875,-0.51562 -0.6875,-0.8125 -0.5,-0.29687 -1.17187,-0.29687 -1.0625,0 -1.84375,0.67187 -0.76563,0.67188 -0.76563,2.57813 l 0,5.375 -1.67187,0 z m 10.39132,-11.68751 0,-1.90625 1.67188,0 0,1.90625 -1.67188,0 z m 0,11.68751 0,-9.85939 1.67188,0 0,9.85939 -1.67188,0 z m 4.53546,0 0,-8.54688 -1.48437,0 0,-1.3125 1.48437,0 0,-1.04688 q 0,-0.98437 0.17188,-1.46875 0.23437,-0.65625 0.84375,-1.04687 0.60937,-0.40625 1.70312,-0.40625 0.70313,0 1.5625,0.15625 l -0.25,1.46875 q -0.51562,-0.0937 -0.98437,-0.0937 -0.76563,0 -1.07813,0.32812 -0.3125,0.3125 -0.3125,1.20313 l 0,0.90625 1.92188,0 0,1.3125 -1.92188,0 0,8.54688 -1.65625,0 z m 4.15204,-4.92188 q 0,-2.73437 1.53125,-4.0625 1.26563,-1.09375 3.09375,-1.09375 2.03125,0 3.3125,1.34375 1.29688,1.32813 1.29688,3.67188 0,1.90625 -0.57813,3 -0.5625,1.07812 -1.65625,1.6875 -1.07812,0.59375 -2.375,0.59375 -2.0625,0 -3.34375,-1.32813 -1.28125,-1.32812 -1.28125,-3.8125 z m 1.71875,0 q 0,1.89063 0.82813,2.82813 0.82812,0.9375 2.07812,0.9375 1.25,0 2.0625,-0.9375 0.82813,-0.95313 0.82813,-2.89063 0,-1.82812 -0.82813,-2.76562 -0.82812,-0.9375 -2.0625,-0.9375 -1.25,0 -2.07812,0.9375 -0.82813,0.9375 -0.82813,2.82812 z m 9.26636,4.92188 0,-9.85939 1.5,0 0,1.50001 q 0.57813,-1.04688 1.0625,-1.37501 0.48438,-0.34375 1.07813,-0.34375 0.84375,0 1.71875,0.54688 l -0.57813,1.54688 q -0.60937,-0.35937 -1.23437,-0.35937 -0.54688,0 -0.98438,0.32812 -0.42187,0.32813 -0.60937,0.90625 -0.28125,0.89063 -0.28125,1.95313 l 0,5.15625 -1.67188,0 z m 6.2283,0 0,-9.85939 1.5,0 0,1.39064 q 0.45313,-0.71876 1.21875,-1.15626 0.78125,-0.45313 1.76563,-0.45313 1.09375,0 1.79687,0.45313 0.70313,0.45312 0.98438,1.28126 1.17187,-1.73439 3.04687,-1.73439 1.46875,0 2.25,0.8125 0.79688,0.81251 0.79688,2.50001 l 0,6.76563 -1.67188,0 0,-6.20313 q 0,-1 -0.15625,-1.4375 -0.15625,-0.45312 -0.59375,-0.71875 -0.42187,-0.26562 -1,-0.26562 -1.03125,0 -1.71875,0.6875 -0.6875,0.6875 -0.6875,2.21875 l 0,5.71875 -1.67187,0 0,-6.40625 q 0,-1.10938 -0.40625,-1.65625 -0.40625,-0.5625 -1.34375,-0.5625 -0.70313,0 -1.3125,0.375 -0.59375,0.35937 -0.85938,1.07812 -0.26562,0.71875 -0.26562,2.0625 l 0,5.10938 -1.67188,0 z m 14.86893,-2.9375 1.65625,-0.26563 q 0.14062,1 0.76562,1.53125 0.64063,0.51563 1.78125,0.51563 1.15625,0 1.70313,-0.46875 0.5625,-0.46875 0.5625,-1.09375 0,-0.5625 -0.48438,-0.89063 -0.34375,-0.21875 -1.70312,-0.5625 -1.84375,-0.46875 -2.5625,-0.79687 -0.70313,-0.34375 -1.07813,-0.9375 -0.35937,-0.60938 -0.35937,-1.32813 0,-0.65625 0.29687,-1.21875 0.3125,-0.5625 0.82813,-0.9375 0.39062,-0.28125 1.0625,-0.48438 0.67187,-0.20312 1.4375,-0.20312 1.17187,0 2.04687,0.34375 0.875,0.32812 1.28125,0.90625 0.42188,0.5625 0.57813,1.51563 l -1.625,0.21875 q -0.10938,-0.75 -0.65625,-1.17188 -0.53125,-0.4375 -1.5,-0.4375 -1.15625,0 -1.64063,0.39063 -0.48437,0.375 -0.48437,0.875 0,0.32812 0.20312,0.59375 0.20313,0.26562 0.64063,0.4375 0.25,0.0937 1.46875,0.4375 1.76562,0.46875 2.46875,0.76562 0.70312,0.29688 1.09375,0.875 0.40625,0.57813 0.40625,1.4375 0,0.82813 -0.48438,1.57813 -0.48437,0.73437 -1.40625,1.14062 -0.92187,0.39063 -2.07812,0.39063 -1.92188,0 -2.9375,-0.79688 -1,-0.79687 -1.28125,-2.35937 z"
     id="path3339"
     inkscape:connector-curvature="0"
     style="fill:#000000;fill-rule:nonzero" />
  <path
     d="m 234.70079,49.000004 233.38583,0 0,48 -233.38583,0 z"
     id="path3341"
     inkscape:connector-curvature="0"
     style="fill:#ffe599;fill-rule:nonzero;stroke:#000000;stroke-width:2;stroke-linecap:butt;stroke-linejoin:round" />
  <path
     d="m 280.28709,79.164064 0,-13.59375 5.125,0 q 1.35937,0 2.07812,0.125 1,0.171875 1.67188,0.640625 0.67187,0.46875 1.07812,1.3125 0.42188,0.84375 0.42188,1.84375 0,1.734375 -1.10938,2.9375 -1.09375,1.203125 -3.98437,1.203125 l -3.48438,0 0,5.53125 -1.79687,0 z m 1.79687,-7.140625 3.51563,0 q 1.75,0 2.46875,-0.640625 0.73437,-0.65625 0.73437,-1.828125 0,-0.859375 -0.4375,-1.46875 -0.42187,-0.609375 -1.125,-0.796875 -0.45312,-0.125 -1.67187,-0.125 l -3.48438,0 0,4.859375 z m 10.41233,7.140625 0,-9.859375 1.5,0 0,1.5 q 0.57812,-1.046875 1.0625,-1.375 0.48437,-0.34375 1.07812,-0.34375 0.84375,0 1.71875,0.546875 l -0.57812,1.546875 q -0.60938,-0.359375 -1.23438,-0.359375 -0.54687,0 -0.98437,0.328125 -0.42188,0.328125 -0.60938,0.90625 -0.28125,0.890625 -0.28125,1.953125 l 0,5.15625 -1.67187,0 z m 5.6033,-4.921875 q 0,-2.734375 1.53125,-4.0625 1.26562,-1.09375 3.09375,-1.09375 2.03125,0 3.3125,1.34375 1.29687,1.328125 1.29687,3.671875 0,1.90625 -0.57812,3 -0.5625,1.078125 -1.65625,1.6875 -1.07813,0.59375 -2.375,0.59375 -2.0625,0 -3.34375,-1.328125 -1.28125,-1.328125 -1.28125,-3.8125 z m 1.71875,0 q 0,1.890625 0.82812,2.828125 0.82813,0.9375 2.07813,0.9375 1.25,0 2.0625,-0.9375 0.82812,-0.953125 0.82812,-2.890625 0,-1.828125 -0.82812,-2.765625 -0.82813,-0.9375 -2.0625,-0.9375 -1.25,0 -2.07813,0.9375 -0.82812,0.9375 -0.82812,2.828125 z m 8.98508,5.734375 1.60937,0.25 q 0.10938,0.75 0.57813,1.09375 0.60937,0.453125 1.6875,0.453125 1.17187,0 1.79687,-0.46875 0.625,-0.453125 0.85938,-1.28125 0.125,-0.515625 0.10937,-2.15625 -1.09375,1.296875 -2.71875,1.296875 -2.03125,0 -3.15625,-1.46875 -1.10937,-1.46875 -1.10937,-3.515625 0,-1.40625 0.51562,-2.59375 0.51563,-1.203125 1.48438,-1.84375 0.96875,-0.65625 2.26562,-0.65625 1.75,0 2.875,1.40625 l 0,-1.1875 1.54688,0 0,8.515625 q 0,2.3125 -0.46875,3.265625 -0.46875,0.96875 -1.48438,1.515625 -1.01562,0.5625 -2.5,0.5625 -1.76562,0 -2.85937,-0.796875 -1.07813,-0.796875 -1.03125,-2.390625 z m 1.375,-5.921875 q 0,1.953125 0.76562,2.84375 0.78125,0.890625 1.9375,0.890625 1.14063,0 1.92188,-0.890625 0.78125,-0.890625 0.78125,-2.78125 0,-1.8125 -0.8125,-2.71875 -0.79688,-0.921875 -1.92188,-0.921875 -1.10937,0 -1.89062,0.90625 -0.78125,0.890625 -0.78125,2.671875 z m 9.28198,5.109375 0,-9.859375 1.5,0 0,1.5 q 0.57812,-1.046875 1.0625,-1.375 0.48437,-0.34375 1.07812,-0.34375 0.84375,0 1.71875,0.546875 l -0.57812,1.546875 q -0.60938,-0.359375 -1.23438,-0.359375 -0.54687,0 -0.98437,0.328125 -0.42188,0.328125 -0.60938,0.90625 -0.28125,0.890625 -0.28125,1.953125 l 0,5.15625 -1.67187,0 z m 12.6658,-1.21875 q -0.9375,0.796875 -1.79687,1.125 -0.85938,0.3125 -1.84375,0.3125 -1.60938,0 -2.48438,-0.78125 -0.875,-0.796875 -0.875,-2.03125 0,-0.734375 0.32813,-1.328125 0.32812,-0.59375 0.85937,-0.953125 0.53125,-0.359375 1.20313,-0.546875 0.5,-0.140625 1.48437,-0.25 2.03125,-0.25 2.98438,-0.578125 0,-0.34375 0,-0.4375 0,-1.015625 -0.46875,-1.4375 -0.64063,-0.5625 -1.90625,-0.5625 -1.17188,0 -1.73438,0.40625 -0.5625,0.40625 -0.82812,1.46875 l -1.64063,-0.234375 q 0.23438,-1.046875 0.73438,-1.6875 0.51562,-0.640625 1.46875,-0.984375 0.96875,-0.359375 2.25,-0.359375 1.26562,0 2.04687,0.296875 0.78125,0.296875 1.15625,0.75 0.375,0.453125 0.51563,1.140625 0.0937,0.421875 0.0937,1.53125 l 0,2.234375 q 0,2.328125 0.0937,2.953125 0.10937,0.609375 0.4375,1.171875 l -1.75,0 q -0.26563,-0.515625 -0.32813,-1.21875 z m -0.14062,-3.71875 q -0.90625,0.359375 -2.73438,0.625 -1.03125,0.140625 -1.45312,0.328125 -0.42188,0.1875 -0.65625,0.546875 -0.23438,0.359375 -0.23438,0.796875 0,0.671875 0.5,1.125 0.51563,0.4375 1.48438,0.4375 0.96875,0 1.71875,-0.421875 0.75,-0.4375 1.10937,-1.15625 0.26563,-0.578125 0.26563,-1.671875 l 0,-0.609375 z m 4.07882,4.9375 0,-9.859375 1.5,0 0,1.390625 q 0.45313,-0.71875 1.21875,-1.15625 0.78125,-0.453125 1.76563,-0.453125 1.09375,0 1.79687,0.453125 0.70313,0.453125 0.98438,1.28125 1.17187,-1.734375 3.04687,-1.734375 1.46875,0 2.25,0.8125 0.79688,0.8125 0.79688,2.5 l 0,6.765625 -1.67188,0 0,-6.203125 q 0,-1 -0.15625,-1.4375 -0.15625,-0.453125 -0.59375,-0.71875 -0.42187,-0.265625 -1,-0.265625 -1.03125,0 -1.71875,0.6875 -0.6875,0.6875 -0.6875,2.21875 l 0,5.71875 -1.67187,0 0,-6.40625 q 0,-1.109375 -0.40625,-1.65625 -0.40625,-0.5625 -1.34375,-0.5625 -0.70313,0 -1.3125,0.375 -0.59375,0.359375 -0.85938,1.078125 -0.26562,0.71875 -0.26562,2.0625 l 0,5.109375 -1.67188,0 z m 14.86893,-2.9375 1.65625,-0.265625 q 0.14062,1 0.76562,1.53125 0.64063,0.515625 1.78125,0.515625 1.15625,0 1.70313,-0.46875 0.5625,-0.46875 0.5625,-1.09375 0,-0.5625 -0.48438,-0.890625 -0.34375,-0.21875 -1.70312,-0.5625 -1.84375,-0.46875 -2.5625,-0.796875 -0.70313,-0.34375 -1.07813,-0.9375 -0.35937,-0.609375 -0.35937,-1.328125 0,-0.65625 0.29687,-1.21875 0.3125,-0.5625 0.82813,-0.9375 0.39062,-0.28125 1.0625,-0.484375 0.67187,-0.203125 1.4375,-0.203125 1.17187,0 2.04687,0.34375 0.875,0.328125 1.28125,0.90625 0.42188,0.5625 0.57813,1.515625 l -1.625,0.21875 q -0.10938,-0.75 -0.65625,-1.171875 -0.53125,-0.4375 -1.5,-0.4375 -1.15625,0 -1.64063,0.390625 -0.48437,0.375 -0.48437,0.875 0,0.328125 0.20312,0.59375 0.20313,0.265625 0.64063,0.4375 0.25,0.09375 1.46875,0.4375 1.76562,0.46875 2.46875,0.765625 0.70312,0.296875 1.09375,0.875 0.40625,0.578125 0.40625,1.4375 0,0.828125 -0.48438,1.578125 -0.48437,0.734375 -1.40625,1.140625 -0.92187,0.390625 -2.07812,0.390625 -1.92188,0 -2.9375,-0.796875 -1,-0.796875 -1.28125,-2.359375 z m 8.75,3.171875 3.9375,-14.0625 1.34375,0 -3.9375,14.0625 -1.34375,0 z m 6.57394,-0.234375 0,-13.59375 5.10938,0 q 1.54687,0 2.48437,0.40625 0.95313,0.40625 1.48438,1.265625 0.53125,0.859375 0.53125,1.796875 0,0.875 -0.46875,1.65625 -0.46875,0.765625 -1.4375,1.234375 1.23437,0.359375 1.89062,1.234375 0.67188,0.875 0.67188,2.0625 0,0.953125 -0.40625,1.78125 -0.39063,0.8125 -0.98438,1.265625 -0.59375,0.4375 -1.5,0.671875 -0.89062,0.21875 -2.1875,0.21875 l -5.1875,0 z m 1.79688,-7.890625 2.9375,0 q 1.20312,0 1.71875,-0.15625 0.6875,-0.203125 1.03125,-0.671875 0.35937,-0.46875 0.35937,-1.1875 0,-0.671875 -0.32812,-1.1875 -0.32813,-0.515625 -0.9375,-0.703125 -0.59375,-0.203125 -2.0625,-0.203125 l -2.71875,0 0,4.109375 z m 0,6.28125 3.39062,0 q 0.875,0 1.21875,-0.0625 0.625,-0.109375 1.04688,-0.359375 0.42187,-0.265625 0.6875,-0.765625 0.26562,-0.5 0.26562,-1.140625 0,-0.765625 -0.39062,-1.328125 -0.39063,-0.5625 -1.07813,-0.78125 -0.6875,-0.234375 -1.98437,-0.234375 l -3.15625,0 0,4.671875 z m 16.9592,1.609375 0,-1.453125 q -1.14063,1.671875 -3.125,1.671875 -0.85938,0 -1.625,-0.328125 -0.75,-0.34375 -1.125,-0.84375 -0.35938,-0.5 -0.51563,-1.234375 -0.0937,-0.5 -0.0937,-1.5625 l 0,-6.109375 1.67188,0 0,5.46875 q 0,1.3125 0.0937,1.765625 0.15625,0.65625 0.67187,1.03125 0.51563,0.375 1.26563,0.375 0.75,0 1.40625,-0.375 0.65625,-0.390625 0.92187,-1.046875 0.28125,-0.671875 0.28125,-1.9375 l 0,-5.28125 1.67188,0 0,9.859375 -1.5,0 z m 4.32882,0 0,-8.546875 -1.48437,0 0,-1.3125 1.48437,0 0,-1.046875 q 0,-0.984375 0.17188,-1.46875 0.23437,-0.65625 0.84375,-1.046875 0.60937,-0.40625 1.70312,-0.40625 0.70313,0 1.5625,0.15625 l -0.25,1.46875 q -0.51562,-0.09375 -0.98437,-0.09375 -0.76563,0 -1.07813,0.328125 -0.3125,0.3125 -0.3125,1.203125 l 0,0.90625 1.92188,0 0,1.3125 -1.92188,0 0,8.546875 -1.65625,0 z m 5.18332,0 0,-8.546875 -1.48437,0 0,-1.3125 1.48437,0 0,-1.046875 q 0,-0.984375 0.17188,-1.46875 0.23437,-0.65625 0.84375,-1.046875 0.60937,-0.40625 1.70312,-0.40625 0.70313,0 1.5625,0.15625 l -0.25,1.46875 q -0.51562,-0.09375 -0.98437,-0.09375 -0.76563,0 -1.07813,0.328125 -0.3125,0.3125 -0.3125,1.203125 l 0,0.90625 1.92188,0 0,1.3125 -1.92188,0 0,8.546875 -1.65625,0 z m 11.52704,-3.171875 1.71875,0.21875 q -0.40625,1.5 -1.51562,2.34375 -1.09375,0.828125 -2.8125,0.828125 -2.15625,0 -3.42188,-1.328125 -1.26562,-1.328125 -1.26562,-3.734375 0,-2.484375 1.26562,-3.859375 1.28125,-1.375 3.32813,-1.375 1.98437,0 3.23437,1.34375 1.25,1.34375 1.25,3.796875 0,0.140625 -0.0156,0.4375 l -7.34375,0 q 0.0937,1.625 0.92187,2.484375 0.82813,0.859375 2.0625,0.859375 0.90625,0 1.54688,-0.46875 0.65625,-0.484375 1.04687,-1.546875 z m -5.48437,-2.703125 5.5,0 q -0.10938,-1.234375 -0.625,-1.859375 -0.79688,-0.96875 -2.07813,-0.96875 -1.14062,0 -1.9375,0.78125 -0.78125,0.765625 -0.85937,2.046875 z m 9.09448,5.875 0,-9.859375 1.5,0 0,1.5 q 0.57812,-1.046875 1.0625,-1.375 0.48437,-0.34375 1.07812,-0.34375 0.84375,0 1.71875,0.546875 l -0.57812,1.546875 q -0.60938,-0.359375 -1.23438,-0.359375 -0.54687,0 -0.98437,0.328125 -0.42188,0.328125 -0.60938,0.90625 -0.28125,0.890625 -0.28125,1.953125 l 0,5.15625 -1.67187,0 z m 5.55643,-2.9375 1.65625,-0.265625 q 0.14062,1 0.76562,1.53125 0.64063,0.515625 1.78125,0.515625 1.15625,0 1.70313,-0.46875 0.5625,-0.46875 0.5625,-1.09375 0,-0.5625 -0.48438,-0.890625 -0.34375,-0.21875 -1.70312,-0.5625 -1.84375,-0.46875 -2.5625,-0.796875 -0.70313,-0.34375 -1.07813,-0.9375 -0.35937,-0.609375 -0.35937,-1.328125 0,-0.65625 0.29687,-1.21875 0.3125,-0.5625 0.82813,-0.9375 0.39062,-0.28125 1.0625,-0.484375 0.67187,-0.203125 1.4375,-0.203125 1.17187,0 2.04687,0.34375 0.875,0.328125 1.28125,0.90625 0.42188,0.5625 0.57813,1.515625 l -1.625,0.21875 q -0.10938,-0.75 -0.65625,-1.171875 -0.53125,-0.4375 -1.5,-0.4375 -1.15625,0 -1.64063,0.390625 -0.48437,0.375 -0.48437,0.875 0,0.328125 0.20312,0.59375 0.20313,0.265625 0.64063,0.4375 0.25,0.09375 1.46875,0.4375 1.76562,0.46875 2.46875,0.765625 0.70312,0.296875 1.09375,0.875 0.40625,0.578125 0.40625,1.4375 0,0.828125 -0.48438,1.578125 -0.48437,0.734375 -1.40625,1.140625 -0.92187,0.390625 -2.07812,0.390625 -1.92188,0 -2.9375,-0.796875 -1,-0.796875 -1.28125,-2.359375 z"
     id="path3343"
     inkscape:connector-curvature="0"
     style="fill:#000000;fill-rule:nonzero" />
</svg>
