<?xml version="1.0" encoding="UTF-8" standalone="no"?>
<svg
   xmlns:dc="http://purl.org/dc/elements/1.1/"
   xmlns:cc="http://creativecommons.org/ns#"
   xmlns:rdf="http://www.w3.org/1999/02/22-rdf-syntax-ns#"
   xmlns:svg="http://www.w3.org/2000/svg"
   xmlns="http://www.w3.org/2000/svg"
   xmlns:sodipodi="http://sodipodi.sourceforge.net/DTD/sodipodi-0.dtd"
   xmlns:inkscape="http://www.inkscape.org/namespaces/inkscape"
   version="1.1"
   viewBox="0 0 730.00001 293.0011"
   stroke-miterlimit="10"
   clip-path="url(#p.0)"
   id="svg3080"
   inkscape:version="0.48.2 r9819"
   width="100%"
   height="100%"
   sodipodi:docname="shader-pipeline.svg"
   style="fill:none;stroke:none">
  <metadata
     id="metadata3119">
    <rdf:RDF>
      <cc:Work
         rdf:about="">
        <dc:format>image/svg+xml</dc:format>
        <dc:type
           rdf:resource="http://purl.org/dc/dcmitype/StillImage" />
      </cc:Work>
    </rdf:RDF>
  </metadata>
  <defs
     id="defs3117" />
  <sodipodi:namedview
     pagecolor="#ffffff"
     bordercolor="#666666"
     borderopacity="1"
     objecttolerance="10"
     gridtolerance="10"
     guidetolerance="10"
     inkscape:pageopacity="0"
     inkscape:pageshadow="2"
     inkscape:window-width="1233"
     inkscape:window-height="1008"
     id="namedview3115"
     showgrid="false"
     fit-margin-top="0"
     fit-margin-left="0"
     fit-margin-right="0"
     fit-margin-bottom="0"
     inkscape:zoom="0.99861111"
     inkscape:cx="433.00001"
     inkscape:cy="12"
     inkscape:window-x="0"
     inkscape:window-y="0"
     inkscape:window-maximized="0"
     inkscape:current-layer="svg3080" />
  <clipPath
     id="p.0">
    <path
       d="M 0,0 960,0 960,720 0,720 0,0 z"
       clip-rule="nonzero"
       id="path3083"
       inkscape:connector-curvature="0" />
  </clipPath>
  <path
     d="m 1.0000093,1.0010991 200.0000007,0 0,95.9999999 -200.0000007,0 z"
     id="path3085"
     inkscape:connector-curvature="0"
     style="fill:#3d85c6;fill-rule:nonzero;stroke:#000000;stroke-width:2;stroke-linecap:butt;stroke-linejoin:round" />
  <path
     d="m 39.885583,55.165159 0,-13.59375 4.6875,0 q 1.578125,0 2.421875,0.1875 1.15625,0.26563 1.984375,0.96875 1.078125,0.92188 1.609375,2.34375 0.53125,1.40625 0.53125,3.21875 0,1.54687 -0.359375,2.75 -0.359375,1.1875 -0.921875,1.98437 -0.5625,0.78125 -1.234375,1.23438 -0.671875,0.4375 -1.625,0.67187 -0.953125,0.23438 -2.1875,0.23438 l -4.90625,0 z m 1.796875,-1.60938 2.90625,0 q 1.34375,0 2.109375,-0.25 0.765625,-0.25 1.21875,-0.70312 0.640625,-0.64063 1,-1.71875 0.359375,-1.07813 0.359375,-2.625 0,-2.125 -0.703125,-3.26562 -0.703125,-1.15625 -1.703125,-1.54688 -0.71875,-0.28125 -2.328125,-0.28125 l -2.859375,0 0,10.39062 z m 17.894821,0.39063 q -0.9375,0.79687 -1.79687,1.125 -0.85938,0.3125 -1.84375,0.3125 -1.60938,0 -2.48438,-0.78125 -0.875,-0.79688 -0.875,-2.03125 0,-0.73438 0.328125,-1.32813 0.328125,-0.59375 0.859375,-0.95312 0.53125,-0.35938 1.20313,-0.54688 0.5,-0.14062 1.48437,-0.25 2.03125,-0.25 2.98438,-0.57812 0,-0.34375 0,-0.4375 0,-1.01562 -0.46875,-1.4375 -0.64063,-0.5625 -1.90625,-0.5625 -1.17188,0 -1.73438,0.40625 -0.5625,0.40625 -0.82812,1.46875 l -1.64063,-0.23437 q 0.23438,-1.04688 0.73438,-1.6875 0.51562,-0.64063 1.46875,-0.98438 0.96875,-0.35937 2.25,-0.35937 1.26562,0 2.04687,0.29687 0.78125,0.29688 1.15625,0.75 0.375,0.45313 0.51563,1.14063 0.0937,0.42187 0.0937,1.53125 l 0,2.23437 q 0,2.32812 0.0937,2.95312 0.10937,0.60938 0.4375,1.17188 l -1.75,0 q -0.26563,-0.51563 -0.32813,-1.21875 z m -0.14062,-3.71875 q -0.90625,0.35937 -2.73438,0.625 -1.03125,0.14062 -1.45312,0.32812 -0.42188,0.1875 -0.65625,0.54688 -0.23438,0.35937 -0.23438,0.79687 0,0.67188 0.5,1.125 0.51563,0.4375 1.48438,0.4375 0.96875,0 1.71875,-0.42187 0.75,-0.4375 1.10937,-1.15625 0.26563,-0.57813 0.26563,-1.67188 l 0,-0.60937 z m 7.73509,3.4375 0.23437,1.48437 q -0.70312,0.14063 -1.26562,0.14063 -0.90625,0 -1.40625,-0.28125 -0.5,-0.29688 -0.70313,-0.75 -0.20312,-0.46875 -0.20312,-1.98438 l 0,-5.65624 -1.23438,0 0,-1.3125 1.23438,0 0,-2.4375 1.65625,-1 0,3.4375 1.6875,0 0,1.3125 -1.6875,0 0,5.74999 q 0,0.71875 0.0781,0.92188 0.0937,0.20312 0.29688,0.32812 0.20312,0.125 0.57812,0.125 0.26563,0 0.73438,-0.0781 z m 7.96455,0.28125 q -0.9375,0.79687 -1.79687,1.125 -0.85938,0.3125 -1.84375,0.3125 -1.60938,0 -2.48438,-0.78125 -0.875,-0.79688 -0.875,-2.03125 0,-0.73438 0.32813,-1.32813 0.32812,-0.59375 0.85937,-0.95312 0.53125,-0.35938 1.20313,-0.54688 0.5,-0.14062 1.48437,-0.25 2.03125,-0.25 2.98438,-0.57812 0,-0.34375 0,-0.4375 0,-1.01562 -0.46875,-1.4375 -0.64063,-0.5625 -1.90625,-0.5625 -1.17188,0 -1.73438,0.40625 -0.5625,0.40625 -0.82812,1.46875 l -1.64063,-0.23437 q 0.23438,-1.04688 0.73438,-1.6875 0.51562,-0.64063 1.46875,-0.98438 0.96875,-0.35937 2.25,-0.35937 1.26562,0 2.04687,0.29687 0.78125,0.29688 1.15625,0.75 0.375,0.45313 0.51563,1.14063 0.0937,0.42187 0.0937,1.53125 l 0,2.23437 q 0,2.32812 0.0937,2.95312 0.10937,0.60938 0.4375,1.17188 l -1.75,0 q -0.26563,-0.51563 -0.32813,-1.21875 z m -0.14062,-3.71875 q -0.90625,0.35937 -2.73438,0.625 -1.03125,0.14062 -1.45312,0.32812 -0.42188,0.1875 -0.65625,0.54688 -0.23438,0.35937 -0.23438,0.79687 0,0.67188 0.5,1.125 0.51563,0.4375 1.48438,0.4375 0.96875,0 1.71875,-0.42187 0.75,-0.4375 1.10937,-1.15625 0.26563,-0.57813 0.26563,-1.67188 l 0,-0.60937 z m 8.59027,2 1.65625,-0.26563 q 0.14062,1 0.76562,1.53125 0.64063,0.51563 1.78125,0.51563 1.15625,0 1.70313,-0.46875 0.5625,-0.46875 0.5625,-1.09375 0,-0.5625 -0.48438,-0.89063 -0.34375,-0.21875 -1.70312,-0.5625 -1.84375,-0.46875 -2.5625,-0.79687 -0.70313,-0.34375 -1.07813,-0.9375 -0.35937,-0.60937 -0.35937,-1.32812 0,-0.65625 0.29687,-1.21875 0.3125,-0.5625 0.82813,-0.9375 0.39062,-0.28125 1.0625,-0.48438 0.67187,-0.20312 1.4375,-0.20312 1.17187,0 2.04687,0.34375 0.875,0.32812 1.28125,0.90625 0.42188,0.5625 0.57813,1.51562 l -1.625,0.21875 q -0.10938,-0.75 -0.65625,-1.17187 -0.53125,-0.4375 -1.5,-0.4375 -1.15625,0 -1.64063,0.39062 -0.48437,0.375 -0.48437,0.875 0,0.32813 0.20312,0.59375 0.20313,0.26563 0.64063,0.4375 0.25,0.0937 1.46875,0.4375 1.76562,0.46875 2.46875,0.76562 0.70312,0.29688 1.09375,0.875 0.40625,0.57813 0.40625,1.4375 0,0.82813 -0.48438,1.57813 -0.48437,0.73437 -1.40625,1.14062 -0.92187,0.39063 -2.07812,0.39063 -1.92188,0 -2.9375,-0.79688 -1,-0.79687 -1.28125,-2.35937 z m 13.65625,1.4375 0.23437,1.48437 q -0.70312,0.14063 -1.26562,0.14063 -0.90625,0 -1.40625,-0.28125 -0.5,-0.29688 -0.70313,-0.75 -0.20312,-0.46875 -0.20312,-1.98438 l 0,-5.65624 -1.23438,0 0,-1.3125 1.23438,0 0,-2.4375 1.65625,-1 0,3.4375 1.6875,0 0,1.3125 -1.6875,0 0,5.74999 q 0,0.71875 0.0781,0.92188 0.0937,0.20312 0.29688,0.32812 0.20312,0.125 0.57812,0.125 0.26563,0 0.73438,-0.0781 z m 1.51143,1.5 0,-9.85937 1.500001,0 0,1.5 q 0.57812,-1.04688 1.0625,-1.375 0.48437,-0.34375 1.07812,-0.34375 0.84375,0 1.71875,0.54687 l -0.57812,1.54688 q -0.60938,-0.35938 -1.23438,-0.35938 -0.54687,0 -0.98437,0.32813 -0.42188,0.32812 -0.60938,0.90625 -0.28125,0.89062 -0.28125,1.95312 l 0,5.15625 -1.671871,0 z m 12.978301,-3.17188 1.71875,0.21875 q -0.40625,1.5 -1.51563,2.34375 -1.09375,0.82813 -2.8125,0.82813 -2.15625,0 -3.42187,-1.32813 -1.26563,-1.32812 -1.26563,-3.73437 0,-2.48437 1.26563,-3.85937 1.28125,-1.375 3.32812,-1.375 1.98438,0 3.23438,1.34375 1.25,1.34375 1.25,3.79687 0,0.14062 -0.0156,0.4375 l -7.34375,0 q 0.0937,1.625 0.92188,2.48437 0.82812,0.85938 2.0625,0.85938 0.90625,0 1.54687,-0.46875 0.65625,-0.48438 1.04688,-1.54688 z m -5.48438,-2.70312 5.5,0 q -0.10937,-1.23437 -0.625,-1.85937 -0.79687,-0.96875 -2.07812,-0.96875 -1.14063,0 -1.9375,0.78125 -0.78125,0.76562 -0.85938,2.04687 z m 15.54759,4.65625 q -0.9375,0.79687 -1.79687,1.125 -0.85938,0.3125 -1.84375,0.3125 -1.60938,0 -2.48438,-0.78125 -0.875,-0.79688 -0.875,-2.03125 0,-0.73438 0.32813,-1.32813 0.32812,-0.59375 0.85937,-0.95312 0.53125,-0.35938 1.20313,-0.54688 0.5,-0.14062 1.48437,-0.25 2.03125,-0.25 2.98438,-0.57812 0,-0.34375 0,-0.4375 0,-1.01562 -0.46875,-1.4375 -0.64063,-0.5625 -1.90625,-0.5625 -1.17188,0 -1.73438,0.40625 -0.5625,0.40625 -0.82812,1.46875 l -1.64063,-0.23437 q 0.23438,-1.04688 0.73438,-1.6875 0.51562,-0.64063 1.46875,-0.98438 0.96875,-0.35937 2.25,-0.35937 1.26562,0 2.04687,0.29687 0.78125,0.29688 1.15625,0.75 0.375,0.45313 0.51563,1.14063 0.0937,0.42187 0.0937,1.53125 l 0,2.23437 q 0,2.32812 0.0937,2.95312 0.10937,0.60938 0.4375,1.17188 l -1.75,0 q -0.26563,-0.51563 -0.32813,-1.21875 z m -0.14062,-3.71875 q -0.90625,0.35937 -2.73438,0.625 -1.03125,0.14062 -1.45312,0.32812 -0.42188,0.1875 -0.65625,0.54688 -0.23438,0.35937 -0.23438,0.79687 0,0.67188 0.5,1.125 0.51563,0.4375 1.48438,0.4375 0.96875,0 1.71875,-0.42187 0.75,-0.4375 1.10937,-1.15625 0.26563,-0.57813 0.26563,-1.67188 l 0,-0.60937 z m 4.07884,4.9375 0,-9.85937 1.5,0 0,1.39062 q 0.45313,-0.71875 1.21875,-1.15625 0.78125,-0.45312 1.76563,-0.45312 1.09375,0 1.79687,0.45312 0.70313,0.45313 0.98438,1.28125 1.17187,-1.73437 3.04687,-1.73437 1.46875,0 2.25,0.8125 0.79688,0.8125 0.79688,2.5 l 0,6.76562 -1.67188,0 0,-6.20312 q 0,-1 -0.15625,-1.4375 -0.15625,-0.45313 -0.59375,-0.71875 -0.42187,-0.26563 -1,-0.26563 -1.03125,0 -1.71875,0.6875 -0.6875,0.6875 -0.6875,2.21875 l 0,5.71875 -1.67187,0 0,-6.40625 q 0,-1.10937 -0.40625,-1.65625 -0.40625,-0.5625 -1.34375,-0.5625 -0.70313,0 -1.3125,0.375 -0.59375,0.35938 -0.85938,1.07813 -0.26562,0.71875 -0.26562,2.06249 l 0,5.10938 -1.67188,0 z m 26.55223,0 -1.67187,0 0,-10.64062 q -0.59375,0.57812 -1.57813,1.15625 -0.98437,0.5625 -1.76562,0.85937 l 0,-1.625 q 1.40625,-0.65625 2.45312,-1.59375 1.04688,-0.9375 1.48438,-1.8125 l 1.07812,0 0,13.65625 z"
     id="path3087"
     inkscape:connector-curvature="0"
     style="fill:#ffffff;fill-rule:nonzero" />
  <path
     d="m 1.0000093,129.0011 200.0000007,0 0,96 -200.0000007,0 z"
     id="path3089"
     inkscape:connector-curvature="0"
     style="fill:#3d85c6;fill-rule:nonzero;stroke:#000000;stroke-width:2;stroke-linecap:butt;stroke-linejoin:round" />
  <path
     d="m 39.885583,183.16516 0,-13.59375 4.6875,0 q 1.578125,0 2.421875,0.1875 1.15625,0.26562 1.984375,0.96875 1.078125,0.92187 1.609375,2.34375 0.53125,1.40625 0.53125,3.21875 0,1.54687 -0.359375,2.75 -0.359375,1.1875 -0.921875,1.98437 -0.5625,0.78125 -1.234375,1.23438 -0.671875,0.4375 -1.625,0.67187 -0.953125,0.23438 -2.1875,0.23438 l -4.90625,0 z m 1.796875,-1.60938 2.90625,0 q 1.34375,0 2.109375,-0.25 0.765625,-0.25 1.21875,-0.70312 0.640625,-0.64063 1,-1.71875 0.359375,-1.07813 0.359375,-2.625 0,-2.125 -0.703125,-3.26563 -0.703125,-1.15625 -1.703125,-1.54687 -0.71875,-0.28125 -2.328125,-0.28125 l -2.859375,0 0,10.39062 z m 17.894821,0.39063 q -0.9375,0.79687 -1.79687,1.125 -0.85938,0.3125 -1.84375,0.3125 -1.60938,0 -2.48438,-0.78125 -0.875,-0.79688 -0.875,-2.03125 0,-0.73438 0.328125,-1.32813 0.328125,-0.59375 0.859375,-0.95312 0.53125,-0.35938 1.20313,-0.54688 0.5,-0.14062 1.48437,-0.25 2.03125,-0.25 2.98438,-0.57812 0,-0.34375 0,-0.4375 0,-1.01563 -0.46875,-1.4375 -0.64063,-0.5625 -1.90625,-0.5625 -1.17188,0 -1.73438,0.40625 -0.5625,0.40625 -0.82812,1.46875 l -1.64063,-0.23438 q 0.23438,-1.04687 0.73438,-1.6875 0.51562,-0.64062 1.46875,-0.98437 0.96875,-0.35938 2.25,-0.35938 1.26562,0 2.04687,0.29688 0.78125,0.29687 1.15625,0.75 0.375,0.45312 0.51563,1.14062 0.0937,0.42188 0.0937,1.53125 l 0,2.23438 q 0,2.32812 0.0937,2.95312 0.10937,0.60938 0.4375,1.17188 l -1.75,0 q -0.26563,-0.51563 -0.32813,-1.21875 z m -0.14062,-3.71875 q -0.90625,0.35937 -2.73438,0.625 -1.03125,0.14062 -1.45312,0.32812 -0.42188,0.1875 -0.65625,0.54688 -0.23438,0.35937 -0.23438,0.79687 0,0.67188 0.5,1.125 0.51563,0.4375 1.48438,0.4375 0.96875,0 1.71875,-0.42187 0.75,-0.4375 1.10937,-1.15625 0.26563,-0.57813 0.26563,-1.67188 l 0,-0.60937 z m 7.73509,3.4375 0.23437,1.48437 q -0.70312,0.14063 -1.26562,0.14063 -0.90625,0 -1.40625,-0.28125 -0.5,-0.29688 -0.70313,-0.75 -0.20312,-0.46875 -0.20312,-1.98438 l 0,-5.65625 -1.23438,0 0,-1.3125 1.23438,0 0,-2.4375 1.65625,-1 0,3.4375 1.6875,0 0,1.3125 -1.6875,0 0,5.75 q 0,0.71875 0.0781,0.92188 0.0937,0.20312 0.29688,0.32812 0.20312,0.125 0.57812,0.125 0.26563,0 0.73438,-0.0781 z m 7.96455,0.28125 q -0.9375,0.79687 -1.79687,1.125 -0.85938,0.3125 -1.84375,0.3125 -1.60938,0 -2.48438,-0.78125 -0.875,-0.79688 -0.875,-2.03125 0,-0.73438 0.32813,-1.32813 0.32812,-0.59375 0.85937,-0.95312 0.53125,-0.35938 1.20313,-0.54688 0.5,-0.14062 1.48437,-0.25 2.03125,-0.25 2.98438,-0.57812 0,-0.34375 0,-0.4375 0,-1.01563 -0.46875,-1.4375 -0.64063,-0.5625 -1.90625,-0.5625 -1.17188,0 -1.73438,0.40625 -0.5625,0.40625 -0.82812,1.46875 l -1.64063,-0.23438 q 0.23438,-1.04687 0.73438,-1.6875 0.51562,-0.64062 1.46875,-0.98437 0.96875,-0.35938 2.25,-0.35938 1.26562,0 2.04687,0.29688 0.78125,0.29687 1.15625,0.75 0.375,0.45312 0.51563,1.14062 0.0937,0.42188 0.0937,1.53125 l 0,2.23438 q 0,2.32812 0.0937,2.95312 0.10937,0.60938 0.4375,1.17188 l -1.75,0 q -0.26563,-0.51563 -0.32813,-1.21875 z m -0.14062,-3.71875 q -0.90625,0.35937 -2.73438,0.625 -1.03125,0.14062 -1.45312,0.32812 -0.42188,0.1875 -0.65625,0.54688 -0.23438,0.35937 -0.23438,0.79687 0,0.67188 0.5,1.125 0.51563,0.4375 1.48438,0.4375 0.96875,0 1.71875,-0.42187 0.75,-0.4375 1.10937,-1.15625 0.26563,-0.57813 0.26563,-1.67188 l 0,-0.60937 z m 8.59027,2 1.65625,-0.26563 q 0.14062,1 0.76562,1.53125 0.64063,0.51563 1.78125,0.51563 1.15625,0 1.70313,-0.46875 0.5625,-0.46875 0.5625,-1.09375 0,-0.5625 -0.48438,-0.89063 -0.34375,-0.21875 -1.70312,-0.5625 -1.84375,-0.46875 -2.5625,-0.79687 -0.70313,-0.34375 -1.07813,-0.9375 -0.35937,-0.60938 -0.35937,-1.32813 0,-0.65625 0.29687,-1.21875 0.3125,-0.5625 0.82813,-0.9375 0.39062,-0.28125 1.0625,-0.48437 0.67187,-0.20313 1.4375,-0.20313 1.17187,0 2.04687,0.34375 0.875,0.32813 1.28125,0.90625 0.42188,0.5625 0.57813,1.51563 l -1.625,0.21875 q -0.10938,-0.75 -0.65625,-1.17188 -0.53125,-0.4375 -1.5,-0.4375 -1.15625,0 -1.64063,0.39063 -0.48437,0.375 -0.48437,0.875 0,0.32812 0.20312,0.59375 0.20313,0.26562 0.64063,0.4375 0.25,0.0937 1.46875,0.4375 1.76562,0.46875 2.46875,0.76562 0.70312,0.29688 1.09375,0.875 0.40625,0.57813 0.40625,1.4375 0,0.82813 -0.48438,1.57813 -0.48437,0.73437 -1.40625,1.14062 -0.92187,0.39063 -2.07812,0.39063 -1.92188,0 -2.9375,-0.79688 -1,-0.79687 -1.28125,-2.35937 z m 13.65625,1.4375 0.23437,1.48437 q -0.70312,0.14063 -1.26562,0.14063 -0.90625,0 -1.40625,-0.28125 -0.5,-0.29688 -0.70313,-0.75 -0.20312,-0.46875 -0.20312,-1.98438 l 0,-5.65625 -1.23438,0 0,-1.3125 1.23438,0 0,-2.4375 1.65625,-1 0,3.4375 1.6875,0 0,1.3125 -1.6875,0 0,5.75 q 0,0.71875 0.0781,0.92188 0.0937,0.20312 0.29688,0.32812 0.20312,0.125 0.57812,0.125 0.26563,0 0.73438,-0.0781 z m 1.51143,1.5 0,-9.85938 1.500001,0 0,1.5 q 0.57812,-1.04687 1.0625,-1.375 0.48437,-0.34375 1.07812,-0.34375 0.84375,0 1.71875,0.54688 l -0.57812,1.54687 q -0.60938,-0.35937 -1.23438,-0.35937 -0.54687,0 -0.98437,0.32812 -0.42188,0.32813 -0.60938,0.90625 -0.28125,0.89063 -0.28125,1.95313 l 0,5.15625 -1.671871,0 z m 12.978301,-3.17188 1.71875,0.21875 q -0.40625,1.5 -1.51563,2.34375 -1.09375,0.82813 -2.8125,0.82813 -2.15625,0 -3.42187,-1.32813 -1.26563,-1.32812 -1.26563,-3.73437 0,-2.48438 1.26563,-3.85938 1.28125,-1.375 3.32812,-1.375 1.98438,0 3.23438,1.34375 1.25,1.34375 1.25,3.79688 0,0.14062 -0.0156,0.4375 l -7.34375,0 q 0.0937,1.625 0.92188,2.48437 0.82812,0.85938 2.0625,0.85938 0.90625,0 1.54687,-0.46875 0.65625,-0.48438 1.04688,-1.54688 z m -5.48438,-2.70312 5.5,0 q -0.10937,-1.23438 -0.625,-1.85938 -0.79687,-0.96875 -2.07812,-0.96875 -1.14063,0 -1.9375,0.78125 -0.78125,0.76563 -0.85938,2.04688 z m 15.54759,4.65625 q -0.9375,0.79687 -1.79687,1.125 -0.85938,0.3125 -1.84375,0.3125 -1.60938,0 -2.48438,-0.78125 -0.875,-0.79688 -0.875,-2.03125 0,-0.73438 0.32813,-1.32813 0.32812,-0.59375 0.85937,-0.95312 0.53125,-0.35938 1.20313,-0.54688 0.5,-0.14062 1.48437,-0.25 2.03125,-0.25 2.98438,-0.57812 0,-0.34375 0,-0.4375 0,-1.01563 -0.46875,-1.4375 -0.64063,-0.5625 -1.90625,-0.5625 -1.17188,0 -1.73438,0.40625 -0.5625,0.40625 -0.82812,1.46875 l -1.64063,-0.23438 q 0.23438,-1.04687 0.73438,-1.6875 0.51562,-0.64062 1.46875,-0.98437 0.96875,-0.35938 2.25,-0.35938 1.26562,0 2.04687,0.29688 0.78125,0.29687 1.15625,0.75 0.375,0.45312 0.51563,1.14062 0.0937,0.42188 0.0937,1.53125 l 0,2.23438 q 0,2.32812 0.0937,2.95312 0.10937,0.60938 0.4375,1.17188 l -1.75,0 q -0.26563,-0.51563 -0.32813,-1.21875 z m -0.14062,-3.71875 q -0.90625,0.35937 -2.73438,0.625 -1.03125,0.14062 -1.45312,0.32812 -0.42188,0.1875 -0.65625,0.54688 -0.23438,0.35937 -0.23438,0.79687 0,0.67188 0.5,1.125 0.51563,0.4375 1.48438,0.4375 0.96875,0 1.71875,-0.42187 0.75,-0.4375 1.10937,-1.15625 0.26563,-0.57813 0.26563,-1.67188 l 0,-0.60937 z m 4.07884,4.9375 0,-9.85938 1.5,0 0,1.39063 q 0.45313,-0.71875 1.21875,-1.15625 0.78125,-0.45313 1.76563,-0.45313 1.09375,0 1.79687,0.45313 0.70313,0.45312 0.98438,1.28125 1.17187,-1.73438 3.04687,-1.73438 1.46875,0 2.25,0.8125 0.79688,0.8125 0.79688,2.5 l 0,6.76563 -1.67188,0 0,-6.20313 q 0,-1 -0.15625,-1.4375 -0.15625,-0.45312 -0.59375,-0.71875 -0.42187,-0.26562 -1,-0.26562 -1.03125,0 -1.71875,0.6875 -0.6875,0.6875 -0.6875,2.21875 l 0,5.71875 -1.67187,0 0,-6.40625 q 0,-1.10938 -0.40625,-1.65625 -0.40625,-0.5625 -1.34375,-0.5625 -0.70313,0 -1.3125,0.375 -0.59375,0.35937 -0.85938,1.07812 -0.26562,0.71875 -0.26562,2.0625 l 0,5.10938 -1.67188,0 z m 29.03661,-1.60938 0,1.60938 -8.98438,0 q -0.0156,-0.60938 0.1875,-1.15625 0.34375,-0.92188 1.09375,-1.8125 0.76563,-0.89063 2.1875,-2.0625 2.21875,-1.8125 3,-2.875 0.78125,-1.0625 0.78125,-2.01563 0,-0.98437 -0.71875,-1.67187 -0.70312,-0.6875 -1.84375,-0.6875 -1.20312,0 -1.9375,0.73437 -0.71875,0.71875 -0.71875,2 l -1.71875,-0.17187 q 0.17188,-1.92188 1.32813,-2.92188 1.15625,-1.01562 3.09375,-1.01562 1.95312,0 3.09375,1.09375 1.14062,1.07812 1.14062,2.6875 0,0.8125 -0.34375,1.60937 -0.32812,0.78125 -1.10937,1.65625 -0.76563,0.85938 -2.5625,2.39063 -1.5,1.26562 -1.9375,1.71875 -0.42188,0.4375 -0.70313,0.89062 l 6.67188,0 z"
     id="path3091"
     inkscape:connector-curvature="0"
     style="fill:#ffffff;fill-rule:nonzero" />
  <path
     d="m 97.000009,241.0011 0,64"
     id="path3093"
     inkscape:connector-curvature="0"
     style="stroke:#000000;stroke-width:4;stroke-linecap:butt;stroke-linejoin:round;stroke-dasharray:4, 12" />
  <path
     d="m 289.00001,65.001099 192,0 0,96.000001 -192,0 z"
     id="path3095"
     inkscape:connector-curvature="0"
     style="fill:#3d85c6;fill-rule:nonzero;stroke:#000000;stroke-width:2;stroke-linecap:butt;stroke-linejoin:round" />
  <path
     d="m 332.28633,119.16516 -5.28125,-13.59375 1.95312,0 3.53125,9.875 q 0.4375,1.1875 0.71875,2.21875 0.3125,-1.10938 0.73438,-2.21875 l 3.67187,-9.875 1.84375,0 -5.32812,13.59375 -1.84375,0 z m 15.08423,-3.17188 1.71875,0.21875 q -0.40625,1.5 -1.51563,2.34375 -1.09375,0.82813 -2.8125,0.82813 -2.15625,0 -3.42187,-1.32813 -1.26563,-1.32812 -1.26563,-3.73437 0,-2.48438 1.26563,-3.85938 1.28125,-1.375 3.32812,-1.375 1.98438,0 3.23438,1.34375 1.25,1.34375 1.25,3.79688 0,0.14062 -0.0156,0.4375 l -7.34375,0 q 0.0937,1.625 0.92188,2.48437 0.82812,0.85938 2.0625,0.85938 0.90625,0 1.54687,-0.46875 0.65625,-0.48438 1.04688,-1.54688 z m -5.48438,-2.70312 5.5,0 q -0.10937,-1.23438 -0.625,-1.85938 -0.79687,-0.96875 -2.07812,-0.96875 -1.14063,0 -1.9375,0.78125 -0.78125,0.76563 -0.85938,2.04688 z m 9.09446,5.875 0,-9.85938 1.5,0 0,1.5 q 0.57812,-1.04687 1.0625,-1.375 0.48437,-0.34375 1.07812,-0.34375 0.84375,0 1.71875,0.54688 l -0.57812,1.54687 q -0.60938,-0.35937 -1.23438,-0.35937 -0.54687,0 -0.98437,0.32812 -0.42188,0.32813 -0.60938,0.90625 -0.28125,0.89063 -0.28125,1.95313 l 0,5.15625 -1.67187,0 z m 9.88455,-1.5 0.23437,1.48437 q -0.70312,0.14063 -1.26562,0.14063 -0.90625,0 -1.40625,-0.28125 -0.5,-0.29688 -0.70313,-0.75 -0.20312,-0.46875 -0.20312,-1.98438 l 0,-5.65625 -1.23438,0 0,-1.3125 1.23438,0 0,-2.4375 1.65625,-1 0,3.4375 1.6875,0 0,1.3125 -1.6875,0 0,5.75 q 0,0.71875 0.0781,0.92188 0.0937,0.20312 0.29688,0.32812 0.20312,0.125 0.57812,0.125 0.26563,0 0.73438,-0.0781 z m 8.27704,-1.67188 1.71875,0.21875 q -0.40625,1.5 -1.51563,2.34375 -1.09375,0.82813 -2.8125,0.82813 -2.15625,0 -3.42187,-1.32813 -1.26563,-1.32812 -1.26563,-3.73437 0,-2.48438 1.26563,-3.85938 1.28125,-1.375 3.32812,-1.375 1.98438,0 3.23438,1.34375 1.25,1.34375 1.25,3.79688 0,0.14062 -0.0156,0.4375 l -7.34375,0 q 0.0937,1.625 0.92188,2.48437 0.82812,0.85938 2.0625,0.85938 0.90625,0 1.54687,-0.46875 0.65625,-0.48438 1.04688,-1.54688 z m -5.48438,-2.70312 5.5,0 q -0.10937,-1.23438 -0.625,-1.85938 -0.79687,-0.96875 -2.07812,-0.96875 -1.14063,0 -1.9375,0.78125 -0.78125,0.76563 -0.85938,2.04688 z m 8.00073,5.875 3.59375,-5.125 -3.32812,-4.73438 2.09375,0 1.51562,2.3125 q 0.42188,0.65625 0.67188,1.10938 0.42187,-0.60938 0.76562,-1.09375 l 1.65625,-2.32813 1.98438,0 -3.39063,4.64063 3.65625,5.21875 -2.04687,0 -2.03125,-3.0625 -0.53125,-0.82813 -2.59375,3.89063 -2.01563,0 z m 14.94892,-2.9375 1.65625,-0.26563 q 0.14062,1 0.76562,1.53125 0.64063,0.51563 1.78125,0.51563 1.15625,0 1.70313,-0.46875 0.5625,-0.46875 0.5625,-1.09375 0,-0.5625 -0.48438,-0.89063 -0.34375,-0.21875 -1.70312,-0.5625 -1.84375,-0.46875 -2.5625,-0.79687 -0.70313,-0.34375 -1.07813,-0.9375 -0.35937,-0.60938 -0.35937,-1.32813 0,-0.65625 0.29687,-1.21875 0.3125,-0.5625 0.82813,-0.9375 0.39062,-0.28125 1.0625,-0.48437 0.67187,-0.20313 1.4375,-0.20313 1.17187,0 2.04687,0.34375 0.875,0.32813 1.28125,0.90625 0.42188,0.5625 0.57813,1.51563 l -1.625,0.21875 q -0.10938,-0.75 -0.65625,-1.17188 -0.53125,-0.4375 -1.5,-0.4375 -1.15625,0 -1.64063,0.39063 -0.48437,0.375 -0.48437,0.875 0,0.32812 0.20312,0.59375 0.20313,0.26562 0.64063,0.4375 0.25,0.0937 1.46875,0.4375 1.76562,0.46875 2.46875,0.76562 0.70312,0.29688 1.09375,0.875 0.40625,0.57813 0.40625,1.4375 0,0.82813 -0.48438,1.57813 -0.48437,0.73437 -1.40625,1.14062 -0.92187,0.39063 -2.07812,0.39063 -1.92188,0 -2.9375,-0.79688 -1,-0.79687 -1.28125,-2.35937 z m 10,2.9375 0,-13.59375 1.67187,0 0,4.875 q 1.17188,-1.35938 2.95313,-1.35938 1.09375,0 1.89062,0.4375 0.8125,0.42188 1.15625,1.1875 0.35938,0.76563 0.35938,2.20313 l 0,6.25 -1.67188,0 0,-6.25 q 0,-1.25 -0.54687,-1.8125 -0.54688,-0.57813 -1.53125,-0.57813 -0.75,0 -1.40625,0.39063 -0.64063,0.375 -0.92188,1.04687 -0.28125,0.65625 -0.28125,1.8125 l 0,5.39063 -1.67187,0 z m 16.81323,-1.21875 q -0.9375,0.79687 -1.79688,1.125 -0.85937,0.3125 -1.84375,0.3125 -1.60937,0 -2.48437,-0.78125 -0.875,-0.79688 -0.875,-2.03125 0,-0.73438 0.32812,-1.32813 0.32813,-0.59375 0.85938,-0.95312 0.53125,-0.35938 1.20312,-0.54688 0.5,-0.14062 1.48438,-0.25 2.03125,-0.25 2.98437,-0.57812 0,-0.34375 0,-0.4375 0,-1.01563 -0.46875,-1.4375 -0.64062,-0.5625 -1.90625,-0.5625 -1.17187,0 -1.73437,0.40625 -0.5625,0.40625 -0.82813,1.46875 l -1.64062,-0.23438 q 0.23437,-1.04687 0.73437,-1.6875 0.51563,-0.64062 1.46875,-0.98437 0.96875,-0.35938 2.25,-0.35938 1.26563,0 2.04688,0.29688 0.78125,0.29687 1.15625,0.75 0.375,0.45312 0.51562,1.14062 0.0937,0.42188 0.0937,1.53125 l 0,2.23438 q 0,2.32812 0.0937,2.95312 0.10938,0.60938 0.4375,1.17188 l -1.75,0 q -0.26562,-0.51563 -0.32812,-1.21875 z m -0.14063,-3.71875 q -0.90625,0.35937 -2.73437,0.625 -1.03125,0.14062 -1.45313,0.32812 -0.42187,0.1875 -0.65625,0.54688 -0.23437,0.35937 -0.23437,0.79687 0,0.67188 0.5,1.125 0.51562,0.4375 1.48437,0.4375 0.96875,0 1.71875,-0.42187 0.75,-0.4375 1.10938,-1.15625 0.26562,-0.57813 0.26562,-1.67188 l 0,-0.60937 z m 10.46949,4.9375 0,-1.25 q -0.9375,1.46875 -2.75,1.46875 -1.17188,0 -2.17188,-0.64063 -0.98437,-0.65625 -1.53125,-1.8125 -0.53125,-1.17187 -0.53125,-2.6875 0,-1.46875 0.48438,-2.67187 0.5,-1.20313 1.46875,-1.84375 0.98437,-0.64063 2.20312,-0.64063 0.89063,0 1.57813,0.375 0.70312,0.375 1.14062,0.98438 l 0,-4.875 1.65625,0 0,13.59375 -1.54687,0 z m -5.28125,-4.92188 q 0,1.89063 0.79687,2.82813 0.8125,0.9375 1.89063,0.9375 1.09375,0 1.85937,-0.89063 0.76563,-0.89062 0.76563,-2.73437 0,-2.01563 -0.78125,-2.95313 -0.78125,-0.95312 -1.92188,-0.95312 -1.10937,0 -1.85937,0.90625 -0.75,0.90625 -0.75,2.85937 z m 16.01632,1.75 1.71875,0.21875 q -0.40625,1.5 -1.51562,2.34375 -1.09375,0.82813 -2.8125,0.82813 -2.15625,0 -3.42188,-1.32813 -1.26562,-1.32812 -1.26562,-3.73437 0,-2.48438 1.26562,-3.85938 1.28125,-1.375 3.32813,-1.375 1.98437,0 3.23437,1.34375 1.25,1.34375 1.25,3.79688 0,0.14062 -0.0156,0.4375 l -7.34375,0 q 0.0937,1.625 0.92187,2.48437 0.82813,0.85938 2.0625,0.85938 0.90625,0 1.54688,-0.46875 0.65625,-0.48438 1.04687,-1.54688 z m -5.48437,-2.70312 5.5,0 q -0.10938,-1.23438 -0.625,-1.85938 -0.79688,-0.96875 -2.07813,-0.96875 -1.14062,0 -1.9375,0.78125 -0.78125,0.76563 -0.85937,2.04688 z m 9.09445,5.875 0,-9.85938 1.5,0 0,1.5 q 0.57813,-1.04687 1.0625,-1.375 0.48438,-0.34375 1.07813,-0.34375 0.84375,0 1.71875,0.54688 l -0.57813,1.54687 q -0.60937,-0.35937 -1.23437,-0.35937 -0.54688,0 -0.98438,0.32812 -0.42187,0.32813 -0.60937,0.90625 -0.28125,0.89063 -0.28125,1.95313 l 0,5.15625 -1.67188,0 z"
     id="path3097"
     inkscape:connector-curvature="0"
     style="fill:#ffffff;fill-rule:nonzero" />
  <path
     d="m 201.00001,49.001099 78.29517,56.941961"
     id="path3099"
     inkscape:connector-curvature="0"
     style="stroke:#000000;stroke-width:2;stroke-linecap:butt;stroke-linejoin:round" />
  <path
     d="m 277.35218,108.61467 9.28323,2.66673 -5.39724,-8.00999 z"
     id="path3101"
     inkscape:connector-curvature="0"
     style="fill:#000000;fill-rule:evenodd;stroke:#000000;stroke-width:2;stroke-linecap:butt" />
  <path
     d="m 201.00001,177.0011 78.29517,-56.94196"
     id="path3103"
     inkscape:connector-curvature="0"
     style="stroke:#000000;stroke-width:2;stroke-linecap:butt;stroke-linejoin:round" />
  <path
     d="m 281.23817,122.73079 5.39725,-8.00999 -9.28324,2.66673 z"
     id="path3105"
     inkscape:connector-curvature="0"
     style="fill:#000000;fill-rule:evenodd;stroke:#000000;stroke-width:2;stroke-linecap:butt" />
  <path
     d="m 529.00001,65.001099 200,0 0,96.000001 -200,0 z"
     id="path3107"
     inkscape:connector-curvature="0"
     style="fill:#3d85c6;fill-rule:nonzero;stroke:#000000;stroke-width:2;stroke-linecap:butt;stroke-linejoin:round" />
  <path
     d="m 555.53121,119.16516 0,-13.59375 9.17187,0 0,1.59375 -7.375,0 0,4.21875 6.375,0 0,1.60937 -6.375,0 0,6.17188 -1.79687,0 z m 11.06787,0 0,-9.85938 1.5,0 0,1.5 q 0.57813,-1.04687 1.0625,-1.375 0.48438,-0.34375 1.07813,-0.34375 0.84375,0 1.71875,0.54688 l -0.57813,1.54687 q -0.60937,-0.35937 -1.23437,-0.35937 -0.54688,0 -0.98438,0.32812 -0.42187,0.32813 -0.60937,0.90625 -0.28125,0.89063 -0.28125,1.95313 l 0,5.15625 -1.67188,0 z m 12.66577,-1.21875 q -0.9375,0.79687 -1.79687,1.125 -0.85938,0.3125 -1.84375,0.3125 -1.60938,0 -2.48438,-0.78125 -0.875,-0.79688 -0.875,-2.03125 0,-0.73438 0.32813,-1.32813 0.32812,-0.59375 0.85937,-0.95312 0.53125,-0.35938 1.20313,-0.54688 0.5,-0.14062 1.48437,-0.25 2.03125,-0.25 2.98438,-0.57812 0,-0.34375 0,-0.4375 0,-1.01563 -0.46875,-1.4375 -0.64063,-0.5625 -1.90625,-0.5625 -1.17188,0 -1.73438,0.40625 -0.5625,0.40625 -0.82812,1.46875 l -1.64063,-0.23438 q 0.23438,-1.04687 0.73438,-1.6875 0.51562,-0.64062 1.46875,-0.98437 0.96875,-0.35938 2.25,-0.35938 1.26562,0 2.04687,0.29688 0.78125,0.29687 1.15625,0.75 0.375,0.45312 0.51563,1.14062 0.0937,0.42188 0.0937,1.53125 l 0,2.23438 q 0,2.32812 0.0937,2.95312 0.10937,0.60938 0.4375,1.17188 l -1.75,0 q -0.26563,-0.51563 -0.32813,-1.21875 z m -0.14062,-3.71875 q -0.90625,0.35937 -2.73438,0.625 -1.03125,0.14062 -1.45312,0.32812 -0.42188,0.1875 -0.65625,0.54688 -0.23438,0.35937 -0.23438,0.79687 0,0.67188 0.5,1.125 0.51563,0.4375 1.48438,0.4375 0.96875,0 1.71875,-0.42187 0.75,-0.4375 1.10937,-1.15625 0.26563,-0.57813 0.26563,-1.67188 l 0,-0.60937 z m 3.78198,5.75 1.60937,0.25 q 0.10938,0.75 0.57813,1.09375 0.60937,0.45312 1.6875,0.45312 1.17187,0 1.79687,-0.46875 0.625,-0.45312 0.85938,-1.28125 0.125,-0.51562 0.10937,-2.15625 -1.09375,1.29688 -2.71875,1.29688 -2.03125,0 -3.15625,-1.46875 -1.10937,-1.46875 -1.10937,-3.51563 0,-1.40625 0.51562,-2.59375 0.51563,-1.20312 1.48438,-1.84375 0.96875,-0.65625 2.26562,-0.65625 1.75,0 2.875,1.40625 l 0,-1.1875 1.54688,0 0,8.51563 q 0,2.3125 -0.46875,3.26562 -0.46875,0.96875 -1.48438,1.51563 -1.01562,0.5625 -2.5,0.5625 -1.76562,0 -2.85937,-0.79688 -1.07813,-0.79687 -1.03125,-2.39062 z m 1.375,-5.92188 q 0,1.95313 0.76562,2.84375 0.78125,0.89063 1.9375,0.89063 1.14063,0 1.92188,-0.89063 0.78125,-0.89062 0.78125,-2.78125 0,-1.8125 -0.8125,-2.71875 -0.79688,-0.92187 -1.92188,-0.92187 -1.10937,0 -1.89062,0.90625 -0.78125,0.89062 -0.78125,2.67187 z m 9.29761,5.10938 0,-9.85938 1.5,0 0,1.39063 q 0.45312,-0.71875 1.21875,-1.15625 0.78125,-0.45313 1.76562,-0.45313 1.09375,0 1.79688,0.45313 0.70312,0.45312 0.98437,1.28125 1.17188,-1.73438 3.04688,-1.73438 1.46875,0 2.25,0.8125 0.79687,0.8125 0.79687,2.5 l 0,6.76563 -1.67187,0 0,-6.20313 q 0,-1 -0.15625,-1.4375 -0.15625,-0.45312 -0.59375,-0.71875 -0.42188,-0.26562 -1,-0.26562 -1.03125,0 -1.71875,0.6875 -0.6875,0.6875 -0.6875,2.21875 l 0,5.71875 -1.67188,0 0,-6.40625 q 0,-1.10938 -0.40625,-1.65625 -0.40625,-0.5625 -1.34375,-0.5625 -0.70312,0 -1.3125,0.375 -0.59375,0.35937 -0.85937,1.07812 -0.26563,0.71875 -0.26563,2.0625 l 0,5.10938 -1.67187,0 z m 22.29077,-3.17188 1.71875,0.21875 q -0.40625,1.5 -1.51563,2.34375 -1.09375,0.82813 -2.8125,0.82813 -2.15625,0 -3.42187,-1.32813 -1.26563,-1.32812 -1.26563,-3.73437 0,-2.48438 1.26563,-3.85938 1.28125,-1.375 3.32812,-1.375 1.98438,0 3.23438,1.34375 1.25,1.34375 1.25,3.79688 0,0.14062 -0.0156,0.4375 l -7.34375,0 q 0.0937,1.625 0.92188,2.48437 0.82812,0.85938 2.0625,0.85938 0.90625,0 1.54687,-0.46875 0.65625,-0.48438 1.04688,-1.54688 z m -5.48438,-2.70312 5.5,0 q -0.10937,-1.23438 -0.625,-1.85938 -0.79687,-0.96875 -2.07812,-0.96875 -1.14063,0 -1.9375,0.78125 -0.78125,0.76563 -0.85938,2.04688 z m 9.11011,5.875 0,-9.85938 1.5,0 0,1.40625 q 1.09375,-1.625 3.14062,-1.625 0.89063,0 1.64063,0.32813 0.75,0.3125 1.10937,0.84375 0.375,0.51562 0.53125,1.21875 0.0937,0.46875 0.0937,1.625 l 0,6.0625 -1.67187,0 0,-6 q 0,-1.01563 -0.20313,-1.51563 -0.1875,-0.51562 -0.6875,-0.8125 -0.5,-0.29687 -1.17187,-0.29687 -1.0625,0 -1.84375,0.67187 -0.76563,0.67188 -0.76563,2.57813 l 0,5.375 -1.67187,0 z m 14.03198,-1.5 0.23438,1.48437 q -0.70313,0.14063 -1.26563,0.14063 -0.90625,0 -1.40625,-0.28125 -0.5,-0.29688 -0.70312,-0.75 -0.20313,-0.46875 -0.20313,-1.98438 l 0,-5.65625 -1.23437,0 0,-1.3125 1.23437,0 0,-2.4375 1.65625,-1 0,3.4375 1.6875,0 0,1.3125 -1.6875,0 0,5.75 q 0,0.71875 0.0781,0.92188 0.0937,0.20312 0.29687,0.32812 0.20313,0.125 0.57813,0.125 0.26562,0 0.73437,-0.0781 z m 6.03845,-1.4375 1.65625,-0.26563 q 0.14063,1 0.76563,1.53125 0.64062,0.51563 1.78125,0.51563 1.15625,0 1.70312,-0.46875 0.5625,-0.46875 0.5625,-1.09375 0,-0.5625 -0.48437,-0.89063 -0.34375,-0.21875 -1.70313,-0.5625 -1.84375,-0.46875 -2.5625,-0.79687 -0.70312,-0.34375 -1.07812,-0.9375 -0.35938,-0.60938 -0.35938,-1.32813 0,-0.65625 0.29688,-1.21875 0.3125,-0.5625 0.82812,-0.9375 0.39063,-0.28125 1.0625,-0.48437 0.67188,-0.20313 1.4375,-0.20313 1.17188,0 2.04688,0.34375 0.875,0.32813 1.28125,0.90625 0.42187,0.5625 0.57812,1.51563 l -1.625,0.21875 q -0.10937,-0.75 -0.65625,-1.17188 -0.53125,-0.4375 -1.5,-0.4375 -1.15625,0 -1.64062,0.39063 -0.48438,0.375 -0.48438,0.875 0,0.32812 0.20313,0.59375 0.20312,0.26562 0.64062,0.4375 0.25,0.0937 1.46875,0.4375 1.76563,0.46875 2.46875,0.76562 0.70313,0.29688 1.09375,0.875 0.40625,0.57813 0.40625,1.4375 0,0.82813 -0.48437,1.57813 -0.48438,0.73437 -1.40625,1.14062 -0.92188,0.39063 -2.07813,0.39063 -1.92187,0 -2.9375,-0.79688 -1,-0.79687 -1.28125,-2.35937 z m 10,2.9375 0,-13.59375 1.67188,0 0,4.875 q 1.17187,-1.35938 2.95312,-1.35938 1.09375,0 1.89063,0.4375 0.8125,0.42188 1.15625,1.1875 0.35937,0.76563 0.35937,2.20313 l 0,6.25 -1.67187,0 0,-6.25 q 0,-1.25 -0.54688,-1.8125 -0.54687,-0.57813 -1.53125,-0.57813 -0.75,0 -1.40625,0.39063 -0.64062,0.375 -0.92187,1.04687 -0.28125,0.65625 -0.28125,1.8125 l 0,5.39063 -1.67188,0 z m 16.81324,-1.21875 q -0.9375,0.79687 -1.79688,1.125 -0.85937,0.3125 -1.84375,0.3125 -1.60937,0 -2.48437,-0.78125 -0.875,-0.79688 -0.875,-2.03125 0,-0.73438 0.32812,-1.32813 0.32813,-0.59375 0.85938,-0.95312 0.53125,-0.35938 1.20312,-0.54688 0.5,-0.14062 1.48438,-0.25 2.03125,-0.25 2.98437,-0.57812 0,-0.34375 0,-0.4375 0,-1.01563 -0.46875,-1.4375 -0.64062,-0.5625 -1.90625,-0.5625 -1.17187,0 -1.73437,0.40625 -0.5625,0.40625 -0.82813,1.46875 l -1.64062,-0.23438 q 0.23437,-1.04687 0.73437,-1.6875 0.51563,-0.64062 1.46875,-0.98437 0.96875,-0.35938 2.25,-0.35938 1.26563,0 2.04688,0.29688 0.78125,0.29687 1.15625,0.75 0.375,0.45312 0.51562,1.14062 0.0937,0.42188 0.0937,1.53125 l 0,2.23438 q 0,2.32812 0.0937,2.95312 0.10938,0.60938 0.4375,1.17188 l -1.75,0 q -0.26562,-0.51563 -0.32812,-1.21875 z m -0.14063,-3.71875 q -0.90625,0.35937 -2.73437,0.625 -1.03125,0.14062 -1.45313,0.32812 -0.42187,0.1875 -0.65625,0.54688 -0.23437,0.35937 -0.23437,0.79687 0,0.67188 0.5,1.125 0.51562,0.4375 1.48437,0.4375 0.96875,0 1.71875,-0.42187 0.75,-0.4375 1.10938,-1.15625 0.26562,-0.57813 0.26562,-1.67188 l 0,-0.60937 z m 10.46948,4.9375 0,-1.25 q -0.9375,1.46875 -2.75,1.46875 -1.17187,0 -2.17187,-0.64063 -0.98438,-0.65625 -1.53125,-1.8125 -0.53125,-1.17187 -0.53125,-2.6875 0,-1.46875 0.48437,-2.67187 0.5,-1.20313 1.46875,-1.84375 0.98438,-0.64063 2.20313,-0.64063 0.89062,0 1.57812,0.375 0.70313,0.375 1.14063,0.98438 l 0,-4.875 1.65625,0 0,13.59375 -1.54688,0 z m -5.28125,-4.92188 q 0,1.89063 0.79688,2.82813 0.8125,0.9375 1.89062,0.9375 1.09375,0 1.85938,-0.89063 0.76562,-0.89062 0.76562,-2.73437 0,-2.01563 -0.78125,-2.95313 -0.78125,-0.95312 -1.92187,-0.95312 -1.10938,0 -1.85938,0.90625 -0.75,0.90625 -0.75,2.85937 z m 16.0163,1.75 1.71875,0.21875 q -0.40625,1.5 -1.51563,2.34375 -1.09375,0.82813 -2.8125,0.82813 -2.15625,0 -3.42187,-1.32813 -1.26563,-1.32812 -1.26563,-3.73437 0,-2.48438 1.26563,-3.85938 1.28125,-1.375 3.32812,-1.375 1.98438,0 3.23438,1.34375 1.25,1.34375 1.25,3.79688 0,0.14062 -0.0156,0.4375 l -7.34375,0 q 0.0937,1.625 0.92188,2.48437 0.82812,0.85938 2.0625,0.85938 0.90625,0 1.54687,-0.46875 0.65625,-0.48438 1.04688,-1.54688 z m -5.48438,-2.70312 5.5,0 q -0.10937,-1.23438 -0.625,-1.85938 -0.79687,-0.96875 -2.07812,-0.96875 -1.14063,0 -1.9375,0.78125 -0.78125,0.76563 -0.85938,2.04688 z m 9.09449,5.875 0,-9.85938 1.5,0 0,1.5 q 0.57812,-1.04687 1.0625,-1.375 0.48437,-0.34375 1.07812,-0.34375 0.84375,0 1.71875,0.54688 l -0.57812,1.54687 q -0.60938,-0.35937 -1.23438,-0.35937 -0.54687,0 -0.98437,0.32812 -0.42188,0.32813 -0.60938,0.90625 -0.28125,0.89063 -0.28125,1.95313 l 0,5.15625 -1.67187,0 z"
     id="path3109"
     inkscape:connector-curvature="0"
     style="fill:#ffffff;fill-rule:nonzero" />
  <path
     d="m 481.00001,113.0011 36,0"
     id="path3111"
     inkscape:connector-curvature="0"
     style="stroke:#000000;stroke-width:2;stroke-linecap:butt;stroke-linejoin:round" />
  <path
     d="m 517.00001,116.30457 9.07617,-3.30347 -9.07617,-3.30346 z"
     id="path3113"
     inkscape:connector-curvature="0"
     style="fill:#000000;fill-rule:evenodd;stroke:#000000;stroke-width:2;stroke-linecap:butt" />
</svg>
