<?xml version="1.0" encoding="UTF-8" standalone="no"?>
<svg
   xmlns:dc="http://purl.org/dc/elements/1.1/"
   xmlns:cc="http://creativecommons.org/ns#"
   xmlns:rdf="http://www.w3.org/1999/02/22-rdf-syntax-ns#"
   xmlns:svg="http://www.w3.org/2000/svg"
   xmlns="http://www.w3.org/2000/svg"
   xmlns:sodipodi="http://sodipodi.sourceforge.net/DTD/sodipodi-0.dtd"
   xmlns:inkscape="http://www.inkscape.org/namespaces/inkscape"
   version="1.1"
   viewBox="0 0 802.10444 308.63576"
   stroke-miterlimit="10"
   clip-path="url(#p.0)"
   id="svg3135"
   inkscape:version="0.48.2 r9819"
   width="100%"
   height="100%"
   sodipodi:docname="stream-processing-with-shaders.svg"
   style="fill:none;stroke:none">
  <metadata
     id="metadata3178">
    <rdf:RDF>
      <cc:Work
         rdf:about="">
        <dc:format>image/svg+xml</dc:format>
        <dc:type
           rdf:resource="http://purl.org/dc/dcmitype/StillImage" />
      </cc:Work>
    </rdf:RDF>
  </metadata>
  <defs
     id="defs3176" />
  <sodipodi:namedview
     pagecolor="#ffffff"
     bordercolor="#666666"
     borderopacity="1"
     objecttolerance="10"
     gridtolerance="10"
     guidetolerance="10"
     inkscape:pageopacity="0"
     inkscape:pageshadow="2"
     inkscape:window-width="1255"
     inkscape:window-height="1016"
     id="namedview3174"
     showgrid="false"
     fit-margin-top="0"
     fit-margin-left="0"
     fit-margin-right="0"
     fit-margin-bottom="0"
     inkscape:zoom="1.0444444"
     inkscape:cx="401.15228"
     inkscape:cy="11.56647"
     inkscape:window-x="0"
     inkscape:window-y="0"
     inkscape:window-maximized="0"
     inkscape:current-layer="svg3135" />
  <clipPath
     id="p.0">
    <path
       d="M 0,0 960,0 960,720 0,720 0,0 z"
       clip-rule="nonzero"
       id="path3138"
       inkscape:connector-curvature="0" />
  </clipPath>
  <path
     d="m 1.084565,129.21988 224.188965,0 0,112.00001 -224.188965,0 z"
     id="path3140"
     inkscape:connector-curvature="0"
     style="fill:#cfe2f3;fill-rule:nonzero;stroke:#000000;stroke-width:2;stroke-linecap:butt;stroke-linejoin:round" />
  <path
     d="m 297.08456,65.219864 224.18899,0 0,111.999996 -224.18899,0 z"
     id="path3142"
     inkscape:connector-curvature="0"
     style="fill:#cfe2f3;fill-rule:nonzero;stroke:#000000;stroke-width:2;stroke-linecap:butt;stroke-linejoin:round" />
  <path
     d="m 1,1 224.18897,0 0,112 L 1,113 z"
     id="path3144"
     inkscape:connector-curvature="0"
     style="fill:#cfe2f3;fill-rule:nonzero;stroke:#000000;stroke-width:2;stroke-linecap:butt;stroke-linejoin:round" />
  <path
     d="m 576.91548,64.949264 224.18896,0 0,111.999996 -224.18896,0 z"
     id="path3146"
     inkscape:connector-curvature="0"
     style="fill:#cfe2f3;fill-rule:nonzero;stroke:#000000;stroke-width:2;stroke-linecap:butt;stroke-linejoin:round" />
  <path
     d="m 56.156245,62.979654 0,-13.59375 4.6875,0 q 1.57812,0 2.42187,0.1875 1.15625,0.26562 1.98438,0.96875 1.07812,0.92187 1.60937,2.34375 0.53125,1.40625 0.53125,3.21875 0,1.54687 -0.35937,2.75 -0.35938,1.1875 -0.92188,1.98437 -0.5625,0.78125 -1.23437,1.23438 -0.67188,0.4375 -1.625,0.67187 -0.95313,0.23438 -2.1875,0.23438 l -4.90625,0 z m 1.79687,-1.60938 2.90625,0 q 1.34375,0 2.10938,-0.25 0.76562,-0.25 1.21875,-0.70312 0.64062,-0.64063 1,-1.71875 0.35937,-1.07813 0.35937,-2.625 0,-2.125 -0.70312,-3.26563 -0.70313,-1.15625 -1.70313,-1.54687 -0.71875,-0.28125 -2.32812,-0.28125 l -2.85938,0 0,10.39062 z m 17.89483,0.39063 q -0.9375,0.79687 -1.79688,1.125 -0.85937,0.3125 -1.84375,0.3125 -1.60937,0 -2.48437,-0.78125 -0.875,-0.79688 -0.875,-2.03125 0,-0.73438 0.32812,-1.32813 0.32813,-0.59375 0.85938,-0.95312 0.53125,-0.35938 1.20312,-0.54688 0.5,-0.14062 1.48438,-0.25 2.03125,-0.25 2.98437,-0.57812 0,-0.34375 0,-0.4375 0,-1.01563 -0.46875,-1.4375 -0.64062,-0.5625 -1.90625,-0.5625 -1.17187,0 -1.73437,0.40625 -0.5625,0.40625 -0.82813,1.46875 l -1.64062,-0.23438 q 0.23437,-1.04687 0.73437,-1.6875 0.51563,-0.64062 1.46875,-0.98437 0.96875,-0.35938 2.25,-0.35938 1.26563,0 2.04688,0.29688 0.78125,0.29687 1.15625,0.75 0.375,0.45312 0.51562,1.14062 0.0937,0.42188 0.0937,1.53125 l 0,2.23438 q 0,2.32812 0.0937,2.95312 0.10938,0.60938 0.4375,1.17188 l -1.75,0 q -0.26562,-0.51563 -0.32812,-1.21875 z m -0.14063,-3.71875 q -0.90625,0.35937 -2.73437,0.625 -1.03125,0.14062 -1.45313,0.32812 -0.42187,0.1875 -0.65625,0.54688 -0.23437,0.35937 -0.23437,0.79687 0,0.67188 0.5,1.125 0.51562,0.4375 1.48437,0.4375 0.96875,0 1.71875,-0.42187 0.75,-0.4375 1.10938,-1.15625 0.26562,-0.57813 0.26562,-1.67188 l 0,-0.60937 z m 7.73509,3.4375 0.23438,1.48437 q -0.70313,0.14063 -1.26563,0.14063 -0.90625,0 -1.40625,-0.28125 -0.5,-0.29688 -0.70312,-0.75 -0.20313,-0.46875 -0.20313,-1.98438 l 0,-5.65625 -1.23437,0 0,-1.3125 1.23437,0 0,-2.4375 1.65625,-1 0,3.4375 1.6875,0 0,1.3125 -1.6875,0 0,5.75 q 0,0.71875 0.0781,0.92188 0.0937,0.20312 0.29687,0.32812 0.20313,0.125 0.57813,0.125 0.26562,0 0.73437,-0.0781 z m 7.96456,0.28125 q -0.9375,0.79687 -1.79688,1.125 -0.85937,0.3125 -1.84375,0.3125 -1.60937,0 -2.48437,-0.78125 -0.875,-0.79688 -0.875,-2.03125 0,-0.73438 0.32812,-1.32813 0.32813,-0.59375 0.85938,-0.95312 0.53125,-0.35938 1.20312,-0.54688 0.5,-0.14062 1.48438,-0.25 2.03125,-0.25 2.98437,-0.57812 0,-0.34375 0,-0.4375 0,-1.01563 -0.46875,-1.4375 -0.64062,-0.5625 -1.90625,-0.5625 -1.17187,0 -1.73437,0.40625 -0.5625,0.40625 -0.82813,1.46875 l -1.64062,-0.23438 q 0.23437,-1.04687 0.73437,-1.6875 0.51563,-0.64062 1.46875,-0.98437 0.96875,-0.35938 2.25,-0.35938 1.26563,0 2.04688,0.29688 0.78125,0.29687 1.15625,0.75 0.375,0.45312 0.51562,1.14062 0.0937,0.42188 0.0937,1.53125 l 0,2.23438 q 0,2.32812 0.0937,2.95312 0.10938,0.60938 0.4375,1.17188 l -1.75,0 q -0.26562,-0.51563 -0.32812,-1.21875 z m -0.14063,-3.71875 q -0.90625,0.35937 -2.73437,0.625 -1.03125,0.14062 -1.45313,0.32812 -0.42187,0.1875 -0.65625,0.54688 -0.23437,0.35937 -0.23437,0.79687 0,0.67188 0.5,1.125 0.51562,0.4375 1.48437,0.4375 0.96875,0 1.71875,-0.42187 0.75,-0.4375 1.10938,-1.15625 0.26562,-0.57813 0.26562,-1.67188 l 0,-0.60937 z m 8.59027,2 1.656255,-0.26563 q 0.14063,1 0.76563,1.53125 0.64062,0.51563 1.78125,0.51563 1.15625,0 1.70312,-0.46875 0.5625,-0.46875 0.5625,-1.09375 0,-0.5625 -0.48437,-0.89063 -0.34375,-0.21875 -1.70313,-0.5625 -1.84375,-0.46875 -2.5625,-0.79687 -0.70312,-0.34375 -1.07812,-0.9375 -0.35938,-0.60938 -0.35938,-1.32813 0,-0.65625 0.29688,-1.21875 0.3125,-0.5625 0.82812,-0.9375 0.39063,-0.28125 1.0625,-0.48437 0.67188,-0.20313 1.4375,-0.20313 1.17188,0 2.04688,0.34375 0.875,0.32813 1.28125,0.90625 0.42187,0.5625 0.57812,1.51563 l -1.625,0.21875 q -0.10937,-0.75 -0.65625,-1.17188 -0.53125,-0.4375 -1.5,-0.4375 -1.15625,0 -1.64062,0.39063 -0.48438,0.375 -0.48438,0.875 0,0.32812 0.20313,0.59375 0.20312,0.26562 0.64062,0.4375 0.25,0.0937 1.46875,0.4375 1.76563,0.46875 2.46875,0.76562 0.70313,0.29688 1.09375,0.875 0.40625,0.57813 0.40625,1.4375 0,0.82813 -0.48437,1.57813 -0.48438,0.73437 -1.40625,1.14062 -0.92188,0.39063 -2.07813,0.39063 -1.92187,0 -2.9375,-0.79688 -1,-0.79687 -1.281255,-2.35937 z m 13.656255,1.4375 0.23438,1.48437 q -0.70313,0.14063 -1.26563,0.14063 -0.90625,0 -1.40625,-0.28125 -0.5,-0.29688 -0.70312,-0.75 -0.20313,-0.46875 -0.20313,-1.98438 l 0,-5.65625 -1.23437,0 0,-1.3125 1.23437,0 0,-2.4375 1.65625,-1 0,3.4375 1.6875,0 0,1.3125 -1.6875,0 0,5.75 q 0,0.71875 0.0781,0.92188 0.0937,0.20312 0.29687,0.32812 0.20313,0.125 0.57813,0.125 0.26562,0 0.73437,-0.0781 z m 1.51143,1.5 0,-9.85938 1.5,0 0,1.5 q 0.57813,-1.04687 1.0625,-1.375 0.48438,-0.34375 1.07813,-0.34375 0.84375,0 1.71875,0.54688 l -0.57813,1.54687 q -0.60937,-0.35937 -1.23437,-0.35937 -0.54688,0 -0.98438,0.32812 -0.42187,0.32813 -0.60937,0.90625 -0.28125,0.89063 -0.28125,1.95313 l 0,5.15625 -1.67188,0 z m 12.9783,-3.17188 1.71875,0.21875 q -0.40625,1.5 -1.51562,2.34375 -1.09375,0.82813 -2.8125,0.82813 -2.15625,0 -3.42188,-1.32813 -1.26562,-1.32812 -1.26562,-3.73437 0,-2.48438 1.26562,-3.85938 1.28125,-1.375 3.32813,-1.375 1.98437,0 3.23437,1.34375 1.25,1.34375 1.25,3.79688 0,0.14062 -0.0156,0.4375 l -7.34375,0 q 0.0937,1.625 0.92187,2.48437 0.82813,0.85938 2.0625,0.85938 0.90625,0 1.54688,-0.46875 0.65625,-0.48438 1.04687,-1.54688 z m -5.48437,-2.70312 5.5,0 q -0.10938,-1.23438 -0.625,-1.85938 -0.79688,-0.96875 -2.07813,-0.96875 -1.14062,0 -1.9375,0.78125 -0.78125,0.76563 -0.85937,2.04688 z m 15.54759,4.65625 q -0.9375,0.79687 -1.79687,1.125 -0.85938,0.3125 -1.84375,0.3125 -1.60938,0 -2.48438,-0.78125 -0.875,-0.79688 -0.875,-2.03125 0,-0.73438 0.32813,-1.32813 0.32812,-0.59375 0.85937,-0.95312 0.53125,-0.35938 1.20313,-0.54688 0.5,-0.14062 1.48437,-0.25 2.03125,-0.25 2.98438,-0.57812 0,-0.34375 0,-0.4375 0,-1.01563 -0.46875,-1.4375 -0.64063,-0.5625 -1.90625,-0.5625 -1.17188,0 -1.73438,0.40625 -0.5625,0.40625 -0.82812,1.46875 l -1.64063,-0.23438 q 0.23438,-1.04687 0.73438,-1.6875 0.51562,-0.64062 1.46875,-0.98437 0.96875,-0.35938 2.25,-0.35938 1.26562,0 2.04687,0.29688 0.78125,0.29687 1.15625,0.75 0.375,0.45312 0.51563,1.14062 0.0937,0.42188 0.0937,1.53125 l 0,2.23438 q 0,2.32812 0.0937,2.95312 0.10937,0.60938 0.4375,1.17188 l -1.75,0 q -0.26563,-0.51563 -0.32813,-1.21875 z m -0.14062,-3.71875 q -0.90625,0.35937 -2.73438,0.625 -1.03125,0.14062 -1.45312,0.32812 -0.42188,0.1875 -0.65625,0.54688 -0.23438,0.35937 -0.23438,0.79687 0,0.67188 0.5,1.125 0.51563,0.4375 1.48438,0.4375 0.96875,0 1.71875,-0.42187 0.75,-0.4375 1.10937,-1.15625 0.26563,-0.57813 0.26563,-1.67188 l 0,-0.60937 z m 4.07884,4.9375 0,-9.85938 1.5,0 0,1.39063 q 0.45312,-0.71875 1.21875,-1.15625 0.78125,-0.45313 1.76562,-0.45313 1.09375,0 1.79688,0.45313 0.70312,0.45312 0.98437,1.28125 1.17188,-1.73438 3.04688,-1.73438 1.46875,0 2.25,0.8125 0.79687,0.8125 0.79687,2.5 l 0,6.76563 -1.67187,0 0,-6.20313 q 0,-1 -0.15625,-1.4375 -0.15625,-0.45312 -0.59375,-0.71875 -0.42188,-0.26562 -1,-0.26562 -1.03125,0 -1.71875,0.6875 -0.6875,0.6875 -0.6875,2.21875 l 0,5.71875 -1.67188,0 0,-6.40625 q 0,-1.10938 -0.40625,-1.65625 -0.40625,-0.5625 -1.34375,-0.5625 -0.70312,0 -1.3125,0.375 -0.59375,0.35937 -0.85937,1.07812 -0.26563,0.71875 -0.26563,2.0625 l 0,5.10938 -1.67187,0 z m 26.55223,0 -1.67188,0 0,-10.64063 q -0.59375,0.57813 -1.57812,1.15625 -0.98438,0.5625 -1.76563,0.85938 l 0,-1.625 q 1.40625,-0.65625 2.45313,-1.59375 1.04687,-0.9375 1.48437,-1.8125 l 1.07813,0 0,13.65625 z"
     id="path3148"
     inkscape:connector-curvature="0"
     style="fill:#000000;fill-rule:nonzero" />
  <path
     d="m 55.902545,191.23335 0,-13.59375 4.6875,0 q 1.57812,0 2.42187,0.1875 1.15625,0.26562 1.98438,0.96875 1.07812,0.92187 1.60937,2.34375 0.53125,1.40625 0.53125,3.21875 0,1.54687 -0.35937,2.75 -0.35938,1.1875 -0.92188,1.98437 -0.5625,0.78125 -1.23437,1.23438 -0.67188,0.4375 -1.625,0.67187 -0.95313,0.23438 -2.1875,0.23438 l -4.90625,0 z m 1.79687,-1.60938 2.90625,0 q 1.34375,0 2.10938,-0.25 0.76562,-0.25 1.21875,-0.70312 0.64062,-0.64063 1,-1.71875 0.35937,-1.07813 0.35937,-2.625 0,-2.125 -0.70312,-3.26563 -0.70313,-1.15625 -1.70313,-1.54687 -0.71875,-0.28125 -2.32812,-0.28125 l -2.85938,0 0,10.39062 z m 17.89483,0.39063 q -0.9375,0.79687 -1.79688,1.125 -0.85937,0.3125 -1.84375,0.3125 -1.60937,0 -2.48437,-0.78125 -0.875,-0.79688 -0.875,-2.03125 0,-0.73438 0.32812,-1.32813 0.32813,-0.59375 0.85938,-0.95312 0.53125,-0.35938 1.20312,-0.54688 0.5,-0.14062 1.48438,-0.25 2.03125,-0.25 2.98437,-0.57812 0,-0.34375 0,-0.4375 0,-1.01563 -0.46875,-1.4375 -0.64062,-0.5625 -1.90625,-0.5625 -1.17187,0 -1.73437,0.40625 -0.5625,0.40625 -0.82813,1.46875 l -1.64062,-0.23438 q 0.23437,-1.04687 0.73437,-1.6875 0.51563,-0.64062 1.46875,-0.98437 0.96875,-0.35938 2.25,-0.35938 1.26563,0 2.04688,0.29688 0.78125,0.29687 1.15625,0.75 0.375,0.45312 0.51562,1.14062 0.0937,0.42188 0.0937,1.53125 l 0,2.23438 q 0,2.32812 0.0937,2.95312 0.10938,0.60938 0.4375,1.17188 l -1.75,0 q -0.26562,-0.51563 -0.32812,-1.21875 z m -0.14063,-3.71875 q -0.90625,0.35937 -2.73437,0.625 -1.03125,0.14062 -1.45313,0.32812 -0.42187,0.1875 -0.65625,0.54688 -0.23437,0.35937 -0.23437,0.79687 0,0.67188 0.5,1.125 0.51562,0.4375 1.48437,0.4375 0.96875,0 1.71875,-0.42187 0.75,-0.4375 1.10938,-1.15625 0.26562,-0.57813 0.26562,-1.67188 l 0,-0.60937 z m 7.73509,3.4375 0.23438,1.48437 q -0.70313,0.14063 -1.26563,0.14063 -0.90625,0 -1.40625,-0.28125 -0.5,-0.29688 -0.70312,-0.75 -0.20313,-0.46875 -0.20313,-1.98438 l 0,-5.65625 -1.23437,0 0,-1.3125 1.23437,0 0,-2.4375 1.65625,-1 0,3.4375 1.6875,0 0,1.3125 -1.6875,0 0,5.75 q 0,0.71875 0.0781,0.92188 0.0937,0.20312 0.29687,0.32812 0.20313,0.125 0.57813,0.125 0.26562,0 0.73437,-0.0781 z m 7.96456,0.28125 q -0.9375,0.79687 -1.79688,1.125 -0.85937,0.3125 -1.84375,0.3125 -1.60937,0 -2.48437,-0.78125 -0.875,-0.79688 -0.875,-2.03125 0,-0.73438 0.32812,-1.32813 0.32813,-0.59375 0.85938,-0.95312 0.53125,-0.35938 1.20312,-0.54688 0.5,-0.14062 1.48438,-0.25 2.03125,-0.25 2.98437,-0.57812 0,-0.34375 0,-0.4375 0,-1.01563 -0.46875,-1.4375 -0.64062,-0.5625 -1.90625,-0.5625 -1.17187,0 -1.73437,0.40625 -0.5625,0.40625 -0.82813,1.46875 l -1.64062,-0.23438 q 0.23437,-1.04687 0.73437,-1.6875 0.51563,-0.64062 1.46875,-0.98437 0.96875,-0.35938 2.25,-0.35938 1.26563,0 2.04688,0.29688 0.78125,0.29687 1.15625,0.75 0.375,0.45312 0.51562,1.14062 0.0937,0.42188 0.0937,1.53125 l 0,2.23438 q 0,2.32812 0.0937,2.95312 0.10938,0.60938 0.4375,1.17188 l -1.75,0 q -0.26562,-0.51563 -0.32812,-1.21875 z m -0.14063,-3.71875 q -0.90625,0.35937 -2.73437,0.625 -1.03125,0.14062 -1.45313,0.32812 -0.42187,0.1875 -0.65625,0.54688 -0.23437,0.35937 -0.23437,0.79687 0,0.67188 0.5,1.125 0.51562,0.4375 1.48437,0.4375 0.96875,0 1.71875,-0.42187 0.75,-0.4375 1.10938,-1.15625 0.26562,-0.57813 0.26562,-1.67188 l 0,-0.60937 z m 8.59027,2 1.656255,-0.26563 q 0.14063,1 0.76563,1.53125 0.64062,0.51563 1.78125,0.51563 1.15625,0 1.70312,-0.46875 0.5625,-0.46875 0.5625,-1.09375 0,-0.5625 -0.48437,-0.89063 -0.34375,-0.21875 -1.70313,-0.5625 -1.84375,-0.46875 -2.5625,-0.79687 -0.70312,-0.34375 -1.07812,-0.9375 -0.359385,-0.60938 -0.359385,-1.32813 0,-0.65625 0.296885,-1.21875 0.3125,-0.5625 0.82812,-0.9375 0.39063,-0.28125 1.0625,-0.48437 0.67188,-0.20313 1.4375,-0.20313 1.17188,0 2.04688,0.34375 0.875,0.32813 1.28125,0.90625 0.42187,0.5625 0.57812,1.51563 l -1.625,0.21875 q -0.10937,-0.75 -0.65625,-1.17188 -0.53125,-0.4375 -1.5,-0.4375 -1.15625,0 -1.64062,0.39063 -0.48438,0.375 -0.48438,0.875 0,0.32812 0.20313,0.59375 0.20312,0.26562 0.64062,0.4375 0.25,0.0937 1.46875,0.4375 1.76563,0.46875 2.46875,0.76562 0.70313,0.29688 1.09375,0.875 0.40625,0.57813 0.40625,1.4375 0,0.82813 -0.48437,1.57813 -0.48438,0.73437 -1.40625,1.14062 -0.92188,0.39063 -2.07813,0.39063 -1.92187,0 -2.9375,-0.79688 -1.000005,-0.79687 -1.281255,-2.35937 z m 13.656255,1.4375 0.23438,1.48437 q -0.70313,0.14063 -1.26563,0.14063 -0.90625,0 -1.40625,-0.28125 -0.5,-0.29688 -0.70312,-0.75 -0.20313,-0.46875 -0.20313,-1.98438 l 0,-5.65625 -1.23437,0 0,-1.3125 1.23437,0 0,-2.4375 1.65625,-1 0,3.4375 1.6875,0 0,1.3125 -1.6875,0 0,5.75 q 0,0.71875 0.0781,0.92188 0.0937,0.20312 0.29687,0.32812 0.20313,0.125 0.57813,0.125 0.26562,0 0.73437,-0.0781 z m 1.51143,1.5 0,-9.85938 1.5,0 0,1.5 q 0.57813,-1.04687 1.0625,-1.375 0.48438,-0.34375 1.07813,-0.34375 0.84375,0 1.71875,0.54688 l -0.57813,1.54687 q -0.60937,-0.35937 -1.23437,-0.35937 -0.54688,0 -0.98438,0.32812 -0.42187,0.32813 -0.60937,0.90625 -0.28125,0.89063 -0.28125,1.95313 l 0,5.15625 -1.67188,0 z m 12.9783,-3.17188 1.71875,0.21875 q -0.40625,1.5 -1.51562,2.34375 -1.09375,0.82813 -2.8125,0.82813 -2.15625,0 -3.42188,-1.32813 -1.26562,-1.32812 -1.26562,-3.73437 0,-2.48438 1.26562,-3.85938 1.28125,-1.375 3.32813,-1.375 1.98437,0 3.23437,1.34375 1.25,1.34375 1.25,3.79688 0,0.14062 -0.0156,0.4375 l -7.34375,0 q 0.0937,1.625 0.92187,2.48437 0.82813,0.85938 2.0625,0.85938 0.90625,0 1.54688,-0.46875 0.65625,-0.48438 1.04687,-1.54688 z m -5.48437,-2.70312 5.5,0 q -0.10938,-1.23438 -0.625,-1.85938 -0.79688,-0.96875 -2.07813,-0.96875 -1.14062,0 -1.9375,0.78125 -0.78125,0.76563 -0.85937,2.04688 z m 15.54759,4.65625 q -0.9375,0.79687 -1.79687,1.125 -0.85938,0.3125 -1.84375,0.3125 -1.60938,0 -2.48438,-0.78125 -0.875,-0.79688 -0.875,-2.03125 0,-0.73438 0.32813,-1.32813 0.32812,-0.59375 0.85937,-0.95312 0.53125,-0.35938 1.20313,-0.54688 0.5,-0.14062 1.48437,-0.25 2.03125,-0.25 2.98438,-0.57812 0,-0.34375 0,-0.4375 0,-1.01563 -0.46875,-1.4375 -0.64063,-0.5625 -1.90625,-0.5625 -1.17188,0 -1.73438,0.40625 -0.5625,0.40625 -0.82812,1.46875 l -1.64063,-0.23438 q 0.23438,-1.04687 0.73438,-1.6875 0.51562,-0.64062 1.46875,-0.98437 0.96875,-0.35938 2.25,-0.35938 1.26562,0 2.04687,0.29688 0.78125,0.29687 1.15625,0.75 0.375,0.45312 0.51563,1.14062 0.0937,0.42188 0.0937,1.53125 l 0,2.23438 q 0,2.32812 0.0937,2.95312 0.10937,0.60938 0.4375,1.17188 l -1.75,0 q -0.26563,-0.51563 -0.32813,-1.21875 z m -0.14062,-3.71875 q -0.90625,0.35937 -2.73438,0.625 -1.03125,0.14062 -1.45312,0.32812 -0.42188,0.1875 -0.65625,0.54688 -0.23438,0.35937 -0.23438,0.79687 0,0.67188 0.5,1.125 0.51563,0.4375 1.48438,0.4375 0.96875,0 1.71875,-0.42187 0.75,-0.4375 1.10937,-1.15625 0.26563,-0.57813 0.26563,-1.67188 l 0,-0.60937 z m 4.07884,4.9375 0,-9.85938 1.5,0 0,1.39063 q 0.45312,-0.71875 1.21875,-1.15625 0.78125,-0.45313 1.76562,-0.45313 1.09375,0 1.79688,0.45313 0.70312,0.45312 0.98437,1.28125 1.17188,-1.73438 3.04688,-1.73438 1.46875,0 2.25,0.8125 0.79687,0.8125 0.79687,2.5 l 0,6.76563 -1.67187,0 0,-6.20313 q 0,-1 -0.15625,-1.4375 -0.15625,-0.45312 -0.59375,-0.71875 -0.42188,-0.26562 -1,-0.26562 -1.03125,0 -1.71875,0.6875 -0.6875,0.6875 -0.6875,2.21875 l 0,5.71875 -1.67188,0 0,-6.40625 q 0,-1.10938 -0.40625,-1.65625 -0.40625,-0.5625 -1.34375,-0.5625 -0.70312,0 -1.3125,0.375 -0.59375,0.35937 -0.85937,1.07812 -0.26563,0.71875 -0.26563,2.0625 l 0,5.10938 -1.67187,0 z m 29.0366,-1.60938 0,1.60938 -8.98437,0 q -0.0156,-0.60938 0.1875,-1.15625 0.34375,-0.92188 1.09375,-1.8125 0.76562,-0.89063 2.1875,-2.0625 2.21875,-1.8125 3,-2.875 0.78125,-1.0625 0.78125,-2.01563 0,-0.98437 -0.71875,-1.67187 -0.70313,-0.6875 -1.84375,-0.6875 -1.20313,0 -1.9375,0.73437 -0.71875,0.71875 -0.71875,2 l -1.71875,-0.17187 q 0.17187,-1.92188 1.32812,-2.92188 1.15625,-1.01562 3.09375,-1.01562 1.95313,0 3.09375,1.09375 1.14063,1.07812 1.14063,2.6875 0,0.8125 -0.34375,1.60937 -0.32813,0.78125 -1.10938,1.65625 -0.76562,0.85938 -2.5625,2.39063 -1.5,1.26562 -1.9375,1.71875 -0.42187,0.4375 -0.70312,0.89062 l 6.67187,0 z"
     id="path3150"
     inkscape:connector-curvature="0"
     style="fill:#000000;fill-rule:nonzero" />
  <path
     d="m 356.43859,127.40249 -5.28125,-13.59375 1.95312,0 3.53125,9.875 q 0.4375,1.1875 0.71875,2.21875 0.3125,-1.10938 0.73438,-2.21875 l 3.67187,-9.875 1.84375,0 -5.32812,13.59375 -1.84375,0 z m 15.08423,-3.17188 1.71875,0.21875 q -0.40625,1.5 -1.51562,2.34375 -1.09375,0.82813 -2.8125,0.82813 -2.15625,0 -3.42188,-1.32813 -1.26562,-1.32812 -1.26562,-3.73437 0,-2.48438 1.26562,-3.85938 1.28125,-1.375 3.32813,-1.375 1.98437,0 3.23437,1.34375 1.25,1.34375 1.25,3.79688 0,0.14062 -0.0156,0.4375 l -7.34375,0 q 0.0937,1.625 0.92188,2.48437 0.82812,0.85938 2.0625,0.85938 0.90625,0 1.54687,-0.46875 0.65625,-0.48438 1.04688,-1.54688 z m -5.48437,-2.70312 5.5,0 q -0.10938,-1.23438 -0.625,-1.85938 -0.79688,-0.96875 -2.07813,-0.96875 -1.14062,0 -1.9375,0.78125 -0.78125,0.76563 -0.85937,2.04688 z m 9.09446,5.875 0,-9.85938 1.5,0 0,1.5 q 0.57812,-1.04687 1.0625,-1.375 0.48437,-0.34375 1.07812,-0.34375 0.84375,0 1.71875,0.54688 l -0.57812,1.54687 q -0.60938,-0.35937 -1.23438,-0.35937 -0.54687,0 -0.98437,0.32812 -0.42188,0.32813 -0.60938,0.90625 -0.28125,0.89063 -0.28125,1.95313 l 0,5.15625 -1.67187,0 z m 9.88455,-1.5 0.23437,1.48437 q -0.70312,0.14063 -1.26562,0.14063 -0.90625,0 -1.40625,-0.28125 -0.5,-0.29688 -0.70313,-0.75 -0.20312,-0.46875 -0.20312,-1.98438 l 0,-5.65625 -1.23438,0 0,-1.3125 1.23438,0 0,-2.4375 1.65625,-1 0,3.4375 1.6875,0 0,1.3125 -1.6875,0 0,5.75 q 0,0.71875 0.0781,0.92188 0.0937,0.20312 0.29688,0.32812 0.20312,0.125 0.57812,0.125 0.26563,0 0.73438,-0.0781 z m 8.27703,-1.67188 1.71875,0.21875 q -0.40625,1.5 -1.51563,2.34375 -1.09375,0.82813 -2.8125,0.82813 -2.15625,0 -3.42187,-1.32813 -1.26563,-1.32812 -1.26563,-3.73437 0,-2.48438 1.26563,-3.85938 1.28125,-1.375 3.32812,-1.375 1.98438,0 3.23438,1.34375 1.25,1.34375 1.25,3.79688 0,0.14062 -0.0156,0.4375 l -7.34375,0 q 0.0937,1.625 0.92188,2.48437 0.82812,0.85938 2.0625,0.85938 0.90625,0 1.54687,-0.46875 0.65625,-0.48438 1.04688,-1.54688 z m -5.48438,-2.70312 5.5,0 q -0.10937,-1.23438 -0.625,-1.85938 -0.79687,-0.96875 -2.07812,-0.96875 -1.14063,0 -1.9375,0.78125 -0.78125,0.76563 -0.85938,2.04688 z m 8.00073,5.875 3.59375,-5.125 -3.32812,-4.73438 2.09375,0 1.51562,2.3125 q 0.42188,0.65625 0.67188,1.10938 0.42187,-0.60938 0.76562,-1.09375 l 1.65625,-2.32813 1.98438,0 -3.39063,4.64063 3.65625,5.21875 -2.04687,0 -2.03125,-3.0625 -0.53125,-0.82813 -2.59375,3.89063 -2.01563,0 z m 14.94893,-2.9375 1.65625,-0.26563 q 0.14062,1 0.76562,1.53125 0.64063,0.51563 1.78125,0.51563 1.15625,0 1.70313,-0.46875 0.5625,-0.46875 0.5625,-1.09375 0,-0.5625 -0.48438,-0.89063 -0.34375,-0.21875 -1.70312,-0.5625 -1.84375,-0.46875 -2.5625,-0.79687 -0.70313,-0.34375 -1.07813,-0.9375 -0.35937,-0.60938 -0.35937,-1.32813 0,-0.65625 0.29687,-1.21875 0.3125,-0.5625 0.82813,-0.9375 0.39062,-0.28125 1.0625,-0.48437 0.67187,-0.20313 1.4375,-0.20313 1.17187,0 2.04687,0.34375 0.875,0.32813 1.28125,0.90625 0.42188,0.5625 0.57813,1.51563 l -1.625,0.21875 q -0.10938,-0.75 -0.65625,-1.17188 -0.53125,-0.4375 -1.5,-0.4375 -1.15625,0 -1.64063,0.39063 -0.48437,0.375 -0.48437,0.875 0,0.32812 0.20312,0.59375 0.20313,0.26562 0.64063,0.4375 0.25,0.0937 1.46875,0.4375 1.76562,0.46875 2.46875,0.76562 0.70312,0.29688 1.09375,0.875 0.40625,0.57813 0.40625,1.4375 0,0.82813 -0.48438,1.57813 -0.48437,0.73437 -1.40625,1.14062 -0.92187,0.39063 -2.07812,0.39063 -1.92188,0 -2.9375,-0.79688 -1,-0.79687 -1.28125,-2.35937 z m 10,2.9375 0,-13.59375 1.67187,0 0,4.875 q 1.17188,-1.35938 2.95313,-1.35938 1.09375,0 1.89062,0.4375 0.8125,0.42188 1.15625,1.1875 0.35938,0.76563 0.35938,2.20313 l 0,6.25 -1.67188,0 0,-6.25 q 0,-1.25 -0.54687,-1.8125 -0.54688,-0.57813 -1.53125,-0.57813 -0.75,0 -1.40625,0.39063 -0.64063,0.375 -0.92188,1.04687 -0.28125,0.65625 -0.28125,1.8125 l 0,5.39063 -1.67187,0 z m 16.81322,-1.21875 q -0.9375,0.79687 -1.79688,1.125 -0.85937,0.3125 -1.84375,0.3125 -1.60937,0 -2.48437,-0.78125 -0.875,-0.79688 -0.875,-2.03125 0,-0.73438 0.32812,-1.32813 0.32813,-0.59375 0.85938,-0.95312 0.53125,-0.35938 1.20312,-0.54688 0.5,-0.14062 1.48438,-0.25 2.03125,-0.25 2.98437,-0.57812 0,-0.34375 0,-0.4375 0,-1.01563 -0.46875,-1.4375 -0.64062,-0.5625 -1.90625,-0.5625 -1.17187,0 -1.73437,0.40625 -0.5625,0.40625 -0.82813,1.46875 l -1.64062,-0.23438 q 0.23437,-1.04687 0.73437,-1.6875 0.51563,-0.64062 1.46875,-0.98437 0.96875,-0.35938 2.25,-0.35938 1.26563,0 2.04688,0.29688 0.78125,0.29687 1.15625,0.75 0.375,0.45312 0.51562,1.14062 0.0937,0.42188 0.0937,1.53125 l 0,2.23438 q 0,2.32812 0.0937,2.95312 0.10938,0.60938 0.4375,1.17188 l -1.75,0 q -0.26562,-0.51563 -0.32812,-1.21875 z m -0.14063,-3.71875 q -0.90625,0.35937 -2.73437,0.625 -1.03125,0.14062 -1.45313,0.32812 -0.42187,0.1875 -0.65625,0.54688 -0.23437,0.35937 -0.23437,0.79687 0,0.67188 0.5,1.125 0.51562,0.4375 1.48437,0.4375 0.96875,0 1.71875,-0.42187 0.75,-0.4375 1.10938,-1.15625 0.26562,-0.57813 0.26562,-1.67188 l 0,-0.60937 z m 10.46949,4.9375 0,-1.25 q -0.9375,1.46875 -2.75,1.46875 -1.17188,0 -2.17188,-0.64063 -0.98437,-0.65625 -1.53125,-1.8125 -0.53125,-1.17187 -0.53125,-2.6875 0,-1.46875 0.48438,-2.67187 0.5,-1.20313 1.46875,-1.84375 0.98437,-0.64063 2.20312,-0.64063 0.89063,0 1.57813,0.375 0.70312,0.375 1.14062,0.98438 l 0,-4.875 1.65625,0 0,13.59375 -1.54687,0 z m -5.28125,-4.92188 q 0,1.89063 0.79687,2.82813 0.8125,0.9375 1.89063,0.9375 1.09375,0 1.85937,-0.89063 0.76563,-0.89062 0.76563,-2.73437 0,-2.01563 -0.78125,-2.95313 -0.78125,-0.95312 -1.92188,-0.95312 -1.10937,0 -1.85937,0.90625 -0.75,0.90625 -0.75,2.85937 z m 16.01629,1.75 1.71875,0.21875 q -0.40625,1.5 -1.51562,2.34375 -1.09375,0.82813 -2.8125,0.82813 -2.15625,0 -3.42188,-1.32813 -1.26562,-1.32812 -1.26562,-3.73437 0,-2.48438 1.26562,-3.85938 1.28125,-1.375 3.32813,-1.375 1.98437,0 3.23437,1.34375 1.25,1.34375 1.25,3.79688 0,0.14062 -0.0156,0.4375 l -7.34375,0 q 0.0937,1.625 0.92187,2.48437 0.82813,0.85938 2.0625,0.85938 0.90625,0 1.54688,-0.46875 0.65625,-0.48438 1.04687,-1.54688 z m -5.48437,-2.70312 5.5,0 q -0.10938,-1.23438 -0.625,-1.85938 -0.79688,-0.96875 -2.07813,-0.96875 -1.14062,0 -1.9375,0.78125 -0.78125,0.76563 -0.85937,2.04688 z m 9.09448,5.875 0,-9.85938 1.5,0 0,1.5 q 0.57812,-1.04687 1.0625,-1.375 0.48437,-0.34375 1.07812,-0.34375 0.84375,0 1.71875,0.54688 l -0.57812,1.54687 q -0.60938,-0.35937 -1.23438,-0.35937 -0.54687,0 -0.98437,0.32812 -0.42188,0.32813 -0.60938,0.90625 -0.28125,0.89063 -0.28125,1.95313 l 0,5.15625 -1.67187,0 z"
     id="path3152"
     inkscape:connector-curvature="0"
     style="fill:#000000;fill-rule:nonzero" />
  <path
     d="m 627.72378,126.96274 0,-13.59375 9.17188,0 0,1.59375 -7.375,0 0,4.21875 6.375,0 0,1.60937 -6.375,0 0,6.17188 -1.79688,0 z m 11.06787,0 0,-9.85938 1.5,0 0,1.5 q 0.57812,-1.04687 1.0625,-1.375 0.48437,-0.34375 1.07812,-0.34375 0.84375,0 1.71875,0.54688 l -0.57812,1.54687 q -0.60938,-0.35937 -1.23438,-0.35937 -0.54687,0 -0.98437,0.32812 -0.42188,0.32813 -0.60938,0.90625 -0.28125,0.89063 -0.28125,1.95313 l 0,5.15625 -1.67187,0 z m 12.66576,-1.21875 q -0.9375,0.79687 -1.79687,1.125 -0.85938,0.3125 -1.84375,0.3125 -1.60938,0 -2.48438,-0.78125 -0.875,-0.79688 -0.875,-2.03125 0,-0.73438 0.32813,-1.32813 0.32812,-0.59375 0.85937,-0.95312 0.53125,-0.35938 1.20313,-0.54688 0.5,-0.14062 1.48437,-0.25 2.03125,-0.25 2.98438,-0.57812 0,-0.34375 0,-0.4375 0,-1.01563 -0.46875,-1.4375 -0.64063,-0.5625 -1.90625,-0.5625 -1.17188,0 -1.73438,0.40625 -0.5625,0.40625 -0.82812,1.46875 l -1.64063,-0.23438 q 0.23438,-1.04687 0.73438,-1.6875 0.51562,-0.64062 1.46875,-0.98437 0.96875,-0.35938 2.25,-0.35938 1.26562,0 2.04687,0.29688 0.78125,0.29687 1.15625,0.75 0.375,0.45312 0.51563,1.14062 0.0937,0.42188 0.0937,1.53125 l 0,2.23438 q 0,2.32812 0.0937,2.95312 0.10937,0.60938 0.4375,1.17188 l -1.75,0 q -0.26563,-0.51563 -0.32813,-1.21875 z m -0.14062,-3.71875 q -0.90625,0.35937 -2.73438,0.625 -1.03125,0.14062 -1.45312,0.32812 -0.42188,0.1875 -0.65625,0.54688 -0.23438,0.35937 -0.23438,0.79687 0,0.67188 0.5,1.125 0.51563,0.4375 1.48438,0.4375 0.96875,0 1.71875,-0.42187 0.75,-0.4375 1.10937,-1.15625 0.26563,-0.57813 0.26563,-1.67188 l 0,-0.60937 z m 3.78198,5.75 1.60937,0.25 q 0.10938,0.75 0.57813,1.09375 0.60937,0.45312 1.6875,0.45312 1.17187,0 1.79687,-0.46875 0.625,-0.45312 0.85938,-1.28125 0.125,-0.51562 0.10937,-2.15625 -1.09375,1.29688 -2.71875,1.29688 -2.03125,0 -3.15625,-1.46875 -1.10937,-1.46875 -1.10937,-3.51563 0,-1.40625 0.51562,-2.59375 0.51563,-1.20312 1.48438,-1.84375 0.96875,-0.65625 2.26562,-0.65625 1.75,0 2.875,1.40625 l 0,-1.1875 1.54688,0 0,8.51563 q 0,2.3125 -0.46875,3.26562 -0.46875,0.96875 -1.48438,1.51563 -1.01562,0.5625 -2.5,0.5625 -1.76562,0 -2.85937,-0.79688 -1.07813,-0.79687 -1.03125,-2.39062 z m 1.375,-5.92188 q 0,1.95313 0.76562,2.84375 0.78125,0.89063 1.9375,0.89063 1.14063,0 1.92188,-0.89063 0.78125,-0.89062 0.78125,-2.78125 0,-1.8125 -0.8125,-2.71875 -0.79688,-0.92187 -1.92188,-0.92187 -1.10937,0 -1.89062,0.90625 -0.78125,0.89062 -0.78125,2.67187 z m 9.29761,5.10938 0,-9.85938 1.5,0 0,1.39063 q 0.45312,-0.71875 1.21875,-1.15625 0.78125,-0.45313 1.76562,-0.45313 1.09375,0 1.79688,0.45313 0.70312,0.45312 0.98437,1.28125 1.17188,-1.73438 3.04688,-1.73438 1.46875,0 2.25,0.8125 0.79687,0.8125 0.79687,2.5 l 0,6.76563 -1.67187,0 0,-6.20313 q 0,-1 -0.15625,-1.4375 -0.15625,-0.45312 -0.59375,-0.71875 -0.42188,-0.26562 -1,-0.26562 -1.03125,0 -1.71875,0.6875 -0.6875,0.6875 -0.6875,2.21875 l 0,5.71875 -1.67188,0 0,-6.40625 q 0,-1.10938 -0.40625,-1.65625 -0.40625,-0.5625 -1.34375,-0.5625 -0.70312,0 -1.3125,0.375 -0.59375,0.35937 -0.85937,1.07812 -0.26563,0.71875 -0.26563,2.0625 l 0,5.10938 -1.67187,0 z m 22.29077,-3.17188 1.71875,0.21875 q -0.40625,1.5 -1.51563,2.34375 -1.09375,0.82813 -2.8125,0.82813 -2.15625,0 -3.42187,-1.32813 -1.26563,-1.32812 -1.26563,-3.73437 0,-2.48438 1.26563,-3.85938 1.28125,-1.375 3.32812,-1.375 1.98438,0 3.23438,1.34375 1.25,1.34375 1.25,3.79688 0,0.14062 -0.0156,0.4375 l -7.34375,0 q 0.0937,1.625 0.92188,2.48437 0.82812,0.85938 2.0625,0.85938 0.90625,0 1.54687,-0.46875 0.65625,-0.48438 1.04688,-1.54688 z m -5.48438,-2.70312 5.5,0 q -0.10937,-1.23438 -0.625,-1.85938 -0.79687,-0.96875 -2.07812,-0.96875 -1.14063,0 -1.9375,0.78125 -0.78125,0.76563 -0.85938,2.04688 z m 9.11011,5.875 0,-9.85938 1.5,0 0,1.40625 q 1.09375,-1.625 3.14062,-1.625 0.89063,0 1.64063,0.32813 0.75,0.3125 1.10937,0.84375 0.375,0.51562 0.53125,1.21875 0.0937,0.46875 0.0937,1.625 l 0,6.0625 -1.67187,0 0,-6 q 0,-1.01563 -0.20313,-1.51563 -0.1875,-0.51562 -0.6875,-0.8125 -0.5,-0.29687 -1.17187,-0.29687 -1.0625,0 -1.84375,0.67187 -0.76563,0.67188 -0.76563,2.57813 l 0,5.375 -1.67187,0 z m 14.03198,-1.5 0.23438,1.48437 q -0.70313,0.14063 -1.26563,0.14063 -0.90625,0 -1.40625,-0.28125 -0.5,-0.29688 -0.70312,-0.75 -0.20313,-0.46875 -0.20313,-1.98438 l 0,-5.65625 -1.23437,0 0,-1.3125 1.23437,0 0,-2.4375 1.65625,-1 0,3.4375 1.6875,0 0,1.3125 -1.6875,0 0,5.75 q 0,0.71875 0.0781,0.92188 0.0937,0.20312 0.29687,0.32812 0.20313,0.125 0.57813,0.125 0.26562,0 0.73437,-0.0781 z m 6.03845,-1.4375 1.65625,-0.26563 q 0.14063,1 0.76563,1.53125 0.64062,0.51563 1.78125,0.51563 1.15625,0 1.70312,-0.46875 0.5625,-0.46875 0.5625,-1.09375 0,-0.5625 -0.48437,-0.89063 -0.34375,-0.21875 -1.70313,-0.5625 -1.84375,-0.46875 -2.5625,-0.79687 -0.70312,-0.34375 -1.07812,-0.9375 -0.35938,-0.60938 -0.35938,-1.32813 0,-0.65625 0.29688,-1.21875 0.3125,-0.5625 0.82812,-0.9375 0.39063,-0.28125 1.0625,-0.48437 0.67188,-0.20313 1.4375,-0.20313 1.17188,0 2.04688,0.34375 0.875,0.32813 1.28125,0.90625 0.42187,0.5625 0.57812,1.51563 l -1.625,0.21875 q -0.10937,-0.75 -0.65625,-1.17188 -0.53125,-0.4375 -1.5,-0.4375 -1.15625,0 -1.64062,0.39063 -0.48438,0.375 -0.48438,0.875 0,0.32812 0.20313,0.59375 0.20312,0.26562 0.64062,0.4375 0.25,0.0937 1.46875,0.4375 1.76563,0.46875 2.46875,0.76562 0.70313,0.29688 1.09375,0.875 0.40625,0.57813 0.40625,1.4375 0,0.82813 -0.48437,1.57813 -0.48438,0.73437 -1.40625,1.14062 -0.92188,0.39063 -2.07813,0.39063 -1.92187,0 -2.9375,-0.79688 -1,-0.79687 -1.28125,-2.35937 z m 10,2.9375 0,-13.59375 1.67188,0 0,4.875 q 1.17187,-1.35938 2.95312,-1.35938 1.09375,0 1.89063,0.4375 0.8125,0.42188 1.15625,1.1875 0.35937,0.76563 0.35937,2.20313 l 0,6.25 -1.67187,0 0,-6.25 q 0,-1.25 -0.54688,-1.8125 -0.54687,-0.57813 -1.53125,-0.57813 -0.75,0 -1.40625,0.39063 -0.64062,0.375 -0.92187,1.04687 -0.28125,0.65625 -0.28125,1.8125 l 0,5.39063 -1.67188,0 z m 16.81324,-1.21875 q -0.9375,0.79687 -1.79688,1.125 -0.85937,0.3125 -1.84375,0.3125 -1.60937,0 -2.48437,-0.78125 -0.875,-0.79688 -0.875,-2.03125 0,-0.73438 0.32812,-1.32813 0.32813,-0.59375 0.85938,-0.95312 0.53125,-0.35938 1.20312,-0.54688 0.5,-0.14062 1.48438,-0.25 2.03125,-0.25 2.98437,-0.57812 0,-0.34375 0,-0.4375 0,-1.01563 -0.46875,-1.4375 -0.64062,-0.5625 -1.90625,-0.5625 -1.17187,0 -1.73437,0.40625 -0.5625,0.40625 -0.82813,1.46875 l -1.64062,-0.23438 q 0.23437,-1.04687 0.73437,-1.6875 0.51563,-0.64062 1.46875,-0.98437 0.96875,-0.35938 2.25,-0.35938 1.26563,0 2.04688,0.29688 0.78125,0.29687 1.15625,0.75 0.375,0.45312 0.51562,1.14062 0.0937,0.42188 0.0937,1.53125 l 0,2.23438 q 0,2.32812 0.0937,2.95312 0.10938,0.60938 0.4375,1.17188 l -1.75,0 q -0.26562,-0.51563 -0.32812,-1.21875 z m -0.14063,-3.71875 q -0.90625,0.35937 -2.73437,0.625 -1.03125,0.14062 -1.45313,0.32812 -0.42187,0.1875 -0.65625,0.54688 -0.23437,0.35937 -0.23437,0.79687 0,0.67188 0.5,1.125 0.51562,0.4375 1.48437,0.4375 0.96875,0 1.71875,-0.42187 0.75,-0.4375 1.10938,-1.15625 0.26562,-0.57813 0.26562,-1.67188 l 0,-0.60937 z m 10.46948,4.9375 0,-1.25 q -0.9375,1.46875 -2.75,1.46875 -1.17187,0 -2.17187,-0.64063 -0.98438,-0.65625 -1.53125,-1.8125 -0.53125,-1.17187 -0.53125,-2.6875 0,-1.46875 0.48437,-2.67187 0.5,-1.20313 1.46875,-1.84375 0.98438,-0.64063 2.20313,-0.64063 0.89062,0 1.57812,0.375 0.70313,0.375 1.14063,0.98438 l 0,-4.875 1.65625,0 0,13.59375 -1.54688,0 z m -5.28125,-4.92188 q 0,1.89063 0.79688,2.82813 0.8125,0.9375 1.89062,0.9375 1.09375,0 1.85938,-0.89063 0.76562,-0.89062 0.76562,-2.73437 0,-2.01563 -0.78125,-2.95313 -0.78125,-0.95312 -1.92187,-0.95312 -1.10938,0 -1.85938,0.90625 -0.75,0.90625 -0.75,2.85937 z m 16.0163,1.75 1.71875,0.21875 q -0.40625,1.5 -1.51563,2.34375 -1.09375,0.82813 -2.8125,0.82813 -2.15625,0 -3.42187,-1.32813 -1.26563,-1.32812 -1.26563,-3.73437 0,-2.48438 1.26563,-3.85938 1.28125,-1.375 3.32812,-1.375 1.98438,0 3.23438,1.34375 1.25,1.34375 1.25,3.79688 0,0.14062 -0.0156,0.4375 l -7.34375,0 q 0.0937,1.625 0.92188,2.48437 0.82812,0.85938 2.0625,0.85938 0.90625,0 1.54687,-0.46875 0.65625,-0.48438 1.04688,-1.54688 z m -5.48438,-2.70312 5.5,0 q -0.10937,-1.23438 -0.625,-1.85938 -0.79687,-0.96875 -2.07812,-0.96875 -1.14063,0 -1.9375,0.78125 -0.78125,0.76563 -0.85938,2.04688 z m 9.09449,5.875 0,-9.85938 1.5,0 0,1.5 q 0.57812,-1.04687 1.0625,-1.375 0.48437,-0.34375 1.07812,-0.34375 0.84375,0 1.71875,0.54688 l -0.57812,1.54687 q -0.60938,-0.35937 -1.23438,-0.35937 -0.54687,0 -0.98437,0.32812 -0.42188,0.32813 -0.60938,0.90625 -0.28125,0.89063 -0.28125,1.95313 l 0,5.15625 -1.67187,0 z"
     id="path3154"
     inkscape:connector-curvature="0"
     style="fill:#000000;fill-rule:nonzero" />
  <path
     d="m 225.18895,56.999994 62.94604,56.225786"
     id="path3156"
     inkscape:connector-curvature="0"
     style="stroke:#000000;stroke-width:2;stroke-linecap:butt;stroke-linejoin:round" />
  <path
     d="m 285.93431,115.68949 8.9697,3.58261 -4.56833,-8.51002 z"
     id="path3158"
     inkscape:connector-curvature="0"
     style="fill:#000000;fill-rule:evenodd;stroke:#000000;stroke-width:2;stroke-linecap:butt" />
  <path
     d="m 225.27356,185.21988 62.85251,-56.01595"
     id="path3160"
     inkscape:connector-curvature="0"
     style="stroke:#000000;stroke-width:2;stroke-linecap:butt;stroke-linejoin:round" />
  <path
     d="m 290.32399,131.6701 4.57782,-8.50493 -8.97366,3.57257 z"
     id="path3162"
     inkscape:connector-curvature="0"
     style="fill:#000000;fill-rule:evenodd;stroke:#000000;stroke-width:2;stroke-linecap:butt" />
  <path
     d="m 521.27358,121.21986 43.64203,-0.21225"
     id="path3164"
     inkscape:connector-curvature="0"
     style="stroke:#000000;stroke-width:2;stroke-linecap:butt;stroke-linejoin:round" />
  <path
     d="m 564.93164,124.31103 9.06006,-3.34756 -9.09216,-3.25928 z"
     id="path3166"
     inkscape:connector-curvature="0"
     style="fill:#000000;fill-rule:evenodd;stroke:#000000;stroke-width:2;stroke-linecap:butt" />
  <path
     d="m 111.88618,265.72951 0,-2.60938 2.60937,0 0,2.60938 -2.60937,0 z"
     id="path3168"
     inkscape:connector-curvature="0"
     style="fill:#000000;fill-rule:nonzero" />
  <path
     d="m 111.88618,287.18263 0,-2.60938 2.60937,0 0,2.60938 -2.60937,0 z"
     id="path3170"
     inkscape:connector-curvature="0"
     style="fill:#000000;fill-rule:nonzero" />
  <path
     d="m 111.88618,308.63576 0,-2.60938 2.60937,0 0,2.60938 -2.60937,0 z"
     id="path3172"
     inkscape:connector-curvature="0"
     style="fill:#000000;fill-rule:nonzero" />
</svg>
