<?xml version="1.0" standalone="yes"?>

<svg version="1.1" viewBox="0.0 0.0 960.0 720.0" fill="none" stroke="none" stroke-linecap="square" stroke-miterlimit="10" clip-path="url(#p.0)" xmlns="http://www.w3.org/2000/svg" xmlns:xlink="http://www.w3.org/1999/xlink"><clipPath id="p.0"><path d="m0 0l960.0 0l0 720.0l-960.0 0l0 -720.0z" clip-rule="nonzero"></path></clipPath><path fill="#ff0000" stroke="#000000" stroke-width="2.0" stroke-linejoin="round" stroke-linecap="butt" d="m25.174818 210.59407l267.5977 -172.04985l43.362946 261.78214z" fill-rule="nonzero"></path><path stroke="#00ff00" stroke-width="1.0" stroke-linejoin="round" stroke-linecap="butt" d="m416.1643 13.008301l0 431.0235" fill-rule="nonzero"></path><path stroke="#00ff00" stroke-width="1.0" stroke-linejoin="round" stroke-linecap="butt" d="m423.98584 13.008301l0 431.0235" fill-rule="nonzero"></path><path stroke="#00ff00" stroke-width="1.0" stroke-linejoin="round" stroke-linecap="butt" d="m430.59995 13.008301l0 431.0235" fill-rule="nonzero"></path><path stroke="#00ff00" stroke-width="1.0" stroke-linejoin="round" stroke-linecap="butt" d="m438.42148 13.008301l0 431.0235" fill-rule="nonzero"></path><path stroke="#00ff00" stroke-width="1.0" stroke-linejoin="round" stroke-linecap="butt" d="m445.10803 13.008301l0 431.0235" fill-rule="nonzero"></path><path stroke="#00ff00" stroke-width="1.0" stroke-linejoin="round" stroke-linecap="butt" d="m452.92957 13.008301l0 431.0235" fill-rule="nonzero"></path><path stroke="#00ff00" stroke-width="1.0" stroke-linejoin="round" stroke-linecap="butt" d="m459.54364 13.008301l0 431.0235" fill-rule="nonzero"></path><path stroke="#00ff00" stroke-width="1.0" stroke-linejoin="round" stroke-linecap="butt" d="m467.36517 13.008301l0 431.0235" fill-rule="nonzero"></path><path stroke="#00ff00" stroke-width="1.0" stroke-linejoin="round" stroke-linecap="butt" d="m474.04636 13.008301l0 431.0235" fill-rule="nonzero"></path><path stroke="#00ff00" stroke-width="1.0" stroke-linejoin="round" stroke-linecap="butt" d="m481.8679 13.008301l0 431.0235" fill-rule="nonzero"></path><path stroke="#00ff00" stroke-width="1.0" stroke-linejoin="round" stroke-linecap="butt" d="m488.482 13.008301l0 431.0235" fill-rule="nonzero"></path><path stroke="#00ff00" stroke-width="1.0" stroke-linejoin="round" stroke-linecap="butt" d="m496.30353 13.008301l0 431.0235" fill-rule="nonzero"></path><path stroke="#00ff00" stroke-width="1.0" stroke-linejoin="round" stroke-linecap="butt" d="m502.99005 13.008301l0 431.0235" fill-rule="nonzero"></path><path stroke="#00ff00" stroke-width="1.0" stroke-linejoin="round" stroke-linecap="butt" d="m510.81158 13.008301l0 431.0235" fill-rule="nonzero"></path><path stroke="#00ff00" stroke-width="1.0" stroke-linejoin="round" stroke-linecap="butt" d="m517.42566 13.008301l0 431.0235" fill-rule="nonzero"></path><path stroke="#00ff00" stroke-width="1.0" stroke-linejoin="round" stroke-linecap="butt" d="m525.2472 13.008301l0 431.0235" fill-rule="nonzero"></path><path stroke="#00ff00" stroke-width="1.0" stroke-linejoin="round" stroke-linecap="butt" d="m531.9311 13.008301l0 431.0235" fill-rule="nonzero"></path><path stroke="#00ff00" stroke-width="1.0" stroke-linejoin="round" stroke-linecap="butt" d="m539.7526 13.008301l0 431.0235" fill-rule="nonzero"></path><path stroke="#00ff00" stroke-width="1.0" stroke-linejoin="round" stroke-linecap="butt" d="m546.3667 13.008301l0 431.0235" fill-rule="nonzero"></path><path stroke="#00ff00" stroke-width="1.0" stroke-linejoin="round" stroke-linecap="butt" d="m554.18823 13.008301l0 431.0235" fill-rule="nonzero"></path><path stroke="#00ff00" stroke-width="1.0" stroke-linejoin="round" stroke-linecap="butt" d="m560.87476 13.008301l0 431.0235" fill-rule="nonzero"></path><path stroke="#00ff00" stroke-width="1.0" stroke-linejoin="round" stroke-linecap="butt" d="m568.6963 13.008301l0 431.0235" fill-rule="nonzero"></path><path stroke="#00ff00" stroke-width="1.0" stroke-linejoin="round" stroke-linecap="butt" d="m575.3104 13.008301l0 431.0235" fill-rule="nonzero"></path><path stroke="#00ff00" stroke-width="1.0" stroke-linejoin="round" stroke-linecap="butt" d="m583.13196 13.008301l0 431.0235" fill-rule="nonzero"></path><path stroke="#00ff00" stroke-width="1.0" stroke-linejoin="round" stroke-linecap="butt" d="m589.8131 13.008301l0 431.0235" fill-rule="nonzero"></path><path stroke="#00ff00" stroke-width="1.0" stroke-linejoin="round" stroke-linecap="butt" d="m597.63464 13.008301l0 431.0235" fill-rule="nonzero"></path><path stroke="#00ff00" stroke-width="1.0" stroke-linejoin="round" stroke-linecap="butt" d="m604.2487 13.008301l0 431.0235" fill-rule="nonzero"></path><path stroke="#00ff00" stroke-width="1.0" stroke-linejoin="round" stroke-linecap="butt" d="m612.07025 13.008301l0 431.0235" fill-rule="nonzero"></path><path stroke="#00ff00" stroke-width="1.0" stroke-linejoin="round" stroke-linecap="butt" d="m618.75684 13.008301l0 431.0235" fill-rule="nonzero"></path><path stroke="#00ff00" stroke-width="1.0" stroke-linejoin="round" stroke-linecap="butt" d="m626.57837 13.008301l0 431.0235" fill-rule="nonzero"></path><path stroke="#00ff00" stroke-width="1.0" stroke-linejoin="round" stroke-linecap="butt" d="m633.19244 13.008301l0 431.0235" fill-rule="nonzero"></path><path stroke="#00ff00" stroke-width="1.0" stroke-linejoin="round" stroke-linecap="butt" d="m641.014 13.008301l0 431.0235" fill-rule="nonzero"></path><path stroke="#00ff00" stroke-width="1.0" stroke-linejoin="round" stroke-linecap="butt" d="m646.917 13.008301l0 431.0235" fill-rule="nonzero"></path><path stroke="#00ff00" stroke-width="1.0" stroke-linejoin="round" stroke-linecap="butt" d="m654.7385 13.008301l0 431.0235" fill-rule="nonzero"></path><path stroke="#00ff00" stroke-width="1.0" stroke-linejoin="round" stroke-linecap="butt" d="m661.35266 13.008301l0 431.0235" fill-rule="nonzero"></path><path stroke="#00ff00" stroke-width="1.0" stroke-linejoin="round" stroke-linecap="butt" d="m669.1742 13.008301l0 431.0235" fill-rule="nonzero"></path><path stroke="#00ff00" stroke-width="1.0" stroke-linejoin="round" stroke-linecap="butt" d="m675.8607 13.008301l0 431.0235" fill-rule="nonzero"></path><path stroke="#00ff00" stroke-width="1.0" stroke-linejoin="round" stroke-linecap="butt" d="m683.68225 13.008301l0 431.0235" fill-rule="nonzero"></path><path stroke="#00ff00" stroke-width="1.0" stroke-linejoin="round" stroke-linecap="butt" d="m690.2963 13.008301l0 431.0235" fill-rule="nonzero"></path><path stroke="#00ff00" stroke-width="1.0" stroke-linejoin="round" stroke-linecap="butt" d="m698.11786 13.008301l0 431.0235" fill-rule="nonzero"></path><path stroke="#00ff00" stroke-width="1.0" stroke-linejoin="round" stroke-linecap="butt" d="m704.7991 13.008301l0 431.0235" fill-rule="nonzero"></path><path stroke="#00ff00" stroke-width="1.0" stroke-linejoin="round" stroke-linecap="butt" d="m712.6206 13.008301l0 431.0235" fill-rule="nonzero"></path><path stroke="#00ff00" stroke-width="1.0" stroke-linejoin="round" stroke-linecap="butt" d="m719.2347 13.008301l0 431.0235" fill-rule="nonzero"></path><path stroke="#00ff00" stroke-width="1.0" stroke-linejoin="round" stroke-linecap="butt" d="m727.0562 13.008301l0 431.0235" fill-rule="nonzero"></path><path stroke="#00ff00" stroke-width="1.0" stroke-linejoin="round" stroke-linecap="butt" d="m733.74274 13.008301l0 431.0235" fill-rule="nonzero"></path><path stroke="#00ff00" stroke-width="1.0" stroke-linejoin="round" stroke-linecap="butt" d="m741.5643 13.008301l0 431.0235" fill-rule="nonzero"></path><path stroke="#00ff00" stroke-width="1.0" stroke-linejoin="round" stroke-linecap="butt" d="m748.1784 13.008301l0 431.0235" fill-rule="nonzero"></path><path stroke="#00ff00" stroke-width="1.0" stroke-linejoin="round" stroke-linecap="butt" d="m755.99994 13.008301l0 431.0235" fill-rule="nonzero"></path><path stroke="#00ff00" stroke-width="1.0" stroke-linejoin="round" stroke-linecap="butt" d="m762.6838 13.008301l0 431.0235" fill-rule="nonzero"></path><path stroke="#00ff00" stroke-width="1.0" stroke-linejoin="round" stroke-linecap="butt" d="m770.5053 13.008301l0 431.0235" fill-rule="nonzero"></path><path stroke="#00ff00" stroke-width="1.0" stroke-linejoin="round" stroke-linecap="butt" d="m777.1194 13.008301l0 431.0235" fill-rule="nonzero"></path><path stroke="#00ff00" stroke-width="1.0" stroke-linejoin="round" stroke-linecap="butt" d="m784.9409 13.008301l0 431.0235" fill-rule="nonzero"></path><path stroke="#00ff00" stroke-width="1.0" stroke-linejoin="round" stroke-linecap="butt" d="m791.6275 13.008301l0 431.0235" fill-rule="nonzero"></path><path stroke="#00ff00" stroke-width="1.0" stroke-linejoin="round" stroke-linecap="butt" d="m799.44904 13.008301l0 431.0235" fill-rule="nonzero"></path><path stroke="#00ff00" stroke-width="1.0" stroke-linejoin="round" stroke-linecap="butt" d="m806.0631 13.008301l0 431.0235" fill-rule="nonzero"></path><path stroke="#00ff00" stroke-width="1.0" stroke-linejoin="round" stroke-linecap="butt" d="m813.88464 13.008301l0 431.0235" fill-rule="nonzero"></path><path stroke="#00ff00" stroke-width="1.0" stroke-linejoin="round" stroke-linecap="butt" d="m820.5658 13.008301l0 431.0235" fill-rule="nonzero"></path><path stroke="#00ff00" stroke-width="1.0" stroke-linejoin="round" stroke-linecap="butt" d="m828.3873 13.008301l0 431.0235" fill-rule="nonzero"></path><path stroke="#00ff00" stroke-width="1.0" stroke-linejoin="round" stroke-linecap="butt" d="m835.0014 13.008301l0 431.0235" fill-rule="nonzero"></path><path stroke="#00ff00" stroke-width="1.0" stroke-linejoin="round" stroke-linecap="butt" d="m842.823 13.008301l0 431.0235" fill-rule="nonzero"></path><path stroke="#00ff00" stroke-width="1.0" stroke-linejoin="round" stroke-linecap="butt" d="m849.5095 13.008301l0 431.0235" fill-rule="nonzero"></path><path stroke="#00ff00" stroke-width="1.0" stroke-linejoin="round" stroke-linecap="butt" d="m857.33105 13.008301l0 431.0235" fill-rule="nonzero"></path><path stroke="#00ff00" stroke-width="1.0" stroke-linejoin="round" stroke-linecap="butt" d="m863.9451 13.008301l0 431.0235" fill-rule="nonzero"></path><path stroke="#00ff00" stroke-width="1.0" stroke-linejoin="round" stroke-linecap="butt" d="m871.76666 13.008301l0 431.0235" fill-rule="nonzero"></path><path stroke="#00ff00" stroke-width="1.0" stroke-linejoin="round" stroke-linecap="butt" d="m847.1878 13.008301l-431.0235 0" fill-rule="nonzero"></path><path stroke="#00ff00" stroke-width="1.0" stroke-linejoin="round" stroke-linecap="butt" d="m847.1878 20.829834l-431.0235 0" fill-rule="nonzero"></path><path stroke="#00ff00" stroke-width="1.0" stroke-linejoin="round" stroke-linecap="butt" d="m847.1878 27.443928l-431.0235 0" fill-rule="nonzero"></path><path stroke="#00ff00" stroke-width="1.0" stroke-linejoin="round" stroke-linecap="butt" d="m847.1878 35.26546l-431.0235 0" fill-rule="nonzero"></path><path stroke="#00ff00" stroke-width="1.0" stroke-linejoin="round" stroke-linecap="butt" d="m847.1878 41.952003l-431.0235 0" fill-rule="nonzero"></path><path stroke="#00ff00" stroke-width="1.0" stroke-linejoin="round" stroke-linecap="butt" d="m847.1878 49.773537l-431.0235 0" fill-rule="nonzero"></path><path stroke="#00ff00" stroke-width="1.0" stroke-linejoin="round" stroke-linecap="butt" d="m847.1878 56.38763l-431.0235 0" fill-rule="nonzero"></path><path stroke="#00ff00" stroke-width="1.0" stroke-linejoin="round" stroke-linecap="butt" d="m847.1878 64.20916l-431.0235 0" fill-rule="nonzero"></path><path stroke="#00ff00" stroke-width="1.0" stroke-linejoin="round" stroke-linecap="butt" d="m847.1878 70.890335l-431.0235 0" fill-rule="nonzero"></path><path stroke="#00ff00" stroke-width="1.0" stroke-linejoin="round" stroke-linecap="butt" d="m847.1878 78.71187l-431.0235 0" fill-rule="nonzero"></path><path stroke="#00ff00" stroke-width="1.0" stroke-linejoin="round" stroke-linecap="butt" d="m847.1878 85.325966l-431.0235 0" fill-rule="nonzero"></path><path stroke="#00ff00" stroke-width="1.0" stroke-linejoin="round" stroke-linecap="butt" d="m847.1878 93.1475l-431.0235 0" fill-rule="nonzero"></path><path stroke="#00ff00" stroke-width="1.0" stroke-linejoin="round" stroke-linecap="butt" d="m847.1878 99.83404l-431.0235 0" fill-rule="nonzero"></path><path stroke="#00ff00" stroke-width="1.0" stroke-linejoin="round" stroke-linecap="butt" d="m847.1878 107.65557l-431.0235 0" fill-rule="nonzero"></path><path stroke="#00ff00" stroke-width="1.0" stroke-linejoin="round" stroke-linecap="butt" d="m847.1878 114.26966l-431.0235 0" fill-rule="nonzero"></path><path stroke="#00ff00" stroke-width="1.0" stroke-linejoin="round" stroke-linecap="butt" d="m847.1878 122.0912l-431.0235 0" fill-rule="nonzero"></path><path stroke="#00ff00" stroke-width="1.0" stroke-linejoin="round" stroke-linecap="butt" d="m847.1878 128.77505l-431.0235 0" fill-rule="nonzero"></path><path stroke="#00ff00" stroke-width="1.0" stroke-linejoin="round" stroke-linecap="butt" d="m847.1878 136.59659l-431.0235 0" fill-rule="nonzero"></path><path stroke="#00ff00" stroke-width="1.0" stroke-linejoin="round" stroke-linecap="butt" d="m847.1878 143.21068l-431.0235 0" fill-rule="nonzero"></path><path stroke="#00ff00" stroke-width="1.0" stroke-linejoin="round" stroke-linecap="butt" d="m847.1878 151.03221l-431.0235 0" fill-rule="nonzero"></path><path stroke="#00ff00" stroke-width="1.0" stroke-linejoin="round" stroke-linecap="butt" d="m847.1878 157.71875l-431.0235 0" fill-rule="nonzero"></path><path stroke="#00ff00" stroke-width="1.0" stroke-linejoin="round" stroke-linecap="butt" d="m847.1878 165.54028l-431.0235 0" fill-rule="nonzero"></path><path stroke="#00ff00" stroke-width="1.0" stroke-linejoin="round" stroke-linecap="butt" d="m847.1878 172.15439l-431.0235 0" fill-rule="nonzero"></path><path stroke="#00ff00" stroke-width="1.0" stroke-linejoin="round" stroke-linecap="butt" d="m847.1878 179.97592l-431.0235 0" fill-rule="nonzero"></path><path stroke="#00ff00" stroke-width="1.0" stroke-linejoin="round" stroke-linecap="butt" d="m847.1878 186.65709l-431.0235 0" fill-rule="nonzero"></path><path stroke="#00ff00" stroke-width="1.0" stroke-linejoin="round" stroke-linecap="butt" d="m847.1878 194.47862l-431.0235 0" fill-rule="nonzero"></path><path stroke="#00ff00" stroke-width="1.0" stroke-linejoin="round" stroke-linecap="butt" d="m847.1878 201.09271l-431.0235 0" fill-rule="nonzero"></path><path stroke="#00ff00" stroke-width="1.0" stroke-linejoin="round" stroke-linecap="butt" d="m847.1878 208.91425l-431.0235 0" fill-rule="nonzero"></path><path stroke="#00ff00" stroke-width="1.0" stroke-linejoin="round" stroke-linecap="butt" d="m847.1878 215.60078l-431.0235 0" fill-rule="nonzero"></path><path stroke="#00ff00" stroke-width="1.0" stroke-linejoin="round" stroke-linecap="butt" d="m847.1878 223.42233l-431.0235 0" fill-rule="nonzero"></path><path stroke="#00ff00" stroke-width="1.0" stroke-linejoin="round" stroke-linecap="butt" d="m847.1878 230.03642l-431.0235 0" fill-rule="nonzero"></path><path stroke="#00ff00" stroke-width="1.0" stroke-linejoin="round" stroke-linecap="butt" d="m847.1878 237.85796l-431.0235 0" fill-rule="nonzero"></path><path stroke="#00ff00" stroke-width="1.0" stroke-linejoin="round" stroke-linecap="butt" d="m847.1878 243.761l-431.0235 0" fill-rule="nonzero"></path><path stroke="#00ff00" stroke-width="1.0" stroke-linejoin="round" stroke-linecap="butt" d="m847.1878 251.58253l-431.0235 0" fill-rule="nonzero"></path><path stroke="#00ff00" stroke-width="1.0" stroke-linejoin="round" stroke-linecap="butt" d="m847.1878 258.19662l-431.0235 0" fill-rule="nonzero"></path><path stroke="#00ff00" stroke-width="1.0" stroke-linejoin="round" stroke-linecap="butt" d="m847.1878 266.01816l-431.0235 0" fill-rule="nonzero"></path><path stroke="#00ff00" stroke-width="1.0" stroke-linejoin="round" stroke-linecap="butt" d="m847.1878 272.7047l-431.0235 0" fill-rule="nonzero"></path><path stroke="#00ff00" stroke-width="1.0" stroke-linejoin="round" stroke-linecap="butt" d="m847.1878 280.52625l-431.0235 0" fill-rule="nonzero"></path><path stroke="#00ff00" stroke-width="1.0" stroke-linejoin="round" stroke-linecap="butt" d="m847.1878 287.14032l-431.0235 0" fill-rule="nonzero"></path><path stroke="#00ff00" stroke-width="1.0" stroke-linejoin="round" stroke-linecap="butt" d="m847.1878 294.96185l-431.0235 0" fill-rule="nonzero"></path><path stroke="#00ff00" stroke-width="1.0" stroke-linejoin="round" stroke-linecap="butt" d="m847.1878 301.64304l-431.0235 0" fill-rule="nonzero"></path><path stroke="#00ff00" stroke-width="1.0" stroke-linejoin="round" stroke-linecap="butt" d="m847.1878 309.46457l-431.0235 0" fill-rule="nonzero"></path><path stroke="#00ff00" stroke-width="1.0" stroke-linejoin="round" stroke-linecap="butt" d="m847.1878 316.07867l-431.0235 0" fill-rule="nonzero"></path><path stroke="#00ff00" stroke-width="1.0" stroke-linejoin="round" stroke-linecap="butt" d="m847.1878 323.9002l-431.0235 0" fill-rule="nonzero"></path><path stroke="#00ff00" stroke-width="1.0" stroke-linejoin="round" stroke-linecap="butt" d="m847.1878 330.58673l-431.0235 0" fill-rule="nonzero"></path><path stroke="#00ff00" stroke-width="1.0" stroke-linejoin="round" stroke-linecap="butt" d="m847.1878 338.40826l-431.0235 0" fill-rule="nonzero"></path><path stroke="#00ff00" stroke-width="1.0" stroke-linejoin="round" stroke-linecap="butt" d="m847.1878 345.02237l-431.0235 0" fill-rule="nonzero"></path><path stroke="#00ff00" stroke-width="1.0" stroke-linejoin="round" stroke-linecap="butt" d="m847.1878 352.8439l-431.0235 0" fill-rule="nonzero"></path><path stroke="#00ff00" stroke-width="1.0" stroke-linejoin="round" stroke-linecap="butt" d="m847.1878 359.52774l-431.0235 0" fill-rule="nonzero"></path><path stroke="#00ff00" stroke-width="1.0" stroke-linejoin="round" stroke-linecap="butt" d="m847.1878 367.34927l-431.0235 0" fill-rule="nonzero"></path><path stroke="#00ff00" stroke-width="1.0" stroke-linejoin="round" stroke-linecap="butt" d="m847.1878 373.96338l-431.0235 0" fill-rule="nonzero"></path><path stroke="#00ff00" stroke-width="1.0" stroke-linejoin="round" stroke-linecap="butt" d="m847.1878 381.7849l-431.0235 0" fill-rule="nonzero"></path><path stroke="#00ff00" stroke-width="1.0" stroke-linejoin="round" stroke-linecap="butt" d="m847.1878 388.47147l-431.0235 0" fill-rule="nonzero"></path><path stroke="#00ff00" stroke-width="1.0" stroke-linejoin="round" stroke-linecap="butt" d="m847.1878 396.293l-431.0235 0" fill-rule="nonzero"></path><path stroke="#00ff00" stroke-width="1.0" stroke-linejoin="round" stroke-linecap="butt" d="m847.1878 402.90707l-431.0235 0" fill-rule="nonzero"></path><path stroke="#00ff00" stroke-width="1.0" stroke-linejoin="round" stroke-linecap="butt" d="m847.1878 410.7286l-431.0235 0" fill-rule="nonzero"></path><path stroke="#00ff00" stroke-width="1.0" stroke-linejoin="round" stroke-linecap="butt" d="m847.1878 417.4098l-431.0235 0" fill-rule="nonzero"></path><path stroke="#00ff00" stroke-width="1.0" stroke-linejoin="round" stroke-linecap="butt" d="m847.1878 425.23132l-431.0235 0" fill-rule="nonzero"></path><path stroke="#00ff00" stroke-width="1.0" stroke-linejoin="round" stroke-linecap="butt" d="m847.1878 431.84543l-431.0235 0" fill-rule="nonzero"></path><path stroke="#00ff00" stroke-width="1.0" stroke-linejoin="round" stroke-linecap="butt" d="m847.1878 439.66696l-431.0235 0" fill-rule="nonzero"></path><path stroke="#00ff00" stroke-width="1.0" stroke-linejoin="round" stroke-linecap="butt" d="m847.1878 446.3535l-431.0235 0" fill-rule="nonzero"></path><path stroke="#00ff00" stroke-width="1.0" stroke-linejoin="round" stroke-linecap="butt" d="m847.1878 454.17502l-431.0235 0" fill-rule="nonzero"></path><path stroke="#00ff00" stroke-width="1.0" stroke-linejoin="round" stroke-linecap="butt" d="m847.1878 460.78912l-431.0235 0" fill-rule="nonzero"></path><path stroke="#00ff00" stroke-width="1.0" stroke-linejoin="round" stroke-linecap="butt" d="m847.1878 468.61066l-431.0235 0" fill-rule="nonzero"></path></svg>

